<svg xmlns="http://www.w3.org/2000/svg" width="196.108" height="264.318" viewBox="0 0 196.108 264.318">
  <g id="Group_3326" data-name="Group 3326" transform="translate(250.601 176.27) rotate(146)">
    <g id="Group_3310" data-name="Group 3310" transform="translate(0 0)">
      <path id="Fill-1" d="M78.715,131.2c-1.364-1.533-1.358-1.516-3.1-.9a9.184,9.184,0,0,1-1.5.293c-1.3.224-2.607,0-3.948.492a9.381,9.381,0,0,1-4.46.289,4.556,4.556,0,0,0-2.389.269c-2.912,1.027-5.194,3.582-8.534,3.571-.3,0-.58.346-.881.507-1.747.934-3.663,1.592-5,3.2-2.393.018-3.769,2.082-5.747,2.944a9.445,9.445,0,0,0-4.583,4.31,3.034,3.034,0,0,1-1.486,1.363c-2.328.8-3.523,2.763-4.8,4.653a12.212,12.212,0,0,0-1.569,2.63c-.451,1.277-.6,2.67-.928,4a2.89,2.89,0,0,0,3.119,3.614c1.5-.186,2.986-.457,4.49-.568,1.673-.124,3.458.294,4.693-1.391.166-.226.787-.09,1.2-.129s1.079.063,1.2-.156c1.05-1.9,2.91-1.472,4.545-1.746.973-.163,2.6-.3,2.732-.8.312-1.2,1.024-.8,1.675-1.033a19.864,19.864,0,0,0,4.622-2.025A13.839,13.839,0,0,1,62,152.316a2.483,2.483,0,0,0,1.32-.67,4.374,4.374,0,0,1,3.7-1.941c.313.008.817-.11.912-.325.761-1.73,2.634-1.8,3.9-2.765,1.093-.832,2.742-1.025,3.609-2.006a8.023,8.023,0,0,1,3.477-2.3c.675-.247,1.6-.792,1.723-1.369.283-1.35,1.414-1.37,2.2-1.859,1.545-.965,3.224-1.7,4.778-2.655a10.079,10.079,0,0,0,1.675-1.656c-1.864-.38-2.765-2.471-4.6-1.943-.154.044-.5-.225-.611-.429-1.336-2.357-3.245-1.716-5.372-1.2m15.642-62.32c.866-.729,1.614-1.287,2.273-1.94.4-.4.968-.953.942-1.417a16.032,16.032,0,0,1,1.325-6.78A1.7,1.7,0,0,0,97.767,56.4c-2.183-.1-4.657-1.588-6.52.863-.2.257-.758.285-1.155.3a8.8,8.8,0,0,1-2.815-.09c-1.035-.325-1.647,1.414-2.683.358-1.064.937-2.453.2-3.59.656-2.63,1.044-5.064,2.578-7.893,3.135a2.029,2.029,0,0,0-1.236.813c-1.383,2.274-3.723,3.027-5.888,4.124a31.464,31.464,0,0,0-4.909,3.086c-1.263.971-1.412,3.232-3.52,3.3-.056,2.272-2.98,2.246-3.25,4.346-2.711,1.316-3.09,3.817-2.922,6.26-.4.825-1.347.13-1.509,1.348-.181,1.37-1.961,2.444-.634,4.153.018.023-.094.136-.124.216-.907,2.352-.363,4.773-.143,7.169A2.517,2.517,0,0,0,49.65,97.8c1.573,1.647,3.2,3.244,4.819,4.84a1.011,1.011,0,0,0,.688.287c3.088-.243,6.232,1.308,9.282-.125.753-.354,1.55-.614,2.285-1,1.26-.665,2.365-1.542,4.014-1.226a2.249,2.249,0,0,0,2.915-1.416,6.454,6.454,0,0,1,2.191-2.31c1.924-1.533,4-2.869,5.856-4.485a33.317,33.317,0,0,0,3.626-4.041,30.08,30.08,0,0,0,2.17-3.056c1.052-1.665,2.085-3.347,3.036-5.076.611-1.109.783-2.648,1.645-3.4a3.261,3.261,0,0,0,1.047-3.808c2.92-1.77,2.7-2.254,1.131-4.113m34.752-11.552a63.651,63.651,0,0,0,4.185,5.172c.95.973,2.2,1.556,2.089,3.232a1.782,1.782,0,0,0,.564,1.177c1.935,1.875,2.181,4.492,3.065,6.84,1.33,3.527.682,7.134.8,10.71a1.1,1.1,0,0,1-.229.728,2.55,2.55,0,0,0-.414,2.835c-.613,1.284-1.107,2.2-1.5,3.16-.872,2.152-1.685,4.329-2.539,6.489-.086.217-.255.508-.439.555-2.06.529-1.741,2.016-1.247,3.632-1.368.817-1.8,2.815-3.734,2.872-.378,1.174-.764,2.346-1.13,3.524a6.06,6.06,0,0,0-.129.843c-1.2.783-2.773.92-3.472,2.686-.524,1.324-2.642,1.525-2.987,3.323-.054.284-.436.51-.69.733a18.237,18.237,0,0,0-4.173,4.725,7.967,7.967,0,0,1-3.587,2.988c-.8.363-1.109.45-1.291,1.394-.26,1.347-.682,1.452-2.149,1.591l-10.769,9.846c.425,2.923.9,6.008,1.312,9.1.218,1.63.291,3.278.512,4.908.135,1-.922,1.315-.946,2.443-.029,1.353.235,3.145-1.156,4.229a.706.706,0,0,0-.152.494c-.02,3.374-1.83,6.033-3.182,8.876-.137.29-.172.792-.373.866-2.336.848-2.93,3.138-4.05,5.017-.4.674-1.287,1.036-1.686,1.71a26.474,26.474,0,0,1-3.861,5.022c-1.362,1.394-2.963,2.536-4.375,3.883s-2.688,2.835-4.08,4.2a7.569,7.569,0,0,1-1.6.99c-.289.166-.743.205-.878.449-1.353,2.451-3.969,3.451-5.785,5.367-.544.575-1.018,1.506-2.143.944-.186-.093-.627.185-.854.4a21.362,21.362,0,0,1-7.973,5.037c-2.587.86-4.757,2.939-7.173,4.37-1.516.9-3.16,1.569-4.72,2.394-.813.43-1.565.979-2.352,1.46-1.587.968-2.941,2.265-5.1,2.161-1.168-.055-2.437.757-3.528,1.409a26.114,26.114,0,0,1-4.956,2.07,18.986,18.986,0,0,0-5.063,2.279c-2.461,1.816-5.564,1.811-8.1,3.316-.258.153-.748-.146-1.126-.138a5.286,5.286,0,0,0-1.266.212c-.134.036-.229.372-.325.362-3.989-.427-7.813.8-11.738.982-.115.006-.243-.2-.49-.414.418-1.271,1.6-1.605,2.623-2.107,1.261-.616,2.667-.922,3.617-2.158.3-.386,1.074-.354,1.606-.575A19.875,19.875,0,0,0,14.334,214a14.274,14.274,0,0,1,7.2-3.247,5.81,5.81,0,0,0,3.416-2.26c1.571.7,2.782.282,4.219-.7a32.648,32.648,0,0,1,8.216-4.4,18.007,18.007,0,0,0,4.78-1.942c.788-.529,1.412-1.337,2.233-1.785,1.109-.6,2-1.374,3.587-1.409,1.62-.034,3.528-1.416,4.639-2.787.8-.984,1.867-.4,2.3-1.05.831-1.249,2.171-1.585,3.232-2.39a6.335,6.335,0,0,1,2.146-1.12,8.168,8.168,0,0,0,2.785-1.789c1.671-1.445,3.207-3.056,4.891-4.484.82-.7,1.906-1.054,2.769-1.709a38.729,38.729,0,0,0,4.291-3.577c1.5-1.528,2.732-3.343,4.217-4.895a30.009,30.009,0,0,1,3.132-2.462c1.978-1.579,4.095-3.007,4.885-5.717.16-.55.988-.847,1.395-1.358a12.562,12.562,0,0,0,1.78-5.649c.058-.724.814-1.374,1.521-2.477.026-.136-1.462-.863.072-1.542,1.249-.554,2.057-3.037,1.827-4.451a4.059,4.059,0,0,1-.051-2.031c1.068-2.513-.119-4.958-.211-7.428-.008-.2-.3-.4-.544-.71A24.879,24.879,0,0,0,89.2,143.4c-2.529,2.646-5.8,4.018-8.813,5.859a11.192,11.192,0,0,0-3.363,2.72c-1.015,1.418-3.108,1.2-3.752,2.955-2.518.113-4.26,1.923-6.342,2.985-2.168,1.105-4.448,1.96-6.4,3.53a9.008,9.008,0,0,1-4.025,1.925c-1.583.25-2.774,1.186-4.171,1.635-2.869.922-5.661,2.287-8.8,2.184a1.831,1.831,0,0,0-.753.139c-4.725,2.007-4.725,2.009-9.77,1.542-2.477,1.248-4.427-1.675-6.86-1.081-.306.074-.81-.574-1.2-.92-.473-.424-.919-.878-1.372-1.325-.179-.176-.5-.381-.493-.548.168-2.447-1.315-4.865-.262-7.323a1.674,1.674,0,0,0,.209-.753,6.113,6.113,0,0,1,1.138-4.161c1.374-2.107,2.509-4.381,3.752-6.581.613-1.084,2.172-1.414,2.205-2.961,2.324.116,2.246-3.163,4.413-3.267.626-2.283,3.047-2.507,4.415-3.995,1-1.086,2.7-1.457,4.009-2.273,1.126-.7,2.145-1.582,3.527-2.621l1.509.218-.163-.4a16.48,16.48,0,0,1,3.024-1.969c1.427-.547,2.81-1.129,4.193-1.79,1.413-.675,3.136-.659,4.7-1.052,1.835-.462,3.617-1.141,5.463-1.54a22.142,22.142,0,0,1,7.024-.842c1.01.1,2.2-.361,3.347-.228.5.058,1.011.054,1.5.15,3.238.628,6.549.478,9.79,1.4a2.281,2.281,0,0,1,1.782,1.777c2.635-1.1,3.567,2.483,6.962,1.863a19.27,19.27,0,0,0,5.81-4.4,1.6,1.6,0,0,1,.414-.305c1.232-.719,2.713-1.2,3.633-2.216s1.542-2.194,2.883-2.759a3.12,3.12,0,0,0,1.165-1.311,4.914,4.914,0,0,1,2.487-2.294c1.261-.52,2.176-1.97,3.148-3.1.813-.945,1.493-2.013,2.216-3.038.091-.128.08-.471.128-.473,1.973-.063,1.925-2.34,3.274-3.189.706-.445.847-1.825,1.329-2.991,1.484.517,2-.874,2.685-2.056.469-.814,1.017-1.582,1.443-2.418.294-.578.418-1.247.656-1.858a3.8,3.8,0,0,1,.64-1.308c1.69-1.7,3.374-3.314,2.874-6.2-.122-.7.511-1.617.97-2.31a9.115,9.115,0,0,0,.933-9.465,3.027,3.027,0,0,1-.327-1.987c.757-2.091-.808-3.631-1.332-5.324-.434-1.4-2.1-2.418-3.214-3.615a4.04,4.04,0,0,1-.992-1.208c-.4-1.18-1.393-1.442-2.3-1.939-.7-.384-1.213-1.138-1.9-1.555a42.46,42.46,0,0,0-5.808-3.195c-.688-.279-1.626-.1-2.323-.719-.124-.11-.361-.243-.463-.194-2.257,1.089-4.127-.861-6.228-.942a4.737,4.737,0,0,0-.738.129c-.586,2.3-1.175,4.724-1.826,7.125-.377,1.388-.912,2.728-1.275,4.119a29.185,29.185,0,0,1-.809,3.8c-.864,2.081-1.983,4.046-3.006,6.054-.2.388-.673.767-.637,1.115.212,2.025-1.409,2.915-2.291,4.26-.228.347-.57.772-.527,1.124.248,2.038-1.265,3.186-2.13,4.612a10.423,10.423,0,0,1-3.293,3.867A8.89,8.89,0,0,0,88.781,95c-.984,1.35-1.712,2.93-3.422,3.564-.364.135-.6.594-.921.875-1.635,1.434-2.846,3.483-5.255,3.8-1.965,2.58-5.654,2.772-7.443,5.623a1.481,1.481,0,0,1-1.079.625,23.375,23.375,0,0,0-2.569-.286c-.868.1-1.671.722-2.54.822-1.251.142-2.611-.254-3.791.065a9.634,9.634,0,0,1-6.548-.38c-2.1-.864-4.246-1.514-6.317-2.573-1.951-1-2.431-2.941-3.763-4.275a13.968,13.968,0,0,1-1.751-2.26c-.613-.941-1.535-1.634-1.044-3.187.315-.994-.46-2.361-.71-3.569a8.412,8.412,0,0,1-.072-3.046c.443-3,.66-6.02,1.927-8.812.145-.32-.1-.815-.077-1.221a3.192,3.192,0,0,1,.255-1.229c1.464,0,1.461-1.122,1.7-2.136a1.514,1.514,0,0,1,.7-1c1.289-.46,1.63-1.625,2.219-2.687.727-1.31,1.092-3,2.808-3.5a.849.849,0,0,0,.463-.58c.32-1.825,1.863-2.325,3.1-3.205a10.506,10.506,0,0,0,2.806-2.593c.723-1.1,1.1-2.392,2.719-2.329a.52.52,0,0,0,.417-.247c.936-2.379,3.345-2.59,5.172-3.6,2.491-1.382,5.084-2.578,7.666-3.78a27.153,27.153,0,0,1,2.644-.812c.663-.229,1.448.025,1.959-.908.246-.45,1.372-.374,2.1-.541,1.47-.338,2.955.126,4.449-1.124,1.13-.946,3.3-.593,5-.813,1.671-.216,3.35-.384,5.012-.649s3.3-.829,4.966.056a2.184,2.184,0,0,0,1.188-2.4c-.19-2.535-.275-5.075-.462-7.61-.112-1.513-.67-3.01-.082-4.539a1.158,1.158,0,0,0-.24-1c-1.288-1.223-.318-2.725-.389-4.014a3.884,3.884,0,0,0-.536-2.509,6.372,6.372,0,0,1-1.011-3.144,17.056,17.056,0,0,0-2.186-7.392,16.1,16.1,0,0,1-.937-2.73,30.5,30.5,0,0,0-3.147-6.344A4.391,4.391,0,0,1,93,1.207c.262-.179.732-.354.955-.232,2.1,1.149,4.646,1.46,5.219,4.8.411,2.394,2,4.6,3.074,6.883.112.238.426.534.367.676-.737,1.772.43,3.23,1.021,4.622,1.2,2.821,1.223,6,2.858,8.664a3.2,3.2,0,0,1,.337,1.506c.081,2.257.059,4.516.18,6.77a34.125,34.125,0,0,0,.545,4.865,11.84,11.84,0,0,1-.144,6.638,2.763,2.763,0,0,0,2.68,3.638c1.919.008,3.754.1,5.41,1.275a.811.811,0,0,0,.5.093,4.9,4.9,0,0,1,3.439,1.008,21.375,21.375,0,0,0,3.578,1.792,6.41,6.41,0,0,0,1.627.626A2.86,2.86,0,0,1,127,56.182c.35.573,1.329.746,2.11,1.141" transform="translate(62.62 0.465) rotate(17)" fill-rule="evenodd"/>
      <g id="Group_3308" data-name="Group 3308" transform="translate(136.626 0)">
        <path id="Path_31" data-name="Path 31" d="M12.163,0a60.4,60.4,0,0,0,2.708,7.505,31.555,31.555,0,0,0,2.546,3.714l.263,1.491,5.494,17.523L0,30.021a28.637,28.637,0,0,1,2.392-6.36,30.376,30.376,0,0,0,.973-3.09A4.582,4.582,0,0,0,4.5,19.342c.09-.209.138-.23.308-.632.394-.928.311-2.3.809-3.518C8.423,8.316,12.163,0,12.163,0Z" transform="matrix(0.899, -0.438, 0.438, 0.899, 0, 10.159)" fill="#0c0c0c"/>
      </g>
    </g>
  </g>
</svg>
