<svg xmlns="http://www.w3.org/2000/svg" width="163.026" height="114.879" viewBox="0 0 163.026 114.879">
  <path id="Path_29" data-name="Path 29" d="M3195.582,353.271s-20.428,1.631-30.385,11.8-5.815,22.916-5.815,22.916-24.48.155-41.322,15.074-22.018,49.087-22.018,49.087-19.644-4.532-35.373-1.093-28.114,15.268-28.114,15.268l.911,1.823s11.99-11.827,28.013-15.111,35.843,2.077,35.843,2.077.5-.127.545-.382c.674-3.495,5.081-36.085,22.073-50.31,17.944-15.022,40.568-15.187,40.568-15.187l.451-.511s-2.505-12.922,6.394-22.78c3.65-4.044,8.987-6.259,13.821-7.9a68.065,68.065,0,0,1,14.407-3.16Z" transform="translate(-3032.556 -353.271)" fill="#eaac01"/>
</svg>
