<svg xmlns="http://www.w3.org/2000/svg" width="263.243" height="125.243" viewBox="0 0 263.243 125.243">
  <g id="Group_3398" data-name="Group 3398" transform="translate(0 0)">
    <path id="Path_32" data-name="Path 32" d="M1679.927,43.555h-16.24l11.483-11.483-2.948-2.949-11.483,11.483V24.367h-4.17V40.606l-11.483-11.483-2.948,2.949,11.483,11.483h-16.239v4.17h16.239l-11.483,11.483,2.948,2.948,11.483-11.483v16.24h4.17V50.673l11.483,11.483,2.948-2.948-11.483-11.483h16.24Z" transform="translate(-1516.685 -24.367)" fill="#fbc940"/>
    <path id="Path_154" data-name="Path 154" d="M1657.624,33.5H1649.9l5.464-5.463-1.4-1.4-5.464,5.464V24.367h-1.984v7.727l-5.464-5.464-1.4,1.4,5.464,5.463h-7.727V35.48h7.727l-5.464,5.464,1.4,1.4,5.464-5.464V44.61h1.984V36.883l5.464,5.464,1.4-1.4L1649.9,35.48h7.727Z" transform="translate(-1394.382 80.633)" fill="#eaac01"/>
    <path id="Path_155" data-name="Path 155" d="M1657.624,33.5H1649.9l5.464-5.463-1.4-1.4-5.464,5.464V24.367h-1.984v7.727l-5.464-5.464-1.4,1.4,5.464,5.463h-7.727V35.48h7.727l-5.464,5.464,1.4,1.4,5.464-5.464V44.61h1.984V36.883l5.464,5.464,1.4-1.4L1649.9,35.48h7.727Z" transform="translate(-1637.382 0.936)" fill="#eaac01"/>
  </g>
</svg>
