<svg xmlns="http://www.w3.org/2000/svg" width="1920" height="877" viewBox="0 0 1920 877">
  <g id="Group_3396" data-name="Group 3396" transform="translate(-12184 -10650)">
    <path id="Path_152" data-name="Path 152" d="M0,0H1920V877H0Z" transform="translate(12184 10650)" fill="#eaac01"/>
    <g id="Group_3395" data-name="Group 3395" opacity="0.18">
      <g id="Group_3351" data-name="Group 3351" transform="translate(11826 10480)">
        <rect id="Rectangle_9" data-name="Rectangle 9" width="6.485" height="17.293" rx="3.242" transform="matrix(0.978, -0.208, 0.208, 0.978, 521.55, 328.054)" fill="#f6f5f2"/>
        <rect id="Rectangle_10" data-name="Rectangle 10" width="6.485" height="20.896" rx="3.242" transform="matrix(0.875, -0.485, 0.485, 0.875, 508.653, 331.099)" fill="#f6f5f2"/>
        <rect id="Rectangle_11" data-name="Rectangle 11" width="6.485" height="17.293" rx="3.242" transform="translate(503.375 346.601) rotate(-56)" fill="#f6f5f2"/>
      </g>
      <g id="Group_3370" data-name="Group 3370" transform="translate(12743 10488.229)">
        <rect id="Rectangle_9-2" data-name="Rectangle 9" width="6.485" height="17.293" rx="3.242" transform="matrix(0.978, -0.208, 0.208, 0.978, 521.55, 328.054)" fill="#f6f5f2"/>
        <rect id="Rectangle_10-2" data-name="Rectangle 10" width="6.485" height="20.896" rx="3.242" transform="matrix(0.875, -0.485, 0.485, 0.875, 508.653, 331.099)" fill="#f6f5f2"/>
        <rect id="Rectangle_11-2" data-name="Rectangle 11" width="6.485" height="17.293" rx="3.242" transform="translate(503.375 346.601) rotate(-56)" fill="#f6f5f2"/>
      </g>
      <g id="Group_3360" data-name="Group 3360" transform="translate(12291.512 10369)">
        <rect id="Rectangle_9-3" data-name="Rectangle 9" width="6.485" height="17.293" rx="3.242" transform="matrix(0.978, -0.208, 0.208, 0.978, 521.55, 328.054)" fill="#f6f5f2"/>
        <rect id="Rectangle_10-3" data-name="Rectangle 10" width="6.485" height="20.896" rx="3.242" transform="matrix(0.875, -0.485, 0.485, 0.875, 508.653, 331.099)" fill="#f6f5f2"/>
        <rect id="Rectangle_11-3" data-name="Rectangle 11" width="6.485" height="17.293" rx="3.242" transform="translate(503.375 346.601) rotate(-56)" fill="#f6f5f2"/>
      </g>
      <g id="Group_3379" data-name="Group 3379" transform="translate(13208.512 10377.229)">
        <rect id="Rectangle_9-4" data-name="Rectangle 9" width="6.485" height="17.293" rx="3.242" transform="matrix(0.978, -0.208, 0.208, 0.978, 521.55, 328.054)" fill="#f6f5f2"/>
        <rect id="Rectangle_10-4" data-name="Rectangle 10" width="6.485" height="20.896" rx="3.242" transform="matrix(0.875, -0.485, 0.485, 0.875, 508.653, 331.099)" fill="#f6f5f2"/>
        <rect id="Rectangle_11-4" data-name="Rectangle 11" width="6.485" height="17.293" rx="3.242" transform="translate(503.375 346.601) rotate(-56)" fill="#f6f5f2"/>
      </g>
      <g id="Group_3365" data-name="Group 3365" transform="translate(12000.557 10887)">
        <rect id="Rectangle_9-5" data-name="Rectangle 9" width="6.485" height="17.293" rx="3.242" transform="matrix(0.978, -0.208, 0.208, 0.978, 521.55, 328.054)" fill="#f6f5f2"/>
        <rect id="Rectangle_10-5" data-name="Rectangle 10" width="6.485" height="20.896" rx="3.242" transform="matrix(0.875, -0.485, 0.485, 0.875, 508.653, 331.099)" fill="#f6f5f2"/>
        <rect id="Rectangle_11-5" data-name="Rectangle 11" width="6.485" height="17.293" rx="3.242" transform="translate(503.375 346.601) rotate(-56)" fill="#f6f5f2"/>
      </g>
      <g id="Group_3393" data-name="Group 3393" transform="matrix(0.719, 0.695, -0.695, 0.719, 12298.26, 11298.319)">
        <rect id="Rectangle_9-6" data-name="Rectangle 9" width="6.485" height="17.293" rx="3.243" transform="matrix(-0.978, -0.208, 0.208, -0.978, 6.343, 18.264)" fill="#f6f5f2"/>
        <rect id="Rectangle_10-6" data-name="Rectangle 10" width="6.485" height="20.896" rx="3.243" transform="matrix(-0.875, -0.485, 0.485, -0.875, 12.706, 22.669)" fill="#f6f5f2"/>
        <rect id="Rectangle_11-6" data-name="Rectangle 11" width="6.485" height="17.293" rx="3.243" transform="translate(13.776 29.565) rotate(-124)" fill="#f6f5f2"/>
      </g>
      <g id="Group_3367" data-name="Group 3367" transform="translate(12917.557 10895.229)">
        <rect id="Rectangle_9-7" data-name="Rectangle 9" width="6.485" height="17.293" rx="3.242" transform="matrix(0.978, -0.208, 0.208, 0.978, 521.55, 328.054)" fill="#f6f5f2"/>
        <rect id="Rectangle_10-7" data-name="Rectangle 10" width="6.485" height="20.896" rx="3.242" transform="matrix(0.875, -0.485, 0.485, 0.875, 508.653, 331.099)" fill="#f6f5f2"/>
        <rect id="Rectangle_11-7" data-name="Rectangle 11" width="6.485" height="17.293" rx="3.242" transform="translate(503.375 346.601) rotate(-56)" fill="#f6f5f2"/>
      </g>
      <g id="Group_3366" data-name="Group 3366" transform="translate(11927 11114.564)">
        <rect id="Rectangle_9-8" data-name="Rectangle 9" width="6.485" height="17.293" rx="3.242" transform="matrix(0.978, -0.208, 0.208, 0.978, 521.55, 328.054)" fill="#f6f5f2"/>
        <rect id="Rectangle_10-8" data-name="Rectangle 10" width="6.485" height="20.896" rx="3.242" transform="matrix(0.875, -0.485, 0.485, 0.875, 508.653, 331.099)" fill="#f6f5f2"/>
        <rect id="Rectangle_11-8" data-name="Rectangle 11" width="6.485" height="17.293" rx="3.242" transform="translate(503.375 346.601) rotate(-56)" fill="#f6f5f2"/>
      </g>
      <g id="Group_3368" data-name="Group 3368" transform="translate(12844 11122.794)">
        <rect id="Rectangle_9-9" data-name="Rectangle 9" width="6.485" height="17.293" rx="3.242" transform="matrix(0.978, -0.208, 0.208, 0.978, 521.55, 328.054)" fill="#f6f5f2"/>
        <rect id="Rectangle_10-9" data-name="Rectangle 10" width="6.485" height="20.896" rx="3.242" transform="matrix(0.875, -0.485, 0.485, 0.875, 508.653, 331.099)" fill="#f6f5f2"/>
        <rect id="Rectangle_11-9" data-name="Rectangle 11" width="6.485" height="17.293" rx="3.242" transform="translate(503.375 346.601) rotate(-56)" fill="#f6f5f2"/>
      </g>
      <g id="Group_3352" data-name="Group 3352" transform="translate(12536.375 10800.706)">
        <rect id="Rectangle_9-10" data-name="Rectangle 9" width="6.485" height="17.293" rx="3.243" transform="matrix(-0.978, -0.208, 0.208, -0.978, 6.343, 18.264)" fill="#f6f5f2"/>
        <rect id="Rectangle_10-10" data-name="Rectangle 10" width="6.485" height="20.896" rx="3.243" transform="matrix(-0.875, -0.485, 0.485, -0.875, 12.706, 22.669)" fill="#f6f5f2"/>
        <rect id="Rectangle_11-10" data-name="Rectangle 11" width="6.485" height="17.293" rx="3.243" transform="translate(13.776 29.565) rotate(-124)" fill="#f6f5f2"/>
      </g>
      <g id="Group_3371" data-name="Group 3371" transform="translate(13475.375 10814.371)">
        <rect id="Rectangle_9-11" data-name="Rectangle 9" width="6.485" height="17.293" rx="3.243" transform="matrix(-0.978, -0.208, 0.208, -0.978, 6.343, 18.264)" fill="#f6f5f2"/>
        <rect id="Rectangle_10-11" data-name="Rectangle 10" width="6.485" height="20.896" rx="3.243" transform="matrix(-0.875, -0.485, 0.485, -0.875, 12.706, 22.669)" fill="#f6f5f2"/>
        <rect id="Rectangle_11-11" data-name="Rectangle 11" width="6.485" height="17.293" rx="3.243" transform="translate(13.776 29.565) rotate(-124)" fill="#f6f5f2"/>
      </g>
      <g id="Group_3394" data-name="Group 3394" transform="translate(13635.647 10893.905) rotate(-47)">
        <rect id="Rectangle_9-12" data-name="Rectangle 9" width="6.485" height="17.293" rx="3.243" transform="matrix(-0.978, -0.208, 0.208, -0.978, 6.343, 18.264)" fill="#f6f5f2"/>
        <rect id="Rectangle_10-12" data-name="Rectangle 10" width="6.485" height="20.896" rx="3.243" transform="matrix(-0.875, -0.485, 0.485, -0.875, 12.706, 22.669)" fill="#f6f5f2"/>
        <rect id="Rectangle_11-12" data-name="Rectangle 11" width="6.485" height="17.293" rx="3.243" transform="translate(13.776 29.565) rotate(-124)" fill="#f6f5f2"/>
      </g>
      <g id="Group_3358" data-name="Group 3358" transform="translate(13001.887 10689.706)">
        <rect id="Rectangle_9-13" data-name="Rectangle 9" width="6.485" height="17.293" rx="3.243" transform="matrix(-0.978, -0.208, 0.208, -0.978, 6.343, 18.264)" fill="#f6f5f2"/>
        <rect id="Rectangle_10-13" data-name="Rectangle 10" width="6.485" height="20.896" rx="3.243" transform="matrix(-0.875, -0.485, 0.485, -0.875, 12.706, 22.669)" fill="#f6f5f2"/>
        <rect id="Rectangle_11-13" data-name="Rectangle 11" width="6.485" height="17.293" rx="3.243" transform="translate(13.776 29.565) rotate(-124)" fill="#f6f5f2"/>
      </g>
      <g id="Group_3380" data-name="Group 3380" transform="translate(13918.887 10697.936)">
        <rect id="Rectangle_9-14" data-name="Rectangle 9" width="6.485" height="17.293" rx="3.243" transform="matrix(-0.978, -0.208, 0.208, -0.978, 6.343, 18.264)" fill="#f6f5f2"/>
        <rect id="Rectangle_10-14" data-name="Rectangle 10" width="6.485" height="20.896" rx="3.243" transform="matrix(-0.875, -0.485, 0.485, -0.875, 12.706, 22.669)" fill="#f6f5f2"/>
        <rect id="Rectangle_11-14" data-name="Rectangle 11" width="6.485" height="17.293" rx="3.243" transform="translate(13.776 29.565) rotate(-124)" fill="#f6f5f2"/>
      </g>
      <g id="Group_3382" data-name="Group 3382" transform="translate(13932.943 11164.488)">
        <rect id="Rectangle_9-15" data-name="Rectangle 9" width="6.485" height="17.293" rx="3.243" transform="matrix(-0.978, -0.208, 0.208, -0.978, 6.343, 18.264)" fill="#f6f5f2"/>
        <rect id="Rectangle_10-15" data-name="Rectangle 10" width="6.485" height="20.896" rx="3.243" transform="matrix(-0.875, -0.485, 0.485, -0.875, 12.706, 22.669)" fill="#f6f5f2"/>
        <rect id="Rectangle_11-15" data-name="Rectangle 11" width="6.485" height="17.293" rx="3.243" transform="translate(13.776 29.565) rotate(-124)" fill="#f6f5f2"/>
      </g>
      <g id="Group_3385" data-name="Group 3385" transform="translate(13046.488 11143.153)">
        <rect id="Rectangle_9-16" data-name="Rectangle 9" width="6.485" height="17.293" rx="3.243" transform="matrix(-0.978, -0.208, 0.208, -0.978, 6.343, 18.264)" fill="#f6f5f2"/>
        <rect id="Rectangle_10-16" data-name="Rectangle 10" width="6.485" height="20.896" rx="3.243" transform="matrix(-0.875, -0.485, 0.485, -0.875, 12.706, 22.669)" fill="#f6f5f2"/>
        <rect id="Rectangle_11-16" data-name="Rectangle 11" width="6.485" height="17.293" rx="3.243" transform="translate(13.776 29.565) rotate(-124)" fill="#f6f5f2"/>
      </g>
      <g id="Group_3363" data-name="Group 3363" transform="translate(12710.932 11207.706)">
        <rect id="Rectangle_9-17" data-name="Rectangle 9" width="6.485" height="17.293" rx="3.243" transform="matrix(-0.978, -0.208, 0.208, -0.978, 6.343, 18.264)" fill="#f6f5f2"/>
        <rect id="Rectangle_10-17" data-name="Rectangle 10" width="6.485" height="20.896" rx="3.243" transform="matrix(-0.875, -0.485, 0.485, -0.875, 12.706, 22.669)" fill="#f6f5f2"/>
        <rect id="Rectangle_11-17" data-name="Rectangle 11" width="6.485" height="17.293" rx="3.243" transform="translate(13.776 29.565) rotate(-124)" fill="#f6f5f2"/>
      </g>
      <g id="Group_3372" data-name="Group 3372" transform="translate(13627.932 11215.936)">
        <rect id="Rectangle_9-18" data-name="Rectangle 9" width="6.485" height="17.293" rx="3.243" transform="matrix(-0.978, -0.208, 0.208, -0.978, 6.343, 18.264)" fill="#f6f5f2"/>
        <rect id="Rectangle_10-18" data-name="Rectangle 10" width="6.485" height="20.896" rx="3.243" transform="matrix(-0.875, -0.485, 0.485, -0.875, 12.706, 22.669)" fill="#f6f5f2"/>
        <rect id="Rectangle_11-18" data-name="Rectangle 11" width="6.485" height="17.293" rx="3.243" transform="translate(13.776 29.565) rotate(-124)" fill="#f6f5f2"/>
      </g>
      <g id="Group_3353" data-name="Group 3353" transform="translate(12430.375 10946.706)">
        <rect id="Rectangle_9-19" data-name="Rectangle 9" width="6.485" height="17.293" rx="3.243" transform="matrix(-0.978, 0.208, -0.208, -0.978, 9.939, 28.216)" fill="#f6f5f2"/>
        <rect id="Rectangle_10-19" data-name="Rectangle 10" width="6.485" height="20.896" rx="3.243" transform="matrix(-0.875, 0.485, -0.485, -0.875, 22.836, 25.172)" fill="#f6f5f2"/>
        <rect id="Rectangle_11-19" data-name="Rectangle 11" width="6.485" height="17.293" rx="3.243" transform="translate(28.113 9.67) rotate(124)" fill="#f6f5f2"/>
      </g>
      <g id="Group_3373" data-name="Group 3373" transform="translate(13347.375 10954.936)">
        <rect id="Rectangle_9-20" data-name="Rectangle 9" width="6.485" height="17.293" rx="3.243" transform="matrix(-0.978, 0.208, -0.208, -0.978, 9.939, 28.216)" fill="#f6f5f2"/>
        <rect id="Rectangle_10-20" data-name="Rectangle 10" width="6.485" height="20.896" rx="3.243" transform="matrix(-0.875, 0.485, -0.485, -0.875, 22.836, 25.172)" fill="#f6f5f2"/>
        <rect id="Rectangle_11-20" data-name="Rectangle 11" width="6.485" height="17.293" rx="3.243" transform="translate(28.113 9.67) rotate(124)" fill="#f6f5f2"/>
      </g>
      <g id="Group_3388" data-name="Group 3388" transform="translate(13333.318 10697.936)">
        <rect id="Rectangle_9-21" data-name="Rectangle 9" width="6.485" height="17.293" rx="3.243" transform="matrix(-0.978, 0.208, -0.208, -0.978, 9.939, 28.216)" fill="#f6f5f2"/>
        <rect id="Rectangle_10-21" data-name="Rectangle 10" width="6.485" height="20.896" rx="3.243" transform="matrix(-0.875, 0.485, -0.485, -0.875, 22.836, 25.172)" fill="#f6f5f2"/>
        <rect id="Rectangle_11-21" data-name="Rectangle 11" width="6.485" height="17.293" rx="3.243" transform="translate(28.113 9.67) rotate(124)" fill="#f6f5f2"/>
      </g>
      <g id="Group_3389" data-name="Group 3389" transform="translate(12298.102 10683.153)">
        <rect id="Rectangle_9-22" data-name="Rectangle 9" width="6.485" height="17.293" rx="3.243" transform="matrix(-0.978, 0.208, -0.208, -0.978, 9.939, 28.216)" fill="#f6f5f2"/>
        <rect id="Rectangle_10-22" data-name="Rectangle 10" width="6.485" height="20.896" rx="3.243" transform="matrix(-0.875, 0.485, -0.485, -0.875, 22.836, 25.172)" fill="#f6f5f2"/>
        <rect id="Rectangle_11-22" data-name="Rectangle 11" width="6.485" height="17.293" rx="3.243" transform="translate(28.113 9.67) rotate(124)" fill="#f6f5f2"/>
      </g>
      <g id="Group_3357" data-name="Group 3357" transform="translate(12895.887 10835.706)">
        <rect id="Rectangle_9-23" data-name="Rectangle 9" width="6.485" height="17.293" rx="3.243" transform="matrix(-0.978, 0.208, -0.208, -0.978, 9.939, 28.216)" fill="#f6f5f2"/>
        <rect id="Rectangle_10-23" data-name="Rectangle 10" width="6.485" height="20.896" rx="3.243" transform="matrix(-0.875, 0.485, -0.485, -0.875, 22.836, 25.172)" fill="#f6f5f2"/>
        <rect id="Rectangle_11-23" data-name="Rectangle 11" width="6.485" height="17.293" rx="3.243" transform="translate(28.113 9.67) rotate(124)" fill="#f6f5f2"/>
      </g>
      <g id="Group_3391" data-name="Group 3391" transform="matrix(0.469, 0.883, -0.883, 0.469, 13066.998, 11000.137)">
        <rect id="Rectangle_9-24" data-name="Rectangle 9" width="6.485" height="17.293" rx="3.243" transform="matrix(-0.978, 0.208, -0.208, -0.978, 9.939, 28.216)" fill="#f6f5f2"/>
        <rect id="Rectangle_10-24" data-name="Rectangle 10" width="6.485" height="20.896" rx="3.243" transform="matrix(-0.875, 0.485, -0.485, -0.875, 22.836, 25.172)" fill="#f6f5f2"/>
        <rect id="Rectangle_11-24" data-name="Rectangle 11" width="6.485" height="17.293" rx="3.243" transform="translate(28.113 9.67) rotate(124)" fill="#f6f5f2"/>
      </g>
      <g id="Group_3392" data-name="Group 3392" transform="matrix(0.469, 0.883, -0.883, 0.469, 12994.705, 11464.282)">
        <rect id="Rectangle_9-25" data-name="Rectangle 9" width="6.485" height="17.293" rx="3.243" transform="matrix(-0.978, 0.208, -0.208, -0.978, 9.939, 28.216)" fill="#f6f5f2"/>
        <rect id="Rectangle_10-25" data-name="Rectangle 10" width="6.485" height="20.896" rx="3.243" transform="matrix(-0.875, 0.485, -0.485, -0.875, 22.836, 25.172)" fill="#f6f5f2"/>
        <rect id="Rectangle_11-25" data-name="Rectangle 11" width="6.485" height="17.293" rx="3.243" transform="translate(28.113 9.67) rotate(124)" fill="#f6f5f2"/>
      </g>
      <g id="Group_3374" data-name="Group 3374" transform="translate(13812.887 10843.936)">
        <rect id="Rectangle_9-26" data-name="Rectangle 9" width="6.485" height="17.293" rx="3.243" transform="matrix(-0.978, 0.208, -0.208, -0.978, 9.939, 28.216)" fill="#f6f5f2"/>
        <rect id="Rectangle_10-26" data-name="Rectangle 10" width="6.485" height="20.896" rx="3.243" transform="matrix(-0.875, 0.485, -0.485, -0.875, 22.836, 25.172)" fill="#f6f5f2"/>
        <rect id="Rectangle_11-26" data-name="Rectangle 11" width="6.485" height="17.293" rx="3.243" transform="translate(28.113 9.67) rotate(124)" fill="#f6f5f2"/>
      </g>
      <g id="Group_3383" data-name="Group 3383" transform="translate(13826.943 11310.488)">
        <rect id="Rectangle_9-27" data-name="Rectangle 9" width="6.485" height="17.293" rx="3.243" transform="matrix(-0.978, 0.208, -0.208, -0.978, 9.939, 28.216)" fill="#f6f5f2"/>
        <rect id="Rectangle_10-27" data-name="Rectangle 10" width="6.485" height="20.896" rx="3.243" transform="matrix(-0.875, 0.485, -0.485, -0.875, 22.836, 25.172)" fill="#f6f5f2"/>
        <rect id="Rectangle_11-27" data-name="Rectangle 11" width="6.485" height="17.293" rx="3.243" transform="translate(28.113 9.67) rotate(124)" fill="#f6f5f2"/>
      </g>
      <g id="Group_3386" data-name="Group 3386" transform="translate(12940.488 11289.153)">
        <rect id="Rectangle_9-28" data-name="Rectangle 9" width="6.485" height="17.293" rx="3.243" transform="matrix(-0.978, 0.208, -0.208, -0.978, 9.939, 28.216)" fill="#f6f5f2"/>
        <rect id="Rectangle_10-28" data-name="Rectangle 10" width="6.485" height="20.896" rx="3.243" transform="matrix(-0.875, 0.485, -0.485, -0.875, 22.836, 25.172)" fill="#f6f5f2"/>
        <rect id="Rectangle_11-28" data-name="Rectangle 11" width="6.485" height="17.293" rx="3.243" transform="translate(28.113 9.67) rotate(124)" fill="#f6f5f2"/>
      </g>
      <g id="Group_3362" data-name="Group 3362" transform="translate(12604.932 11353.706)">
        <rect id="Rectangle_9-29" data-name="Rectangle 9" width="6.485" height="17.293" rx="3.243" transform="matrix(-0.978, 0.208, -0.208, -0.978, 9.939, 28.216)" fill="#f6f5f2"/>
        <rect id="Rectangle_10-29" data-name="Rectangle 10" width="6.485" height="20.896" rx="3.243" transform="matrix(-0.875, 0.485, -0.485, -0.875, 22.836, 25.172)" fill="#f6f5f2"/>
        <rect id="Rectangle_11-29" data-name="Rectangle 11" width="6.485" height="17.293" rx="3.243" transform="translate(28.113 9.67) rotate(124)" fill="#f6f5f2"/>
      </g>
      <g id="Group_3375" data-name="Group 3375" transform="translate(13521.932 11361.936)">
        <rect id="Rectangle_9-30" data-name="Rectangle 9" width="6.485" height="17.293" rx="3.243" transform="matrix(-0.978, 0.208, -0.208, -0.978, 9.939, 28.216)" fill="#f6f5f2"/>
        <rect id="Rectangle_10-30" data-name="Rectangle 10" width="6.485" height="20.896" rx="3.243" transform="matrix(-0.875, 0.485, -0.485, -0.875, 22.836, 25.172)" fill="#f6f5f2"/>
        <rect id="Rectangle_11-30" data-name="Rectangle 11" width="6.485" height="17.293" rx="3.243" transform="translate(28.113 9.67) rotate(124)" fill="#f6f5f2"/>
      </g>
      <g id="Group_3354" data-name="Group 3354" transform="translate(12650.375 11004.706)">
        <rect id="Rectangle_9-31" data-name="Rectangle 9" width="6.485" height="17.293" rx="3.243" transform="matrix(-0.978, 0.208, -0.208, -0.978, 9.939, 28.216)" fill="#f6f5f2"/>
        <rect id="Rectangle_10-31" data-name="Rectangle 10" width="6.485" height="20.896" rx="3.243" transform="matrix(-0.875, 0.485, -0.485, -0.875, 22.836, 25.172)" fill="#f6f5f2"/>
        <rect id="Rectangle_11-31" data-name="Rectangle 11" width="6.485" height="17.293" rx="3.243" transform="translate(28.113 9.67) rotate(124)" fill="#f6f5f2"/>
      </g>
      <g id="Group_3390" data-name="Group 3390" transform="translate(12237.375 11034.271)">
        <rect id="Rectangle_9-32" data-name="Rectangle 9" width="6.485" height="17.293" rx="3.243" transform="matrix(-0.978, 0.208, -0.208, -0.978, 9.939, 28.216)" fill="#f6f5f2"/>
        <rect id="Rectangle_10-32" data-name="Rectangle 10" width="6.485" height="20.896" rx="3.243" transform="matrix(-0.875, 0.485, -0.485, -0.875, 22.836, 25.172)" fill="#f6f5f2"/>
        <rect id="Rectangle_11-32" data-name="Rectangle 11" width="6.485" height="17.293" rx="3.243" transform="translate(28.113 9.67) rotate(124)" fill="#f6f5f2"/>
      </g>
      <g id="Group_3376" data-name="Group 3376" transform="translate(13567.375 11012.936)">
        <rect id="Rectangle_9-33" data-name="Rectangle 9" width="6.485" height="17.293" rx="3.243" transform="matrix(-0.978, 0.208, -0.208, -0.978, 9.939, 28.216)" fill="#f6f5f2"/>
        <rect id="Rectangle_10-33" data-name="Rectangle 10" width="6.485" height="20.896" rx="3.243" transform="matrix(-0.875, 0.485, -0.485, -0.875, 22.836, 25.172)" fill="#f6f5f2"/>
        <rect id="Rectangle_11-33" data-name="Rectangle 11" width="6.485" height="17.293" rx="3.243" transform="translate(28.113 9.67) rotate(124)" fill="#f6f5f2"/>
      </g>
      <g id="Group_3356" data-name="Group 3356" transform="translate(13115.887 10893.706)">
        <rect id="Rectangle_9-34" data-name="Rectangle 9" width="6.485" height="17.293" rx="3.243" transform="matrix(-0.978, 0.208, -0.208, -0.978, 9.939, 28.216)" fill="#f6f5f2"/>
        <rect id="Rectangle_10-34" data-name="Rectangle 10" width="6.485" height="20.896" rx="3.243" transform="matrix(-0.875, 0.485, -0.485, -0.875, 22.836, 25.172)" fill="#f6f5f2"/>
        <rect id="Rectangle_11-34" data-name="Rectangle 11" width="6.485" height="17.293" rx="3.243" transform="translate(28.113 9.67) rotate(124)" fill="#f6f5f2"/>
      </g>
      <g id="Group_3381" data-name="Group 3381" transform="translate(14032.887 10901.936)">
        <rect id="Rectangle_9-35" data-name="Rectangle 9" width="6.485" height="17.293" rx="3.243" transform="matrix(-0.978, 0.208, -0.208, -0.978, 9.939, 28.216)" fill="#f6f5f2"/>
        <rect id="Rectangle_10-35" data-name="Rectangle 10" width="6.485" height="20.896" rx="3.243" transform="matrix(-0.875, 0.485, -0.485, -0.875, 22.836, 25.172)" fill="#f6f5f2"/>
        <rect id="Rectangle_11-35" data-name="Rectangle 11" width="6.485" height="17.293" rx="3.243" transform="translate(28.113 9.67) rotate(124)" fill="#f6f5f2"/>
      </g>
      <g id="Group_3384" data-name="Group 3384" transform="translate(14046.943 11368.488)">
        <rect id="Rectangle_9-36" data-name="Rectangle 9" width="6.485" height="17.293" rx="3.243" transform="matrix(-0.978, 0.208, -0.208, -0.978, 9.939, 28.216)" fill="#f6f5f2"/>
        <rect id="Rectangle_10-36" data-name="Rectangle 10" width="6.485" height="20.896" rx="3.243" transform="matrix(-0.875, 0.485, -0.485, -0.875, 22.836, 25.172)" fill="#f6f5f2"/>
        <rect id="Rectangle_11-36" data-name="Rectangle 11" width="6.485" height="17.293" rx="3.243" transform="translate(28.113 9.67) rotate(124)" fill="#f6f5f2"/>
      </g>
      <g id="Group_3387" data-name="Group 3387" transform="translate(13160.488 11347.153)">
        <rect id="Rectangle_9-37" data-name="Rectangle 9" width="6.485" height="17.293" rx="3.243" transform="matrix(-0.978, 0.208, -0.208, -0.978, 9.939, 28.216)" fill="#f6f5f2"/>
        <rect id="Rectangle_10-37" data-name="Rectangle 10" width="6.485" height="20.896" rx="3.243" transform="matrix(-0.875, 0.485, -0.485, -0.875, 22.836, 25.172)" fill="#f6f5f2"/>
        <rect id="Rectangle_11-37" data-name="Rectangle 11" width="6.485" height="17.293" rx="3.243" transform="translate(28.113 9.67) rotate(124)" fill="#f6f5f2"/>
      </g>
      <g id="Group_3361" data-name="Group 3361" transform="translate(12824.932 11411.706)">
        <rect id="Rectangle_9-38" data-name="Rectangle 9" width="6.485" height="17.293" rx="3.243" transform="matrix(-0.978, 0.208, -0.208, -0.978, 9.939, 28.216)" fill="#f6f5f2"/>
        <rect id="Rectangle_10-38" data-name="Rectangle 10" width="6.485" height="20.896" rx="3.243" transform="matrix(-0.875, 0.485, -0.485, -0.875, 22.836, 25.172)" fill="#f6f5f2"/>
        <rect id="Rectangle_11-38" data-name="Rectangle 11" width="6.485" height="17.293" rx="3.243" transform="translate(28.113 9.67) rotate(124)" fill="#f6f5f2"/>
      </g>
      <g id="Group_3377" data-name="Group 3377" transform="translate(13741.932 11419.936)">
        <rect id="Rectangle_9-39" data-name="Rectangle 9" width="6.485" height="17.293" rx="3.243" transform="matrix(-0.978, 0.208, -0.208, -0.978, 9.939, 28.216)" fill="#f6f5f2"/>
        <rect id="Rectangle_10-39" data-name="Rectangle 10" width="6.485" height="20.896" rx="3.243" transform="matrix(-0.875, 0.485, -0.485, -0.875, 22.836, 25.172)" fill="#f6f5f2"/>
        <rect id="Rectangle_11-39" data-name="Rectangle 11" width="6.485" height="17.293" rx="3.243" transform="translate(28.113 9.67) rotate(124)" fill="#f6f5f2"/>
      </g>
      <g id="Group_3355" data-name="Group 3355" transform="translate(12357.488 11149.706)">
        <rect id="Rectangle_9-40" data-name="Rectangle 9" width="6.485" height="17.293" rx="3.243" transform="matrix(-0.978, -0.208, 0.208, -0.978, 6.343, 18.263)" fill="#f6f5f2"/>
        <rect id="Rectangle_10-40" data-name="Rectangle 10" width="6.485" height="20.896" rx="3.243" transform="matrix(-0.875, -0.485, 0.485, -0.875, 12.706, 22.669)" fill="#f6f5f2"/>
        <rect id="Rectangle_11-40" data-name="Rectangle 11" width="6.485" height="17.293" rx="3.243" transform="translate(13.776 29.564) rotate(-124)" fill="#f6f5f2"/>
      </g>
      <g id="Group_3369" data-name="Group 3369" transform="translate(13274.488 11157.936)">
        <rect id="Rectangle_9-41" data-name="Rectangle 9" width="6.485" height="17.293" rx="3.243" transform="matrix(-0.978, -0.208, 0.208, -0.978, 6.343, 18.263)" fill="#f6f5f2"/>
        <rect id="Rectangle_10-41" data-name="Rectangle 10" width="6.485" height="20.896" rx="3.243" transform="matrix(-0.875, -0.485, 0.485, -0.875, 12.706, 22.669)" fill="#f6f5f2"/>
        <rect id="Rectangle_11-41" data-name="Rectangle 11" width="6.485" height="17.293" rx="3.243" transform="translate(13.776 29.564) rotate(-124)" fill="#f6f5f2"/>
      </g>
      <g id="Group_3359" data-name="Group 3359" transform="translate(12823 11038.706)">
        <rect id="Rectangle_9-42" data-name="Rectangle 9" width="6.485" height="17.293" rx="3.243" transform="matrix(-0.978, -0.208, 0.208, -0.978, 6.343, 18.263)" fill="#f6f5f2"/>
        <rect id="Rectangle_10-42" data-name="Rectangle 10" width="6.485" height="20.896" rx="3.243" transform="matrix(-0.875, -0.485, 0.485, -0.875, 12.706, 22.669)" fill="#f6f5f2"/>
        <rect id="Rectangle_11-42" data-name="Rectangle 11" width="6.485" height="17.293" rx="3.243" transform="translate(13.776 29.564) rotate(-124)" fill="#f6f5f2"/>
      </g>
      <g id="Group_3378" data-name="Group 3378" transform="translate(13740 11046.936)">
        <rect id="Rectangle_9-43" data-name="Rectangle 9" width="6.485" height="17.293" rx="3.243" transform="matrix(-0.978, -0.208, 0.208, -0.978, 6.343, 18.263)" fill="#f6f5f2"/>
        <rect id="Rectangle_10-43" data-name="Rectangle 10" width="6.485" height="20.896" rx="3.243" transform="matrix(-0.875, -0.485, 0.485, -0.875, 12.706, 22.669)" fill="#f6f5f2"/>
        <rect id="Rectangle_11-43" data-name="Rectangle 11" width="6.485" height="17.293" rx="3.243" transform="translate(13.776 29.564) rotate(-124)" fill="#f6f5f2"/>
      </g>
      <g id="Group_3364" data-name="Group 3364" transform="translate(12251.432 11441.271)">
        <rect id="Rectangle_9-44" data-name="Rectangle 9" width="6.485" height="17.293" rx="3.243" transform="matrix(-0.978, -0.208, 0.208, -0.978, 6.343, 18.263)" fill="#f6f5f2"/>
        <rect id="Rectangle_10-44" data-name="Rectangle 10" width="6.485" height="20.896" rx="3.243" transform="matrix(-0.875, -0.485, 0.485, -0.875, 12.706, 22.669)" fill="#f6f5f2"/>
        <rect id="Rectangle_11-44" data-name="Rectangle 11" width="6.485" height="17.293" rx="3.243" transform="translate(13.776 29.564) rotate(-124)" fill="#f6f5f2"/>
      </g>
      <path id="Path_143" data-name="Path 143" d="M1690.177,48.177h-20.152l14.249-14.249-3.658-3.659-14.25,14.25V24.367h-5.174V44.519l-14.25-14.25-3.658,3.659,14.25,14.249h-20.152v5.175h20.152l-14.25,14.25,3.658,3.659,14.25-14.249V77.163h5.174V57.011l14.25,14.249,3.658-3.659-14.249-14.25h20.152Z" transform="translate(11073.551 10764.209)" fill="#f6f5f2"/>
      <path id="Path_151" data-name="Path 151" d="M1690.177,48.177h-20.152l14.249-14.249-3.658-3.659-14.25,14.25V24.367h-5.174V44.519l-14.25-14.25-3.658,3.659,14.25,14.249h-20.152v5.175h20.152l-14.25,14.25,3.658,3.659,14.25-14.249V77.163h5.174V57.011l14.25,14.249,3.658-3.659-14.249-14.25h20.152Z" transform="translate(11048.867 11393.672)" fill="#f6f5f2"/>
      <path id="Path_145" data-name="Path 145" d="M1690.177,48.177h-20.152l14.249-14.249-3.658-3.659-14.25,14.25V24.367h-5.174V44.519l-14.25-14.25-3.658,3.659,14.25,14.249h-20.152v5.175h20.152l-14.25,14.25,3.658,3.659,14.25-14.249V77.163h5.174V57.011l14.25,14.249,3.658-3.659-14.249-14.25h20.152Z" transform="translate(11811.596 11049.919)" fill="#f6f5f2"/>
      <path id="Path_146" data-name="Path 146" d="M1690.177,48.177h-20.152l14.249-14.249-3.658-3.659-14.25,14.25V24.367h-5.174V44.519l-14.25-14.25-3.658,3.659,14.25,14.249h-20.152v5.175h20.152l-14.25,14.25,3.658,3.659,14.25-14.249V77.163h5.174V57.011l14.25,14.249,3.658-3.659-14.249-14.25h20.152Z" transform="translate(12384.879 10682.734)" fill="#f6f5f2"/>
      <path id="Path_147" data-name="Path 147" d="M1690.177,48.177h-20.152l14.249-14.249-3.658-3.659-14.25,14.25V24.367h-5.174V44.519l-14.25-14.25-3.658,3.659,14.25,14.249h-20.152v5.175h20.152l-14.25,14.25,3.658,3.659,14.25-14.249V77.163h5.174V57.011l14.25,14.249,3.658-3.659-14.249-14.25h20.152Z" transform="translate(11986.266 11425.133)" fill="#f6f5f2"/>
      <path id="Path_148" data-name="Path 148" d="M1690.177,48.177h-20.152l14.249-14.249-3.658-3.659-14.25,14.25V24.367h-5.174V44.519l-14.25-14.25-3.658,3.659,14.25,14.249h-20.152v5.175h20.152l-14.25,14.25,3.658,3.659,14.25-14.249V77.163h5.174V57.011l14.25,14.249,3.658-3.659-14.249-14.25h20.152Z" transform="translate(10662.436 11431.686)" fill="#f6f5f2"/>
      <path id="Path_149" data-name="Path 149" d="M1690.177,48.177h-20.152l14.249-14.249-3.658-3.659-14.25,14.25V24.367h-5.174V44.519l-14.25-14.25-3.658,3.659,14.25,14.249h-20.152v5.175h20.152l-14.25,14.25,3.658,3.659,14.25-14.249V77.163h5.174V57.011l14.25,14.249,3.658-3.659-14.249-14.25h20.152Z" transform="translate(10662.436 10925.506)" fill="#f6f5f2"/>
      <path id="Path_150" data-name="Path 150" d="M1690.177,48.177h-20.152l14.249-14.249-3.658-3.659-14.25,14.25V24.367h-5.174V44.519l-14.25-14.25-3.658,3.659,14.25,14.249h-20.152v5.175h20.152l-14.25,14.25,3.658,3.659,14.25-14.249V77.163h5.174V57.011l14.25,14.249,3.658-3.659-14.249-14.25h20.152Z" transform="translate(11304.822 11080.772)" fill="#f6f5f2"/>
    </g>
  </g>
</svg>
