<svg xmlns="http://www.w3.org/2000/svg" width="2460.493" height="558.584" viewBox="0 0 2460.493 558.584">
  <g id="Group_3398" data-name="Group 3398" transform="translate(0 -11613.068)">
    <g id="Group_50" data-name="Group 50" transform="translate(0 10755.777)">
      <path id="Path_24" data-name="Path 24" d="M0,860.19c582.718,4.321,1688.33,78.285,2454.673,530.3H2350.226C1594.737,966.335,551.95,899,0,896.366Z" transform="translate(0 0.728)" fill="none"/>
      <path id="Path_25" data-name="Path 25" d="M0,857.291c308.983,2.822,793.554,26,1294.426,123.641,354.808,69.166,668.562,166.123,932.555,288.177a2623.068,2623.068,0,0,1,233.512,122.114h-13.546C1683.016,942.036,580.884,868.535,0,864.241Z" transform="translate(0 0)" fill="#043b38"/>
      <path id="Path_26" data-name="Path 26" d="M0,895.615v-20.43c565.974,2.725,1635.257,72.435,2409.942,511.541H2224.158C1457.814,994.159,454.688,912.082,0,895.615Z" transform="translate(0 4.496)" fill="#fbc940"/>
      <path id="Path_27" data-name="Path 27" d="M0,1384.671V883.365c476.8,16.808,1528.726,100.59,2332.348,501.306Z" transform="translate(0 6.552)" fill="#043b38"/>
    </g>
    <g id="Group_3234" data-name="Group 3234" transform="translate(674.355 11162.72)">
      <g id="Group_3226" data-name="Group 3226" transform="translate(812.048 958.874) rotate(-50)">
        <g id="Group_3222" data-name="Group 3222" transform="matrix(0.848, 0.53, -0.53, 0.848, 15.257, 6.846)">
          <rect id="Rectangle_12" data-name="Rectangle 12" width="5.654" height="20.31" rx="2.827" transform="translate(35.03 14.263) rotate(62)" fill="#1b9177"/>
          <rect id="Rectangle_13" data-name="Rectangle 13" width="5.654" height="18.22" rx="2.827" transform="translate(29.379 4.185) rotate(45)" fill="#1b9177"/>
          <rect id="Rectangle_14" data-name="Rectangle 14" width="5.654" height="15.079" rx="2.827" transform="translate(14.245 0) rotate(18)" fill="#1b9177"/>
          <rect id="Rectangle_17" data-name="Rectangle 17" width="5.654" height="15.079" rx="2.827" transform="translate(0 2.554) rotate(-14)" fill="#1b9177"/>
        </g>
        <g id="Group_3225" data-name="Group 3225" transform="matrix(0.848, 0.53, -0.53, 0.848, 38.865, 0)">
          <rect id="Rectangle_12-2" data-name="Rectangle 12" width="5.654" height="20.31" rx="2.827" transform="translate(35.03 14.263) rotate(62)" fill="#1b9177"/>
          <rect id="Rectangle_13-2" data-name="Rectangle 13" width="5.654" height="18.22" rx="2.827" transform="translate(29.379 4.185) rotate(45)" fill="#1b9177"/>
          <rect id="Rectangle_14-2" data-name="Rectangle 14" width="5.654" height="15.079" rx="2.827" transform="translate(14.245 0) rotate(18)" fill="#1b9177"/>
          <rect id="Rectangle_17-2" data-name="Rectangle 17" width="5.654" height="15.079" rx="2.827" transform="translate(0 2.554) rotate(-14)" fill="#1b9177"/>
        </g>
      </g>
      <g id="Group_3264" data-name="Group 3264" transform="translate(779.048 994.941) rotate(-50)">
        <g id="Group_3222-2" data-name="Group 3222" transform="matrix(0.848, 0.53, -0.53, 0.848, 15.257, 6.846)">
          <rect id="Rectangle_12-3" data-name="Rectangle 12" width="5.654" height="20.31" rx="2.827" transform="translate(35.03 14.263) rotate(62)" fill="#1b9177"/>
          <rect id="Rectangle_13-3" data-name="Rectangle 13" width="5.654" height="18.22" rx="2.827" transform="translate(29.379 4.185) rotate(45)" fill="#1b9177"/>
          <rect id="Rectangle_14-3" data-name="Rectangle 14" width="5.654" height="15.079" rx="2.827" transform="translate(14.245 0) rotate(18)" fill="#1b9177"/>
          <rect id="Rectangle_17-3" data-name="Rectangle 17" width="5.654" height="15.079" rx="2.827" transform="translate(0 2.554) rotate(-14)" fill="#1b9177"/>
        </g>
        <g id="Group_3225-2" data-name="Group 3225" transform="matrix(0.848, 0.53, -0.53, 0.848, 38.865, 0)">
          <rect id="Rectangle_12-4" data-name="Rectangle 12" width="5.654" height="20.31" rx="2.827" transform="translate(35.03 14.263) rotate(62)" fill="#1b9177"/>
          <rect id="Rectangle_13-4" data-name="Rectangle 13" width="5.654" height="18.22" rx="2.827" transform="translate(29.379 4.185) rotate(45)" fill="#1b9177"/>
          <rect id="Rectangle_14-4" data-name="Rectangle 14" width="5.654" height="15.079" rx="2.827" transform="translate(14.245 0) rotate(18)" fill="#1b9177"/>
          <rect id="Rectangle_17-4" data-name="Rectangle 17" width="5.654" height="15.079" rx="2.827" transform="translate(0 2.554) rotate(-14)" fill="#1b9177"/>
        </g>
      </g>
      <g id="Group_3265" data-name="Group 3265" transform="translate(736.663 994.941) rotate(-50)">
        <g id="Group_3222-3" data-name="Group 3222" transform="matrix(0.848, 0.53, -0.53, 0.848, 15.257, 6.846)">
          <rect id="Rectangle_12-5" data-name="Rectangle 12" width="5.654" height="20.31" rx="2.827" transform="translate(35.03 14.263) rotate(62)" fill="#1b9177"/>
          <rect id="Rectangle_13-5" data-name="Rectangle 13" width="5.654" height="18.22" rx="2.827" transform="translate(29.379 4.185) rotate(45)" fill="#1b9177"/>
          <rect id="Rectangle_14-5" data-name="Rectangle 14" width="5.654" height="15.079" rx="2.827" transform="translate(14.245 0) rotate(18)" fill="#1b9177"/>
          <rect id="Rectangle_17-5" data-name="Rectangle 17" width="5.654" height="15.079" rx="2.827" transform="translate(0 2.554) rotate(-14)" fill="#1b9177"/>
        </g>
        <g id="Group_3225-3" data-name="Group 3225" transform="matrix(0.848, 0.53, -0.53, 0.848, 38.865, 0)">
          <rect id="Rectangle_12-6" data-name="Rectangle 12" width="5.654" height="20.31" rx="2.827" transform="translate(35.03 14.263) rotate(62)" fill="#1b9177"/>
          <rect id="Rectangle_13-6" data-name="Rectangle 13" width="5.654" height="18.22" rx="2.827" transform="translate(29.379 4.185) rotate(45)" fill="#1b9177"/>
          <rect id="Rectangle_14-6" data-name="Rectangle 14" width="5.654" height="15.079" rx="2.827" transform="translate(14.245 0) rotate(18)" fill="#1b9177"/>
          <rect id="Rectangle_17-6" data-name="Rectangle 17" width="5.654" height="15.079" rx="2.827" transform="translate(0 2.554) rotate(-14)" fill="#1b9177"/>
        </g>
      </g>
      <g id="Group_3227" data-name="Group 3227" transform="translate(854.433 958.874) rotate(-50)">
        <g id="Group_3222-4" data-name="Group 3222" transform="matrix(0.848, 0.53, -0.53, 0.848, 15.257, 6.846)">
          <rect id="Rectangle_12-7" data-name="Rectangle 12" width="5.654" height="20.31" rx="2.827" transform="translate(35.03 14.263) rotate(62)" fill="#1b9177"/>
          <rect id="Rectangle_13-7" data-name="Rectangle 13" width="5.654" height="18.22" rx="2.827" transform="translate(29.379 4.185) rotate(45)" fill="#1b9177"/>
          <rect id="Rectangle_14-7" data-name="Rectangle 14" width="5.654" height="15.079" rx="2.827" transform="translate(14.245 0) rotate(18)" fill="#1b9177"/>
          <rect id="Rectangle_17-7" data-name="Rectangle 17" width="5.654" height="15.079" rx="2.827" transform="translate(0 2.554) rotate(-14)" fill="#1b9177"/>
        </g>
        <g id="Group_3225-4" data-name="Group 3225" transform="matrix(0.848, 0.53, -0.53, 0.848, 38.865, 0)">
          <rect id="Rectangle_12-8" data-name="Rectangle 12" width="5.654" height="20.31" rx="2.827" transform="translate(35.03 14.263) rotate(62)" fill="#1b9177"/>
          <rect id="Rectangle_13-8" data-name="Rectangle 13" width="5.654" height="18.22" rx="2.827" transform="translate(29.379 4.185) rotate(45)" fill="#1b9177"/>
          <rect id="Rectangle_14-8" data-name="Rectangle 14" width="5.654" height="15.079" rx="2.827" transform="translate(14.245 0) rotate(18)" fill="#1b9177"/>
          <rect id="Rectangle_17-8" data-name="Rectangle 17" width="5.654" height="15.079" rx="2.827" transform="translate(0 2.554) rotate(-14)" fill="#1b9177"/>
        </g>
      </g>
      <g id="Group_3228" data-name="Group 3228" transform="translate(881.835 961.74) rotate(-50)">
        <g id="Group_3222-5" data-name="Group 3222" transform="matrix(0.848, 0.53, -0.53, 0.848, 15.257, 25.464)">
          <rect id="Rectangle_12-9" data-name="Rectangle 12" width="5.654" height="20.31" rx="2.827" transform="translate(35.03 14.263) rotate(62)" fill="#1b9177"/>
          <rect id="Rectangle_13-9" data-name="Rectangle 13" width="5.654" height="18.22" rx="2.827" transform="translate(29.379 4.185) rotate(45)" fill="#1b9177"/>
          <rect id="Rectangle_14-9" data-name="Rectangle 14" width="5.654" height="15.079" rx="2.827" transform="translate(14.245 0) rotate(18)" fill="#1b9177"/>
          <rect id="Rectangle_17-9" data-name="Rectangle 17" width="5.654" height="15.079" rx="2.827" transform="translate(0 2.554) rotate(-14)" fill="#1b9177"/>
        </g>
        <g id="Group_3225-5" data-name="Group 3225" transform="matrix(0.848, 0.53, -0.53, 0.848, 38.865, 18.617)">
          <rect id="Rectangle_12-10" data-name="Rectangle 12" width="5.654" height="20.31" rx="2.827" transform="translate(35.03 14.263) rotate(62)" fill="#1b9177"/>
          <rect id="Rectangle_13-10" data-name="Rectangle 13" width="5.654" height="18.22" rx="2.827" transform="translate(29.379 4.185) rotate(45)" fill="#1b9177"/>
          <rect id="Rectangle_14-10" data-name="Rectangle 14" width="5.654" height="15.079" rx="2.827" transform="translate(14.245 0) rotate(18)" fill="#1b9177"/>
          <rect id="Rectangle_17-10" data-name="Rectangle 17" width="5.654" height="15.079" rx="2.827" transform="translate(0 2.554) rotate(-14)" fill="#1b9177"/>
        </g>
        <g id="Group_3238" data-name="Group 3238" transform="matrix(0.848, 0.53, -0.53, 0.848, 57.502, 0)">
          <rect id="Rectangle_12-11" data-name="Rectangle 12" width="5.654" height="20.31" rx="2.827" transform="translate(35.03 14.263) rotate(62)" fill="#1b9177"/>
          <rect id="Rectangle_13-11" data-name="Rectangle 13" width="5.654" height="18.22" rx="2.827" transform="translate(29.379 4.185) rotate(45)" fill="#1b9177"/>
          <rect id="Rectangle_14-11" data-name="Rectangle 14" width="5.654" height="15.079" rx="2.827" transform="translate(14.245 0) rotate(18)" fill="#1b9177"/>
          <rect id="Rectangle_17-11" data-name="Rectangle 17" width="5.654" height="15.079" rx="2.827" transform="translate(0 2.554) rotate(-14)" fill="#1b9177"/>
        </g>
      </g>
      <g id="Group_3235" data-name="Group 3235" transform="translate(838.245 984.382) rotate(-50)">
        <g id="Group_3225-6" data-name="Group 3225" transform="matrix(0.848, 0.53, -0.53, 0.848, 15.257, 0)">
          <rect id="Rectangle_12-12" data-name="Rectangle 12" width="5.654" height="20.31" rx="2.827" transform="translate(35.03 14.263) rotate(62)" fill="#1b9177"/>
          <rect id="Rectangle_13-12" data-name="Rectangle 13" width="5.654" height="18.22" rx="2.827" transform="translate(29.379 4.185) rotate(45)" fill="#1b9177"/>
          <rect id="Rectangle_14-12" data-name="Rectangle 14" width="5.654" height="15.079" rx="2.827" transform="translate(14.245 0) rotate(18)" fill="#1b9177"/>
          <rect id="Rectangle_17-12" data-name="Rectangle 17" width="5.654" height="15.079" rx="2.827" transform="translate(0 2.554) rotate(-14)" fill="#1b9177"/>
        </g>
      </g>
      <g id="Group_3229" data-name="Group 3229" transform="translate(929.957 970.851) rotate(-50)">
        <g id="Group_3222-6" data-name="Group 3222" transform="matrix(0.848, 0.53, -0.53, 0.848, 35.361, 6.846)">
          <rect id="Rectangle_12-13" data-name="Rectangle 12" width="5.654" height="20.31" rx="2.827" transform="translate(35.03 14.263) rotate(62)" fill="#1b9177"/>
          <rect id="Rectangle_13-13" data-name="Rectangle 13" width="5.654" height="18.22" rx="2.827" transform="translate(29.379 4.185) rotate(45)" fill="#1b9177"/>
          <rect id="Rectangle_14-13" data-name="Rectangle 14" width="5.654" height="15.079" rx="2.827" transform="translate(14.245 0) rotate(18)" fill="#1b9177"/>
          <rect id="Rectangle_17-13" data-name="Rectangle 17" width="5.654" height="15.079" rx="2.827" transform="translate(0 2.554) rotate(-14)" fill="#1b9177"/>
        </g>
        <g id="Group_3236" data-name="Group 3236" transform="matrix(0.848, 0.53, -0.53, 0.848, 15.257, 23.715)">
          <rect id="Rectangle_12-14" data-name="Rectangle 12" width="5.654" height="20.31" rx="2.827" transform="translate(35.03 14.263) rotate(62)" fill="#1b9177"/>
          <rect id="Rectangle_13-14" data-name="Rectangle 13" width="5.654" height="18.22" rx="2.827" transform="translate(29.379 4.185) rotate(45)" fill="#1b9177"/>
          <rect id="Rectangle_14-14" data-name="Rectangle 14" width="5.654" height="15.079" rx="2.827" transform="translate(14.245 0) rotate(18)" fill="#1b9177"/>
          <rect id="Rectangle_17-14" data-name="Rectangle 17" width="5.654" height="15.079" rx="2.827" transform="translate(0 2.554) rotate(-14)" fill="#1b9177"/>
        </g>
        <g id="Group_3225-7" data-name="Group 3225" transform="matrix(0.848, 0.53, -0.53, 0.848, 58.969, 0)">
          <rect id="Rectangle_12-15" data-name="Rectangle 12" width="5.654" height="20.31" rx="2.827" transform="translate(35.03 14.263) rotate(62)" fill="#1b9177"/>
          <rect id="Rectangle_13-15" data-name="Rectangle 13" width="5.654" height="18.22" rx="2.827" transform="translate(29.379 4.185) rotate(45)" fill="#1b9177"/>
          <rect id="Rectangle_14-15" data-name="Rectangle 14" width="5.654" height="15.079" rx="2.827" transform="translate(14.245 0) rotate(18)" fill="#1b9177"/>
          <rect id="Rectangle_17-15" data-name="Rectangle 17" width="5.654" height="15.079" rx="2.827" transform="translate(0 2.554) rotate(-14)" fill="#1b9177"/>
        </g>
      </g>
      <g id="Group_3230" data-name="Group 3230" transform="translate(970.169 964.73) rotate(-50)">
        <g id="Group_3222-7" data-name="Group 3222" transform="matrix(0.848, 0.53, -0.53, 0.848, 15.257, 20.812)">
          <rect id="Rectangle_12-16" data-name="Rectangle 12" width="5.654" height="20.31" rx="2.827" transform="translate(35.03 14.263) rotate(62)" fill="#1b9177"/>
          <rect id="Rectangle_13-16" data-name="Rectangle 13" width="5.654" height="18.22" rx="2.827" transform="translate(29.379 4.185) rotate(45)" fill="#1b9177"/>
          <rect id="Rectangle_14-16" data-name="Rectangle 14" width="5.654" height="15.079" rx="2.827" transform="translate(14.245 0) rotate(18)" fill="#1b9177"/>
          <rect id="Rectangle_17-16" data-name="Rectangle 17" width="5.654" height="15.079" rx="2.827" transform="translate(0 2.554) rotate(-14)" fill="#1b9177"/>
        </g>
        <g id="Group_3225-8" data-name="Group 3225" transform="matrix(0.848, 0.53, -0.53, 0.848, 38.865, 13.966)">
          <rect id="Rectangle_12-17" data-name="Rectangle 12" width="5.654" height="20.31" rx="2.827" transform="translate(35.03 14.263) rotate(62)" fill="#1b9177"/>
          <rect id="Rectangle_13-17" data-name="Rectangle 13" width="5.654" height="18.22" rx="2.827" transform="translate(29.379 4.185) rotate(45)" fill="#1b9177"/>
          <rect id="Rectangle_14-17" data-name="Rectangle 14" width="5.654" height="15.079" rx="2.827" transform="translate(14.245 0) rotate(18)" fill="#1b9177"/>
          <rect id="Rectangle_17-17" data-name="Rectangle 17" width="5.654" height="15.079" rx="2.827" transform="translate(0 2.554) rotate(-14)" fill="#1b9177"/>
        </g>
        <g id="Group_3239" data-name="Group 3239" transform="matrix(0.848, 0.53, -0.53, 0.848, 64.384, 0)">
          <rect id="Rectangle_12-18" data-name="Rectangle 12" width="5.654" height="20.31" rx="2.827" transform="translate(35.03 14.263) rotate(62)" fill="#1b9177"/>
          <rect id="Rectangle_13-18" data-name="Rectangle 13" width="5.654" height="18.22" rx="2.827" transform="translate(29.379 4.185) rotate(45)" fill="#1b9177"/>
          <rect id="Rectangle_14-18" data-name="Rectangle 14" width="5.654" height="15.079" rx="2.827" transform="translate(14.245 0) rotate(18)" fill="#1b9177"/>
          <rect id="Rectangle_17-18" data-name="Rectangle 17" width="5.654" height="15.079" rx="2.827" transform="translate(0 2.554) rotate(-14)" fill="#1b9177"/>
        </g>
      </g>
      <g id="Group_3231" data-name="Group 3231" transform="translate(1005.887 975.29) rotate(-50)">
        <g id="Group_3222-8" data-name="Group 3222" transform="matrix(0.848, 0.53, -0.53, 0.848, 36.687, 6.846)">
          <rect id="Rectangle_12-19" data-name="Rectangle 12" width="5.654" height="20.31" rx="2.827" transform="translate(35.03 14.263) rotate(62)" fill="#1b9177"/>
          <rect id="Rectangle_13-19" data-name="Rectangle 13" width="5.654" height="18.22" rx="2.827" transform="translate(29.379 4.185) rotate(45)" fill="#1b9177"/>
          <rect id="Rectangle_14-19" data-name="Rectangle 14" width="5.654" height="15.079" rx="2.827" transform="translate(14.245 0) rotate(18)" fill="#1b9177"/>
          <rect id="Rectangle_17-19" data-name="Rectangle 17" width="5.654" height="15.079" rx="2.827" transform="translate(0 2.554) rotate(-14)" fill="#1b9177"/>
        </g>
        <g id="Group_3237" data-name="Group 3237" transform="matrix(0.848, 0.53, -0.53, 0.848, 15.257, 20.36)">
          <rect id="Rectangle_12-20" data-name="Rectangle 12" width="5.654" height="20.31" rx="2.827" transform="translate(35.03 14.263) rotate(62)" fill="#1b9177"/>
          <rect id="Rectangle_13-20" data-name="Rectangle 13" width="5.654" height="18.22" rx="2.827" transform="translate(29.379 4.185) rotate(45)" fill="#1b9177"/>
          <rect id="Rectangle_14-20" data-name="Rectangle 14" width="5.654" height="15.079" rx="2.827" transform="translate(14.245 0) rotate(18)" fill="#1b9177"/>
          <rect id="Rectangle_17-20" data-name="Rectangle 17" width="5.654" height="15.079" rx="2.827" transform="translate(0 2.554) rotate(-14)" fill="#1b9177"/>
        </g>
        <g id="Group_3225-9" data-name="Group 3225" transform="matrix(0.848, 0.53, -0.53, 0.848, 60.295, 0)">
          <rect id="Rectangle_12-21" data-name="Rectangle 12" width="5.654" height="20.31" rx="2.827" transform="translate(35.03 14.263) rotate(62)" fill="#1b9177"/>
          <rect id="Rectangle_13-21" data-name="Rectangle 13" width="5.654" height="18.22" rx="2.827" transform="translate(29.379 4.185) rotate(45)" fill="#1b9177"/>
          <rect id="Rectangle_14-21" data-name="Rectangle 14" width="5.654" height="15.079" rx="2.827" transform="translate(14.245 0) rotate(18)" fill="#1b9177"/>
          <rect id="Rectangle_17-21" data-name="Rectangle 17" width="5.654" height="15.079" rx="2.827" transform="translate(0 2.554) rotate(-14)" fill="#1b9177"/>
        </g>
      </g>
      <g id="Group_3232" data-name="Group 3232" transform="translate(1050.471 978.271) rotate(-50)">
        <g id="Group_3222-9" data-name="Group 3222" transform="matrix(0.848, 0.53, -0.53, 0.848, 15.257, 6.846)">
          <rect id="Rectangle_12-22" data-name="Rectangle 12" width="5.654" height="20.31" rx="2.827" transform="translate(35.03 14.263) rotate(62)" fill="#1b9177"/>
          <rect id="Rectangle_13-22" data-name="Rectangle 13" width="5.654" height="18.22" rx="2.827" transform="translate(29.379 4.185) rotate(45)" fill="#1b9177"/>
          <rect id="Rectangle_14-22" data-name="Rectangle 14" width="5.654" height="15.079" rx="2.827" transform="translate(14.245 0) rotate(18)" fill="#1b9177"/>
          <rect id="Rectangle_17-22" data-name="Rectangle 17" width="5.654" height="15.079" rx="2.827" transform="translate(0 2.554) rotate(-14)" fill="#1b9177"/>
        </g>
        <g id="Group_3225-10" data-name="Group 3225" transform="matrix(0.848, 0.53, -0.53, 0.848, 38.865, 0)">
          <rect id="Rectangle_12-23" data-name="Rectangle 12" width="5.654" height="20.31" rx="2.827" transform="translate(35.03 14.263) rotate(62)" fill="#1b9177"/>
          <rect id="Rectangle_13-23" data-name="Rectangle 13" width="5.654" height="18.22" rx="2.827" transform="translate(29.379 4.185) rotate(45)" fill="#1b9177"/>
          <rect id="Rectangle_14-23" data-name="Rectangle 14" width="5.654" height="15.079" rx="2.827" transform="translate(14.245 0) rotate(18)" fill="#1b9177"/>
          <rect id="Rectangle_17-23" data-name="Rectangle 17" width="5.654" height="15.079" rx="2.827" transform="translate(0 2.554) rotate(-14)" fill="#1b9177"/>
        </g>
      </g>
    </g>
    <g id="Group_3263" data-name="Group 3263" transform="translate(946.355 11162.72)">
      <g id="Group_3226-2" data-name="Group 3226" transform="translate(812.048 958.874) rotate(-50)">
        <g id="Group_3222-10" data-name="Group 3222" transform="matrix(0.848, 0.53, -0.53, 0.848, 15.257, 6.846)">
          <rect id="Rectangle_12-24" data-name="Rectangle 12" width="5.654" height="20.31" rx="2.827" transform="translate(35.03 14.263) rotate(62)" fill="#1b9177"/>
          <rect id="Rectangle_13-24" data-name="Rectangle 13" width="5.654" height="18.22" rx="2.827" transform="translate(29.379 4.185) rotate(45)" fill="#1b9177"/>
          <rect id="Rectangle_14-24" data-name="Rectangle 14" width="5.654" height="15.079" rx="2.827" transform="translate(14.245 0) rotate(18)" fill="#1b9177"/>
          <rect id="Rectangle_17-24" data-name="Rectangle 17" width="5.654" height="15.079" rx="2.827" transform="translate(0 2.554) rotate(-14)" fill="#1b9177"/>
        </g>
        <g id="Group_3225-11" data-name="Group 3225" transform="matrix(0.848, 0.53, -0.53, 0.848, 38.865, 0)">
          <rect id="Rectangle_12-25" data-name="Rectangle 12" width="5.654" height="20.31" rx="2.827" transform="translate(35.03 14.263) rotate(62)" fill="#1b9177"/>
          <rect id="Rectangle_13-25" data-name="Rectangle 13" width="5.654" height="18.22" rx="2.827" transform="translate(29.379 4.185) rotate(45)" fill="#1b9177"/>
          <rect id="Rectangle_14-25" data-name="Rectangle 14" width="5.654" height="15.079" rx="2.827" transform="translate(14.245 0) rotate(18)" fill="#1b9177"/>
          <rect id="Rectangle_17-25" data-name="Rectangle 17" width="5.654" height="15.079" rx="2.827" transform="translate(0 2.554) rotate(-14)" fill="#1b9177"/>
        </g>
      </g>
      <g id="Group_3227-2" data-name="Group 3227" transform="translate(854.433 958.874) rotate(-50)">
        <g id="Group_3222-11" data-name="Group 3222" transform="matrix(0.848, 0.53, -0.53, 0.848, 15.257, 6.846)">
          <rect id="Rectangle_12-26" data-name="Rectangle 12" width="5.654" height="20.31" rx="2.827" transform="translate(35.03 14.263) rotate(62)" fill="#1b9177"/>
          <rect id="Rectangle_13-26" data-name="Rectangle 13" width="5.654" height="18.22" rx="2.827" transform="translate(29.379 4.185) rotate(45)" fill="#1b9177"/>
          <rect id="Rectangle_14-26" data-name="Rectangle 14" width="5.654" height="15.079" rx="2.827" transform="translate(14.245 0) rotate(18)" fill="#1b9177"/>
          <rect id="Rectangle_17-26" data-name="Rectangle 17" width="5.654" height="15.079" rx="2.827" transform="translate(0 2.554) rotate(-14)" fill="#1b9177"/>
        </g>
        <g id="Group_3225-12" data-name="Group 3225" transform="matrix(0.848, 0.53, -0.53, 0.848, 38.865, 0)">
          <rect id="Rectangle_12-27" data-name="Rectangle 12" width="5.654" height="20.31" rx="2.827" transform="translate(35.03 14.263) rotate(62)" fill="#1b9177"/>
          <rect id="Rectangle_13-27" data-name="Rectangle 13" width="5.654" height="18.22" rx="2.827" transform="translate(29.379 4.185) rotate(45)" fill="#1b9177"/>
          <rect id="Rectangle_14-27" data-name="Rectangle 14" width="5.654" height="15.079" rx="2.827" transform="translate(14.245 0) rotate(18)" fill="#1b9177"/>
          <rect id="Rectangle_17-27" data-name="Rectangle 17" width="5.654" height="15.079" rx="2.827" transform="translate(0 2.554) rotate(-14)" fill="#1b9177"/>
        </g>
      </g>
      <g id="Group_3228-2" data-name="Group 3228" transform="translate(881.835 961.74) rotate(-50)">
        <g id="Group_3222-12" data-name="Group 3222" transform="matrix(0.848, 0.53, -0.53, 0.848, 15.257, 25.464)">
          <rect id="Rectangle_12-28" data-name="Rectangle 12" width="5.654" height="20.31" rx="2.827" transform="translate(35.03 14.263) rotate(62)" fill="#1b9177"/>
          <rect id="Rectangle_13-28" data-name="Rectangle 13" width="5.654" height="18.22" rx="2.827" transform="translate(29.379 4.185) rotate(45)" fill="#1b9177"/>
          <rect id="Rectangle_14-28" data-name="Rectangle 14" width="5.654" height="15.079" rx="2.827" transform="translate(14.245 0) rotate(18)" fill="#1b9177"/>
          <rect id="Rectangle_17-28" data-name="Rectangle 17" width="5.654" height="15.079" rx="2.827" transform="translate(0 2.554) rotate(-14)" fill="#1b9177"/>
        </g>
        <g id="Group_3225-13" data-name="Group 3225" transform="matrix(0.848, 0.53, -0.53, 0.848, 38.865, 18.617)">
          <rect id="Rectangle_12-29" data-name="Rectangle 12" width="5.654" height="20.31" rx="2.827" transform="translate(35.03 14.263) rotate(62)" fill="#1b9177"/>
          <rect id="Rectangle_13-29" data-name="Rectangle 13" width="5.654" height="18.22" rx="2.827" transform="translate(29.379 4.185) rotate(45)" fill="#1b9177"/>
          <rect id="Rectangle_14-29" data-name="Rectangle 14" width="5.654" height="15.079" rx="2.827" transform="translate(14.245 0) rotate(18)" fill="#1b9177"/>
          <rect id="Rectangle_17-29" data-name="Rectangle 17" width="5.654" height="15.079" rx="2.827" transform="translate(0 2.554) rotate(-14)" fill="#1b9177"/>
        </g>
        <g id="Group_3238-2" data-name="Group 3238" transform="matrix(0.848, 0.53, -0.53, 0.848, 57.502, 0)">
          <rect id="Rectangle_12-30" data-name="Rectangle 12" width="5.654" height="20.31" rx="2.827" transform="translate(35.03 14.263) rotate(62)" fill="#1b9177"/>
          <rect id="Rectangle_13-30" data-name="Rectangle 13" width="5.654" height="18.22" rx="2.827" transform="translate(29.379 4.185) rotate(45)" fill="#1b9177"/>
          <rect id="Rectangle_14-30" data-name="Rectangle 14" width="5.654" height="15.079" rx="2.827" transform="translate(14.245 0) rotate(18)" fill="#1b9177"/>
          <rect id="Rectangle_17-30" data-name="Rectangle 17" width="5.654" height="15.079" rx="2.827" transform="translate(0 2.554) rotate(-14)" fill="#1b9177"/>
        </g>
      </g>
      <g id="Group_3235-2" data-name="Group 3235" transform="translate(838.245 984.382) rotate(-50)">
        <g id="Group_3225-14" data-name="Group 3225" transform="matrix(0.848, 0.53, -0.53, 0.848, 15.257, 0)">
          <rect id="Rectangle_12-31" data-name="Rectangle 12" width="5.654" height="20.31" rx="2.827" transform="translate(35.03 14.263) rotate(62)" fill="#1b9177"/>
          <rect id="Rectangle_13-31" data-name="Rectangle 13" width="5.654" height="18.22" rx="2.827" transform="translate(29.379 4.185) rotate(45)" fill="#1b9177"/>
          <rect id="Rectangle_14-31" data-name="Rectangle 14" width="5.654" height="15.079" rx="2.827" transform="translate(14.245 0) rotate(18)" fill="#1b9177"/>
          <rect id="Rectangle_17-31" data-name="Rectangle 17" width="5.654" height="15.079" rx="2.827" transform="translate(0 2.554) rotate(-14)" fill="#1b9177"/>
        </g>
      </g>
      <g id="Group_3229-2" data-name="Group 3229" transform="translate(929.957 970.851) rotate(-50)">
        <g id="Group_3222-13" data-name="Group 3222" transform="matrix(0.848, 0.53, -0.53, 0.848, 35.361, 6.846)">
          <rect id="Rectangle_12-32" data-name="Rectangle 12" width="5.654" height="20.31" rx="2.827" transform="translate(35.03 14.263) rotate(62)" fill="#1b9177"/>
          <rect id="Rectangle_13-32" data-name="Rectangle 13" width="5.654" height="18.22" rx="2.827" transform="translate(29.379 4.185) rotate(45)" fill="#1b9177"/>
          <rect id="Rectangle_14-32" data-name="Rectangle 14" width="5.654" height="15.079" rx="2.827" transform="translate(14.245 0) rotate(18)" fill="#1b9177"/>
          <rect id="Rectangle_17-32" data-name="Rectangle 17" width="5.654" height="15.079" rx="2.827" transform="translate(0 2.554) rotate(-14)" fill="#1b9177"/>
        </g>
        <g id="Group_3236-2" data-name="Group 3236" transform="matrix(0.848, 0.53, -0.53, 0.848, 15.257, 23.715)">
          <rect id="Rectangle_12-33" data-name="Rectangle 12" width="5.654" height="20.31" rx="2.827" transform="translate(35.03 14.263) rotate(62)" fill="#1b9177"/>
          <rect id="Rectangle_13-33" data-name="Rectangle 13" width="5.654" height="18.22" rx="2.827" transform="translate(29.379 4.185) rotate(45)" fill="#1b9177"/>
          <rect id="Rectangle_14-33" data-name="Rectangle 14" width="5.654" height="15.079" rx="2.827" transform="translate(14.245 0) rotate(18)" fill="#1b9177"/>
          <rect id="Rectangle_17-33" data-name="Rectangle 17" width="5.654" height="15.079" rx="2.827" transform="translate(0 2.554) rotate(-14)" fill="#1b9177"/>
        </g>
        <g id="Group_3225-15" data-name="Group 3225" transform="matrix(0.848, 0.53, -0.53, 0.848, 58.969, 0)">
          <rect id="Rectangle_12-34" data-name="Rectangle 12" width="5.654" height="20.31" rx="2.827" transform="translate(35.03 14.263) rotate(62)" fill="#1b9177"/>
          <rect id="Rectangle_13-34" data-name="Rectangle 13" width="5.654" height="18.22" rx="2.827" transform="translate(29.379 4.185) rotate(45)" fill="#1b9177"/>
          <rect id="Rectangle_14-34" data-name="Rectangle 14" width="5.654" height="15.079" rx="2.827" transform="translate(14.245 0) rotate(18)" fill="#1b9177"/>
          <rect id="Rectangle_17-34" data-name="Rectangle 17" width="5.654" height="15.079" rx="2.827" transform="translate(0 2.554) rotate(-14)" fill="#1b9177"/>
        </g>
      </g>
      <g id="Group_3230-2" data-name="Group 3230" transform="translate(970.169 964.73) rotate(-50)">
        <g id="Group_3222-14" data-name="Group 3222" transform="matrix(0.848, 0.53, -0.53, 0.848, 15.257, 20.812)">
          <rect id="Rectangle_12-35" data-name="Rectangle 12" width="5.654" height="20.31" rx="2.827" transform="translate(35.03 14.263) rotate(62)" fill="#1b9177"/>
          <rect id="Rectangle_13-35" data-name="Rectangle 13" width="5.654" height="18.22" rx="2.827" transform="translate(29.379 4.185) rotate(45)" fill="#1b9177"/>
          <rect id="Rectangle_14-35" data-name="Rectangle 14" width="5.654" height="15.079" rx="2.827" transform="translate(14.245 0) rotate(18)" fill="#1b9177"/>
          <rect id="Rectangle_17-35" data-name="Rectangle 17" width="5.654" height="15.079" rx="2.827" transform="translate(0 2.554) rotate(-14)" fill="#1b9177"/>
        </g>
        <g id="Group_3225-16" data-name="Group 3225" transform="matrix(0.848, 0.53, -0.53, 0.848, 38.865, 13.966)">
          <rect id="Rectangle_12-36" data-name="Rectangle 12" width="5.654" height="20.31" rx="2.827" transform="translate(35.03 14.263) rotate(62)" fill="#1b9177"/>
          <rect id="Rectangle_13-36" data-name="Rectangle 13" width="5.654" height="18.22" rx="2.827" transform="translate(29.379 4.185) rotate(45)" fill="#1b9177"/>
          <rect id="Rectangle_14-36" data-name="Rectangle 14" width="5.654" height="15.079" rx="2.827" transform="translate(14.245 0) rotate(18)" fill="#1b9177"/>
          <rect id="Rectangle_17-36" data-name="Rectangle 17" width="5.654" height="15.079" rx="2.827" transform="translate(0 2.554) rotate(-14)" fill="#1b9177"/>
        </g>
        <g id="Group_3239-2" data-name="Group 3239" transform="matrix(0.848, 0.53, -0.53, 0.848, 64.384, 0)">
          <rect id="Rectangle_12-37" data-name="Rectangle 12" width="5.654" height="20.31" rx="2.827" transform="translate(35.03 14.263) rotate(62)" fill="#1b9177"/>
          <rect id="Rectangle_13-37" data-name="Rectangle 13" width="5.654" height="18.22" rx="2.827" transform="translate(29.379 4.185) rotate(45)" fill="#1b9177"/>
          <rect id="Rectangle_14-37" data-name="Rectangle 14" width="5.654" height="15.079" rx="2.827" transform="translate(14.245 0) rotate(18)" fill="#1b9177"/>
          <rect id="Rectangle_17-37" data-name="Rectangle 17" width="5.654" height="15.079" rx="2.827" transform="translate(0 2.554) rotate(-14)" fill="#1b9177"/>
        </g>
      </g>
      <g id="Group_3231-2" data-name="Group 3231" transform="translate(1005.887 975.29) rotate(-50)">
        <g id="Group_3222-15" data-name="Group 3222" transform="matrix(0.848, 0.53, -0.53, 0.848, 36.687, 6.846)">
          <rect id="Rectangle_12-38" data-name="Rectangle 12" width="5.654" height="20.31" rx="2.827" transform="translate(35.03 14.263) rotate(62)" fill="#1b9177"/>
          <rect id="Rectangle_13-38" data-name="Rectangle 13" width="5.654" height="18.22" rx="2.827" transform="translate(29.379 4.185) rotate(45)" fill="#1b9177"/>
          <rect id="Rectangle_14-38" data-name="Rectangle 14" width="5.654" height="15.079" rx="2.827" transform="translate(14.245 0) rotate(18)" fill="#1b9177"/>
          <rect id="Rectangle_17-38" data-name="Rectangle 17" width="5.654" height="15.079" rx="2.827" transform="translate(0 2.554) rotate(-14)" fill="#1b9177"/>
        </g>
        <g id="Group_3237-2" data-name="Group 3237" transform="matrix(0.848, 0.53, -0.53, 0.848, 15.257, 20.36)">
          <rect id="Rectangle_12-39" data-name="Rectangle 12" width="5.654" height="20.31" rx="2.827" transform="translate(35.03 14.263) rotate(62)" fill="#1b9177"/>
          <rect id="Rectangle_13-39" data-name="Rectangle 13" width="5.654" height="18.22" rx="2.827" transform="translate(29.379 4.185) rotate(45)" fill="#1b9177"/>
          <rect id="Rectangle_14-39" data-name="Rectangle 14" width="5.654" height="15.079" rx="2.827" transform="translate(14.245 0) rotate(18)" fill="#1b9177"/>
          <rect id="Rectangle_17-39" data-name="Rectangle 17" width="5.654" height="15.079" rx="2.827" transform="translate(0 2.554) rotate(-14)" fill="#1b9177"/>
        </g>
        <g id="Group_3225-17" data-name="Group 3225" transform="matrix(0.848, 0.53, -0.53, 0.848, 60.295, 0)">
          <rect id="Rectangle_12-40" data-name="Rectangle 12" width="5.654" height="20.31" rx="2.827" transform="translate(35.03 14.263) rotate(62)" fill="#1b9177"/>
          <rect id="Rectangle_13-40" data-name="Rectangle 13" width="5.654" height="18.22" rx="2.827" transform="translate(29.379 4.185) rotate(45)" fill="#1b9177"/>
          <rect id="Rectangle_14-40" data-name="Rectangle 14" width="5.654" height="15.079" rx="2.827" transform="translate(14.245 0) rotate(18)" fill="#1b9177"/>
          <rect id="Rectangle_17-40" data-name="Rectangle 17" width="5.654" height="15.079" rx="2.827" transform="translate(0 2.554) rotate(-14)" fill="#1b9177"/>
        </g>
      </g>
      <g id="Group_3232-2" data-name="Group 3232" transform="translate(1050.471 978.271) rotate(-50)">
        <g id="Group_3222-16" data-name="Group 3222" transform="matrix(0.848, 0.53, -0.53, 0.848, 15.257, 6.846)">
          <rect id="Rectangle_12-41" data-name="Rectangle 12" width="5.654" height="20.31" rx="2.827" transform="translate(35.03 14.263) rotate(62)" fill="#1b9177"/>
          <rect id="Rectangle_13-41" data-name="Rectangle 13" width="5.654" height="18.22" rx="2.827" transform="translate(29.379 4.185) rotate(45)" fill="#1b9177"/>
          <rect id="Rectangle_14-41" data-name="Rectangle 14" width="5.654" height="15.079" rx="2.827" transform="translate(14.245 0) rotate(18)" fill="#1b9177"/>
          <rect id="Rectangle_17-41" data-name="Rectangle 17" width="5.654" height="15.079" rx="2.827" transform="translate(0 2.554) rotate(-14)" fill="#1b9177"/>
        </g>
        <g id="Group_3225-18" data-name="Group 3225" transform="matrix(0.848, 0.53, -0.53, 0.848, 38.865, 0)">
          <rect id="Rectangle_12-42" data-name="Rectangle 12" width="5.654" height="20.31" rx="2.827" transform="translate(35.03 14.263) rotate(62)" fill="#1b9177"/>
          <rect id="Rectangle_13-42" data-name="Rectangle 13" width="5.654" height="18.22" rx="2.827" transform="translate(29.379 4.185) rotate(45)" fill="#1b9177"/>
          <rect id="Rectangle_14-42" data-name="Rectangle 14" width="5.654" height="15.079" rx="2.827" transform="translate(14.245 0) rotate(18)" fill="#1b9177"/>
          <rect id="Rectangle_17-42" data-name="Rectangle 17" width="5.654" height="15.079" rx="2.827" transform="translate(0 2.554) rotate(-14)" fill="#1b9177"/>
        </g>
      </g>
    </g>
  </g>
</svg>
