<svg xmlns="http://www.w3.org/2000/svg" width="848.433" height="597.861" viewBox="0 0 848.433 597.861">
  <path id="Path_2" data-name="Path 2" d="M3880.989,353.271s-106.312,8.49-158.134,61.434-21.67,106.188-21.67,106.188-135.994,13.88-223.644,91.522-114.584,255.462-114.584,255.462-102.232-23.586-184.089-5.687-146.312,79.457-146.312,79.457l4.743,9.485s62.4-61.553,145.788-78.641S3369.624,883.3,3369.624,883.3s2.583-.662,2.839-1.987c3.509-18.187,26.439-187.8,114.874-261.828,93.384-78.176,219.721-92.11,219.721-92.11l2.345-2.66s-21.634-54.174,24.679-105.478c19-21.045,46.771-32.573,71.928-41.1a354.252,354.252,0,0,1,74.979-16.446Z" transform="translate(-3032.556 -353.271)" fill="#eaac01"/>
</svg>
