<svg xmlns="http://www.w3.org/2000/svg" width="102.756" height="129.484" viewBox="0 0 102.756 129.484">
  <g id="Group_3457" data-name="Group 3457" transform="translate(-198.622 -292.962)">
    <g id="Group_3438" data-name="Group 3438">
      <path id="Path_3283" data-name="Path 3283" d="M206.285,323.232l11.955,94.412s.613,4.291,4.6,4.6,43.527,0,43.527,0,5.824,1.839,7.051-5.517,12.874-95.639,12.874-95.639H205.365Z" fill="#8c5e35"/>
      <g id="Group_3435" data-name="Group 3435">
        <path id="Path_3284" data-name="Path 3284" d="M262.38,313.73a52.148,52.148,0,0,0,18.016-2.88c-.336-1.055-2.836-8.848-3.956-10.508a23.169,23.169,0,0,1-10.994,3.579H226.823a55.447,55.447,0,0,1-14.257-1.547l-.04.014-3.192,8.889s-.15.009-.407.029C228.842,316.414,246.224,313.73,262.38,313.73Z" fill="#0c0409"/>
        <path id="Path_3285" data-name="Path 3285" d="M226.823,317.715c-14.343-.338-23.1-1.79-28.09-3.027a1.568,1.568,0,0,0-.111.574c0,6.131,1.716,9.5,1.716,9.5l4.353.306h84.45s1.347-9.1,1.705-11.413C275.368,317.389,246.843,318.186,226.823,317.715Z" fill="#0c0409"/>
        <path id="Path_3286" data-name="Path 3286" d="M265.446,303.921a23.169,23.169,0,0,0,10.994-3.579c-.023-.034-.046-.071-.068-.1-1.16-1.531-43.476-5.512-63.806,2.132a55.447,55.447,0,0,0,14.257,1.547Z" fill="#40281a"/>
        <path id="Path_3287" data-name="Path 3287" d="M261.767,301.162s8.89-9.809,10.422-7.97,1.186,8.376,1.186,8.376Z" fill="#40281a"/>
        <path id="Path_3288" data-name="Path 3288" d="M290.846,313.658c.013-.087.026-.168.036-.235.29-1.839-10.447-2.452-10.447-2.452l-.039-.121a52.148,52.148,0,0,1-18.016,2.88c-16.156,0-33.538,2.684-53.453-2.424-1.816.138-9.208.854-10.194,3.382,4.986,1.237,13.747,2.689,28.09,3.027C246.843,318.186,275.368,317.389,290.846,313.658Z" fill="#40281a"/>
      </g>
      <g id="Group_3437" data-name="Group 3437">
        <path id="Path_3289" data-name="Path 3289" d="M282.3,352.046s9.809-1.839,14.714,3.372,4.9,11.648,3.678,19.312-11.342,11.341-24.829,8.889v-7.357s11.035,2.146,13.794-2.145,3.985-12.875-9.809-13.794Z" fill="#d9a77a"/>
        <path id="Path_3290" data-name="Path 3290" d="M208.124,348.674a235.6,235.6,0,0,0,38.317,3.372,205.334,205.334,0,0,0,37.7-3.678l-5.517,42.608a176.5,176.5,0,0,1-31.267,3.985c-15.326.306-34.025-3.679-34.025-3.679Z" fill="#e8cdb3"/>
        <g id="Group_3436" data-name="Group 3436">
          <path id="Path_3291" data-name="Path 3291" d="M244.6,372.584c-1.729-2.809-.869-9.115-.21-12.6-.135.009-.265.014-.4.028-3.71.371-5.517,7.357-6.437,13.794s3.372,12.568,8.277,12.874C249.813,382.393,247.054,376.569,244.6,372.584Z" fill="#8c5e35"/>
          <path id="Path_3292" data-name="Path 3292" d="M246.462,360.012c-3.048,9.279.78,11.745,3.044,16.557,1.354,2.876.464,6.5-.6,9.166,2.77-2.093,4.122-7.27,4.588-11.925C254.044,368.281,253.347,360.761,246.462,360.012Z" fill="#8c5e35"/>
        </g>
      </g>
    </g>
  </g>
</svg>
