<svg xmlns="http://www.w3.org/2000/svg" width="137.429" height="114.685" viewBox="0 0 137.429 114.685">
  <g id="Group_3453" data-name="Group 3453" transform="translate(-44.768 -123.384)">
    <g id="Group_3415" data-name="Group 3415">
      <path id="Path_3144" data-name="Path 3144" d="M151.5,158.7s8.777-8.558,19.528-7.022,12.068,8.777,10.751,16.9-7.24,13.824-19.747,17.334-14.7.22-14.7.22l1.536-10.532s8.118,4.169,14.481.219,9.655-13.6,4.608-15.14S150.4,173.4,150.4,173.4Z" fill="#d9a77a"/>
      <g id="Group_3413" data-name="Group 3413">
        <path id="Path_3145" data-name="Path 3145" d="M154.855,187.381c.749-2.41,1.784-5.918,2.933-9.886a19.609,19.609,0,0,1-8.923-1.9l-1.536,10.532S148.624,188.058,154.855,187.381Z" fill="#c48e62"/>
        <path id="Path_3146" data-name="Path 3146" d="M150.4,173.4s6.183-7.047,11.609-10.7c1.168-4.133,2.246-7.977,3.068-10.917A28.653,28.653,0,0,0,151.5,158.7Z" fill="#c48e62"/>
      </g>
      <path id="Path_3147" data-name="Path 3147" d="M105.64,123.7c-4.937.33-39.592,6.867-44.432,25.672,0,0,.031.594.087,1.651.4,7.426,2.052,37.758,3.2,46.4,1.317,9.873,9.76,24.357,39.824,24.684,30.28.329,42.457-15.8,43.774-23.7l6.582-50.027s0-.063.006-.181C154.719,145.8,153.944,120.254,105.64,123.7Z" fill="#d9a77a"/>
      <path id="Path_3148" data-name="Path 3148" d="M74.372,227.5l4.79,8.832a146.385,146.385,0,0,0,37.524.957c20.117-2.2,27.581-6.071,27.581-6.071l2.056-9.446Z" fill="#d9a77a"/>
      <path id="Path_3149" data-name="Path 3149" d="M102.513,191.138s-46.639.962-56.7,20.187,55.313,25.224,81.051,20.7,50.777-16.337,42.076-30S102.513,191.138,102.513,191.138Z" fill="#f3e2ce"/>
      <path id="Path_3150" data-name="Path 3150" d="M113.539,173.073c-21.722-.329-42.128-8.228-48.711-15.469a15.4,15.4,0,0,1-3.533-6.577c.4,7.426,2.052,37.758,3.2,46.4,1.317,9.873,9.76,24.357,39.824,24.684,30.28.329,42.457-15.8,43.774-23.7l6.582-50.027s0-.063.006-.181C148.667,170.341,119.463,172.909,113.539,173.073Z" fill="#d9a77a"/>
      <path id="Path_3151" data-name="Path 3151" d="M105.85,126.638c-4.832.31-38.344,5.8-43.082,23.489,0,0,.03.559.086,1.553.562,2.081,1.2,4.892,3.05,6.844,6.442,6.81,26.416,14.24,47.678,14.549,0,0,32.917-1.592,39.123-22.709C152.738,148.1,153.131,123.393,105.85,126.638Z" fill="#f3e2ce"/>
      <g id="Group_3414" data-name="Group 3414">
        <path id="Path_3152" data-name="Path 3152" d="M121.657,138.3c-20.844-2.414-41.031.877-48.491,7.46-4.864,4.291-5.716,10.446-5.721,14.212,8.408,6.5,26.723,12.812,46.094,13.1,2.016.168,22.365-1.453,33.955-13.2C148.184,146.845,141.455,140.588,121.657,138.3Z" fill="#0c0409"/>
      </g>
      <path id="Path_3153" data-name="Path 3153" d="M121.657,138.3c-20.844-2.414-41.031.877-48.491,7.46-4.864,4.291-5.716,10.446-5.721,14.212a37.722,37.722,0,0,0,4.754,3.076,3.241,3.241,0,0,0,.349-1.366c.026-1.468-1.565-2.914-2.887-2.279,2.033-1.229.207-2.4.259-3.721.051-1.277,1.2-2.081,1.5-3.506a3.053,3.053,0,0,1,.463-1.4c.728-.867,2.112-.282,3.243-.326,3.013-.117,4.159-4.854,7.168-5.044,1.469-.093,3.285.883,4.212-.26.642-.792.288-2.147,1.062-2.811,1.1-.939,2.644.638,4.086.627,1.823-.015,3-2.577,4.8-2.283,1.075.176,1.95,1.377,3,1.09.98-.267,1.248-1.637,2.172-2.056,1.1-.5,2.194.586,3.247,1.167a4.274,4.274,0,0,0,5.541-1.524,4.323,4.323,0,0,0,5.872.265,5.4,5.4,0,0,0,5.923,2.454,4.774,4.774,0,0,1,2.14,2.637,8.4,8.4,0,0,0,.9,2.653c1.263,1.649,3.865.808,5.7-.172-1.32.877-.676,3.178.774,3.818s3.142.111,4.561-.6a2.938,2.938,0,0,0,3.622,4.2,2.62,2.62,0,0,0,2.915,4.016q-.45,2.772-.9,5.544a35.728,35.728,0,0,0,5.576-4.3C148.184,146.845,141.455,140.588,121.657,138.3Z" fill="#8c5e35"/>
    </g>
  </g>
</svg>
