<svg xmlns="http://www.w3.org/2000/svg" width="92.307" height="130.727" viewBox="0 0 92.307 130.727">
  <g id="Group_3445" data-name="Group 3445" transform="translate(-339.131 -292.932)">
    <g id="Group_3444" data-name="Group 3444">
      <g id="Group_3443" data-name="Group 3443">
        <path id="Path_3293" data-name="Path 3293" d="M428.037,314.477H344.042a13.893,13.893,0,0,1-2.339.178l13.133,103.719s.675,4.723,5.06,5.06,47.9,0,47.9,0,6.409,2.024,7.759-6.072c1.225-7.352,11.91-88.156,13.861-102.928C428.992,314.463,428.534,314.477,428.037,314.477Z" fill="#f3e2ce"/>
        <g id="Group_3440" data-name="Group 3440">
          <path id="Path_3294" data-name="Path 3294" d="M417.05,379.91l8.288-60.71H346.514l7.618,59.249a41.3,41.3,0,0,0,17.4,4.506C383.818,383.637,405.3,383.908,417.05,379.91Z" fill="#230f0f"/>
          <path id="Path_3295" data-name="Path 3295" d="M364.37,418.037h41.368a7,7,0,0,0,6.933-6.051l4.379-32.076c-11.75,4-33.232,3.727-45.516,3.045a41.3,41.3,0,0,1-17.4-4.506l4.433,34.482A5.853,5.853,0,0,0,364.37,418.037Z" fill="#0c0409"/>
        </g>
        <g id="Group_3441" data-name="Group 3441">
          <path id="Path_3296" data-name="Path 3296" d="M366.306,294.356c-5.484.272-36.131,9.3-24.6,22.266,10.751,12.088,38.433,11.578,48.216,11.21s31.434-1.566,39.5-11.451-9.476-19.818-26.68-22.393S366.306,294.356,366.306,294.356Z" fill="#f3e2ce"/>
          <path id="Path_3297" data-name="Path 3297" d="M368.488,296.563c-5,.219-32.94,7.48-22.43,17.9,9.8,9.718,35.039,9.308,43.957,9.012s28.658-1.259,36.011-9.206-8.64-15.932-24.324-18S368.488,296.563,368.488,296.563Z" fill="#e8cdb3"/>
          <path id="Path_3298" data-name="Path 3298" d="M381.625,328.539c-32.51,0-39.725-10.42-40.021-10.87a.9.9,0,1,1,1.5-.987c.067.1,7.433,10.4,40.057,10.052,12.228-.122,41.163-1.466,45.746-11.287a.9.9,0,0,1,1.629.76c-4.835,10.36-31.746,12.168-47.357,12.324C382.656,328.537,382.136,328.539,381.625,328.539Z" fill="#8c5e35"/>
          <path id="Path_3299" data-name="Path 3299" d="M375.076,303.683c-19.135.8-27.378,7.036-30.016,9.648a10.991,10.991,0,0,0,1,1.132c9.8,9.718,35.039,9.308,43.957,9.012,8.666-.287,27.546-1.207,35.354-8.549C416.558,303.647,395.352,302.838,375.076,303.683Z" fill="#230f0f"/>
        </g>
        <g id="Group_3442" data-name="Group 3442">
          <path id="Path_3300" data-name="Path 3300" d="M359.294,330.837h12.855a1.992,1.992,0,0,1,1.954,2.377l-2.841,14.467a1.993,1.993,0,0,1-2.429,1.551l-12.6-3.086a1.991,1.991,0,0,1-1.468-2.376l2.586-11.382A1.993,1.993,0,0,1,359.294,330.837Z" fill="#40281a"/>
          <path id="Path_3301" data-name="Path 3301" d="M400.235,337.136l5.529,10.208a3.158,3.158,0,0,0,4.468,1.162l8.4-5.326a3.159,3.159,0,0,0,1.034-4.263l-5.132-8.767a3.158,3.158,0,0,0-4-1.294l-8.8,3.887A3.159,3.159,0,0,0,400.235,337.136Z" fill="#40281a"/>
          <path id="Path_3302" data-name="Path 3302" d="M370.608,352.333l-3.382,8.546a4.176,4.176,0,0,0,2.5,5.484c5.506,1.921,12.832,4.933,14.539,4.237,1.232-.5,3.283-7.585,4.733-12.158a4.178,4.178,0,0,0-2.732-5.247l-10.518-3.311A4.182,4.182,0,0,0,370.608,352.333Z" fill="#40281a"/>
          <path id="Path_3303" data-name="Path 3303" d="M401.081,353.433c-1.313,2.024-3.412,5.275-4.816,7.449a2.459,2.459,0,0,0,.921,3.509l7.3,3.851a2.462,2.462,0,0,0,3.453-1.313l3.267-8.712a2.462,2.462,0,0,0-1.3-3.11l-5.753-2.579A2.459,2.459,0,0,0,401.081,353.433Z" fill="#40281a"/>
          <path id="Path_3304" data-name="Path 3304" d="M379.564,338.869c1.348,2.488,3.518,6.475,4.969,9.141a2.883,2.883,0,0,0,4.13,1.021l8.062-5.353a2.887,2.887,0,0,0,.587-4.293l-7.139-8.255a2.887,2.887,0,0,0-3.932-.409l-5.885,4.478A2.884,2.884,0,0,0,379.564,338.869Z" fill="#40281a"/>
          <path id="Path_3305" data-name="Path 3305" d="M414.808,318.017l1.117-2.978a2.462,2.462,0,0,0-1.3-3.11l-5.753-2.579a2.46,2.46,0,0,0-3.071.9c-1.02,1.574-2.513,3.884-3.788,5.858C405.993,316.852,410.38,317.632,414.808,318.017Z" fill="#40281a"/>
          <path id="Path_3306" data-name="Path 3306" d="M358.753,318.659a56.578,56.578,0,0,0,17.278.87,2.865,2.865,0,0,0-.646-2.408l-7.139-8.255a2.886,2.886,0,0,0-3.931-.409l-5.886,4.478a2.885,2.885,0,0,0-.791,3.67C357.968,317.213,358.347,317.913,358.753,318.659Z" fill="#40281a"/>
          <path id="Path_3307" data-name="Path 3307" d="M390.593,318.188a55.171,55.171,0,0,1,6.614.877l1.859-9.464a1.993,1.993,0,0,0-1.955-2.376H384.256a1.991,1.991,0,0,0-1.942,1.55L380,318.946A58.411,58.411,0,0,1,390.593,318.188Z" fill="#40281a"/>
          <path id="Path_3308" data-name="Path 3308" d="M397.34,351.836a2.53,2.53,0,1,1-2.53-2.53A2.53,2.53,0,0,1,397.34,351.836Z" fill="#40281a"/>
          <path id="Path_3309" data-name="Path 3309" d="M413.026,350.318a.759.759,0,1,1-.759-.759A.759.759,0,0,1,413.026,350.318Z" fill="#40281a"/>
          <path id="Path_3310" data-name="Path 3310" d="M421.88,329.573A2.277,2.277,0,1,1,419.6,327.3,2.277,2.277,0,0,1,421.88,329.573Z" fill="#40281a"/>
          <path id="Path_3311" data-name="Path 3311" d="M378.618,344.246a1.012,1.012,0,1,1-1.012-1.012A1.012,1.012,0,0,1,378.618,344.246Z" fill="#40281a"/>
          <path id="Path_3312" data-name="Path 3312" d="M383.425,348.927a1.645,1.645,0,1,1-1.644-1.645A1.644,1.644,0,0,1,383.425,348.927Z" fill="#40281a"/>
          <path id="Path_3313" data-name="Path 3313" d="M365.968,355.125a1.518,1.518,0,1,1-1.518-1.518A1.517,1.517,0,0,1,365.968,355.125Z" fill="#40281a"/>
          <circle id="Ellipse_349" data-name="Ellipse 349" cx="2.783" cy="2.783" r="2.783" transform="translate(356.607 348.294)" fill="#40281a"/>
          <circle id="Ellipse_350" data-name="Ellipse 350" cx="1.897" cy="1.897" r="1.897" transform="translate(373.558 308.068)" fill="#40281a"/>
          <path id="Path_3314" data-name="Path 3314" d="M377.859,314.772a.885.885,0,1,1-.885-.885A.886.886,0,0,1,377.859,314.772Z" fill="#40281a"/>
          <path id="Path_3315" data-name="Path 3315" d="M356.1,312.495a1.392,1.392,0,1,1-1.391-1.391A1.392,1.392,0,0,1,356.1,312.495Z" fill="#40281a"/>
          <path id="Path_3316" data-name="Path 3316" d="M359.137,308.574a.759.759,0,1,1-.759-.759A.759.759,0,0,1,359.137,308.574Z" fill="#40281a"/>
          <path id="Path_3317" data-name="Path 3317" d="M403.918,308.068a.506.506,0,1,1-.506-.506A.507.507,0,0,1,403.918,308.068Z" fill="#40281a"/>
          <path id="Path_3318" data-name="Path 3318" d="M402.906,319.453a1.012,1.012,0,1,1-1.012-1.012A1.012,1.012,0,0,1,402.906,319.453Z" fill="#40281a"/>
          <path id="Path_3319" data-name="Path 3319" d="M398.1,332.482a1.139,1.139,0,1,1-1.139-1.138A1.139,1.139,0,0,1,398.1,332.482Z" fill="#40281a"/>
          <path id="Path_3320" data-name="Path 3320" d="M380.136,331.723a1.391,1.391,0,1,1-1.391-1.391A1.391,1.391,0,0,1,380.136,331.723Z" fill="#40281a"/>
          <path id="Path_3321" data-name="Path 3321" d="M354.836,330.837a2.277,2.277,0,1,1-2.277-2.276A2.276,2.276,0,0,1,354.836,330.837Z" fill="#40281a"/>
          <path id="Path_3322" data-name="Path 3322" d="M358.125,328.055a.759.759,0,1,1-.759-.759A.759.759,0,0,1,358.125,328.055Z" fill="#40281a"/>
          <path id="Path_3323" data-name="Path 3323" d="M353.824,336.909a.506.506,0,1,1-.506-.506A.505.505,0,0,1,353.824,336.909Z" fill="#40281a"/>
        </g>
      </g>
    </g>
  </g>
</svg>
