<svg xmlns="http://www.w3.org/2000/svg" width="100.531" height="136.584" viewBox="0 0 100.531 136.584">
  <g id="Group_3455" data-name="Group 3455" transform="translate(-346.019 -102.907)">
    <g id="Group_3428" data-name="Group 3428">
      <g id="Group_3423" data-name="Group 3423">
        <path id="Path_3174" data-name="Path 3174" d="M420.779,131.174s19.554-10.228,24.368,3.61-3.61,30.385-12.335,40.012-16.546,13.839-16.546,13.839l1.5-13.538s12.636-8.122,15.945-20.457-4.814-12.936-8.123-10.83-5.716,3.911-5.716,3.911Z" fill="#f3e2ce"/>
        <g id="Group_3422" data-name="Group 3422">
          <path id="Path_3175" data-name="Path 3175" d="M419.876,147.721s2.407-1.8,5.716-3.911a6.084,6.084,0,0,1,1.948-.776,29.766,29.766,0,0,1,2.792-15.1,38.085,38.085,0,0,0-9.553,3.243Z" fill="#e8cdb3"/>
          <path id="Path_3176" data-name="Path 3176" d="M422.207,171.643a41.656,41.656,0,0,1-4.437,3.454l-1.5,13.538a52.2,52.2,0,0,0,6.83-4.711C421.37,180.14,421.557,175.458,422.207,171.643Z" fill="#e8cdb3"/>
        </g>
      </g>
      <g id="Group_3424" data-name="Group 3424">
        <path id="Path_3177" data-name="Path 3177" d="M358.215,129.251c15.177,3.262,53.453,7.239,65.374-10.013-1.1-5.671-11.132-12.66-34.715-13.039-25.257-.4-41.26,2.963-42.744,13.336C347.9,123.777,351.413,127.788,358.215,129.251Z" fill="#e8cdb3"/>
        <path id="Path_3178" data-name="Path 3178" d="M358.2,129.219c-6.8-1.471-10.306-5.486-12.073-9.73a11.069,11.069,0,0,0-.111,1.156s7.221,97.924,8.574,102.437,8.123,18.05,30.235,16.245,27.076-10.379,28.43-17.6,9.476-94.766,10.379-100.632a5.3,5.3,0,0,0-.048-1.811C411.647,136.523,373.376,132.5,358.2,129.219Z" fill="#f3e2ce"/>
      </g>
      <g id="Group_3425" data-name="Group 3425">
        <path id="Path_3179" data-name="Path 3179" d="M411.672,195.3l7.6-72.853s0-8.123-18.351-10.229-51.143-.6-50.842,12.034c0,0,3.61,39.711,4.211,49.338.288,4.594.986,12.818,1.7,20.979,2.172,1.07,6.384,2.225,14.543,2.787C384.51,198.323,400.02,199.281,411.672,195.3Z" fill="#d9a77a"/>
        <path id="Path_3180" data-name="Path 3180" d="M353.693,192.361l0-.116A.516.516,0,0,0,353.693,192.361Z" fill="none" stroke="#e8cdb3" stroke-miterlimit="10" stroke-width="1"/>
        <path id="Path_3181" data-name="Path 3181" d="M363.619,230.753c4.512,3.911,37.906,8.123,44.825-4.513l3.228-30.937c-11.652,3.978-27.162,3.02-41.134,2.056-8.159-.562-12.371-1.717-14.543-2.787.785,8.942,1.593,17.808,1.908,21.741C358.5,223.834,359.106,226.842,363.619,230.753Z" fill="#8c5e35"/>
      </g>
      <g id="Group_3427" data-name="Group 3427">
        <path id="Path_3182" data-name="Path 3182" d="M350.382,121.583s3.911-14.338,29.482-17.767,40.313,10.6,39.711,18.39a3.448,3.448,0,0,1-1.805,2.805s-6.919,5.611-27.376,6.858c-22.243,1.356-37.305-4.364-37.305-4.364S347.975,125.947,350.382,121.583Z" fill="#f9f3ed"/>
        <path id="Path_3183" data-name="Path 3183" d="M379.864,103.816a57.763,57.763,0,0,0-12.01,2.842c-.037.088-.088.164-.12.256,2.438,1.781,8.825.752,11.84.989q7.4.583,14.759,1.562a2.78,2.78,0,0,1,2.19,1.031c.724,1.286-.843,2.634-2.184,3.252a75.4,75.4,0,0,1-19.993,6.038c10.381,3.32,21.558-.563,32.456-.684,1.159-.012,2.8.806,2.18,1.786-8.36,5.295-18.481,7.289-28.377,7.239s-19.673-2.03-29.338-4.16a10.436,10.436,0,0,0,4.105,4.286,103.142,103.142,0,0,0,35.022,3.616c20.457-1.247,27.376-6.858,27.376-6.858a3.448,3.448,0,0,0,1.805-2.805C420.177,114.414,405.436,100.387,379.864,103.816Z" fill="#f3e2ce"/>
        <g id="Group_3426" data-name="Group 3426">
          <path id="Path_3184" data-name="Path 3184" d="M388.688,128.531c-.015-.39-.841-.946.212-1.113.377-.06.871-.02,1.006.353.253.7-.682.338-.8.76Z" fill="#8c5e35"/>
          <path id="Path_3185" data-name="Path 3185" d="M371.165,106.546c-.015-.675.617-.748,1-1.015,1.16-.8,2.27-1.685,3.857-1.512,1.041.113,2.092-.431,3.161-.053.2.073.272-.132.317-.306.1-.4.3-.7.776-.666.511.039.507.485.645.817l-.1.138.25.023a6.95,6.95,0,0,1,3.744-.6c.307.009.755.009.781.355.029.373-.42.369-.715.407-.482.062-.967.11-1.452.142-.414.028-.9.169-.8.587.078.313.3.842.838.851.4.007.9.008.865.48-.044.589-.648.871-1.117,1.131a.909.909,0,0,1-1.067-.1c-.049-.045-.047-.165-.041-.248.078-.964-.236-1.212-1.208-.852a5.451,5.451,0,0,1-2.063.177,1.444,1.444,0,0,0-1.383.658c-.288.144-.643.157-.869.427l-1.459.493c-.049.288.173.441.289.639s.194.375.019.56-.359.057-.562.024c-.782-.126-1.127-.449-.751-1.258a2.119,2.119,0,0,0,.078-.694c.015-.186.144-.451-.159-.485-.252-.029-.609-.059-.689.28-.165.7-.748.768-1.272.84-.471.064-.9-.008-1.162.564-.132.293-.543.2-.826,0-.261-.189-.528-.414-.4-.758.148-.389.515-.383.871-.31C371.3,107.465,371.127,106.918,371.165,106.546Z" fill="#8c5e35"/>
          <path id="Path_3186" data-name="Path 3186" d="M376.59,107.381c.226-.27.581-.283.869-.427.11.594.655.83,1.017,1.217l-.025-.031c-.316.37-.13.881-.425,1.315-.181.267.266.713.794.685.391-.021.964-.192,1.02.366s-.51.735-.985.874a1.449,1.449,0,0,1-1.557-.18,1.027,1.027,0,0,1-.055-1.33l.255-.1-.246-.11A7.224,7.224,0,0,1,376.59,107.381Z" fill="#8c5e35"/>
          <path id="Path_3187" data-name="Path 3187" d="M395.479,103.886a.58.58,0,0,1-.553.587c-.225.037-.66-.137-.57.337.062.326.128.766.683.661a.589.589,0,0,1,.665.382c.162.347.325.817.017,1.052-.383.292-.558-.236-.774-.453-.275-.276-.33-.768-.976-.456-.48.231-1.3.173-1.3-.5a1.546,1.546,0,0,1,.9-1.411c.289-.1.6-.01.582-.487-.009-.34.274-.456.592-.374C395.087,103.31,395.412,103.436,395.479,103.886Z" fill="#8c5e35"/>
          <path id="Path_3188" data-name="Path 3188" d="M397.046,104.534c.988-.3,1.942-.826,3.027-.3.411.2.934.314.76.89a.933.933,0,0,1-1.184.57,3.136,3.136,0,0,0-2.2.119c-.5.244-.452-.307-.493-.622Z" fill="#8c5e35"/>
          <path id="Path_3189" data-name="Path 3189" d="M391.578,103.588c.4.024.93-.037.979.414.063.591-.531.49-.911.56-.3.057-.618.07-.922.126-.335.062-.85-.016-.377.616.215.287-.1.541-.414.472a1.349,1.349,0,0,1-.911-.808c-.2-.42.1-.626.406-.813A4.435,4.435,0,0,1,391.578,103.588Z" fill="#8c5e35"/>
          <path id="Path_3190" data-name="Path 3190" d="M384.247,108.273a3.2,3.2,0,0,1-2.265.514,2,2,0,0,0-.887.022c-.423.148-.779-.024-.78-.521s.516-.768.769-.62c.934.547,1.955.072,2.883.381C384.052,108.077,384.116,108.165,384.247,108.273Z" fill="#8c5e35"/>
          <path id="Path_3191" data-name="Path 3191" d="M405.629,106.762c.118.566-.012.957-.71.89a1.728,1.728,0,0,1-1.416-1.257c-.065-.64.846-.6,1.4-.621C405.536,105.752,405.891,106.057,405.629,106.762Z" fill="#8c5e35"/>
          <path id="Path_3192" data-name="Path 3192" d="M386.747,106.257c-.541-.192-1.352.314-1.605-.666-.069-.266-.672-.35-.414-.8.223-.39.658-.312,1.031-.348.589.175.507.953,1.057,1.163Z" fill="#8c5e35"/>
          <path id="Path_3193" data-name="Path 3193" d="M372.759,109.964c-.179.56-.234,1.217-.976,1.29a.466.466,0,0,1-.509-.606c.188-.523.033-1.343.915-1.385C372.622,109.242,372.713,109.62,372.759,109.964Z" fill="#8c5e35"/>
          <path id="Path_3194" data-name="Path 3194" d="M363.808,108.787c.366.05,1.017-.05.986.634-.027.606-.635.519-1.074.519-.455,0-1.039-.012-1.042-.589C362.673,108.753,363.251,108.777,363.808,108.787Z" fill="#8c5e35"/>
          <path id="Path_3195" data-name="Path 3195" d="M386.169,113.255c-.45-.036-1.038.032-1.073-.644-.031-.6.481-.58.9-.554.526.034,1.268-.09,1.277.666C387.278,113.265,386.649,113.244,386.169,113.255Z" fill="#8c5e35"/>
          <path id="Path_3196" data-name="Path 3196" d="M386.747,106.257l.069-.652c.277-.462.6-.836,1.229-.674.56,1.089.131,1.845-1.036,1.823l-.175-.2Z" fill="#8c5e35"/>
          <path id="Path_3197" data-name="Path 3197" d="M380.659,113.35a6.274,6.274,0,0,1,1.854.889c-1.435.538-2.4.2-2.573-.848Z" fill="#8c5e35"/>
          <path id="Path_3198" data-name="Path 3198" d="M416.689,123.137a5.03,5.03,0,0,1-.814.089c-.336-.022-.788.034-.908-.352-.137-.443.243-.755.525-1.051a.529.529,0,0,1,.665-.134.385.385,0,0,1,.084.626C415.691,122.931,416.5,122.8,416.689,123.137Z" fill="#8c5e35"/>
          <path id="Path_3199" data-name="Path 3199" d="M390.154,107.632a.936.936,0,0,1-.954-.893c-.053-.455.376-.542.726-.5.519.066,1.1.2,1.1.858C391.024,107.587,390.55,107.606,390.154,107.632Z" fill="#8c5e35"/>
          <path id="Path_3200" data-name="Path 3200" d="M390.624,110.32a1.431,1.431,0,0,1-1.252.911c-.3.046-.591-.129-.539-.466.1-.675.724-.759,1.239-.895A.417.417,0,0,1,390.624,110.32Z" fill="#8c5e35"/>
          <path id="Path_3201" data-name="Path 3201" d="M392.319,109.273a4.588,4.588,0,0,1-.756-.125c-.2-.065-.387-.268-.252-.482.355-.565.943-.219,1.424-.292.315-.048.66,0,.728.4a.4.4,0,0,1-.362.432A6.69,6.69,0,0,1,392.319,109.273Z" fill="#8c5e35"/>
          <path id="Path_3202" data-name="Path 3202" d="M369.684,106.6c-.269.314.014,1.048-.745,1.017-.4-.016-.818-.136-.763-.628a1.066,1.066,0,0,1,1.006-.884C369.511,106.049,369.7,106.233,369.684,106.6Z" fill="#8c5e35"/>
          <path id="Path_3203" data-name="Path 3203" d="M390.056,111.8c.316.174,1.006-.066.88.416-.115.441-.806.561-1.324.594-.354.023-.646-.168-.559-.55C389.178,111.706,389.678,111.851,390.056,111.8Z" fill="#8c5e35"/>
          <path id="Path_3204" data-name="Path 3204" d="M409.176,108.008c-.046.415-.232.663-.6.633a.725.725,0,0,1-.762-.8c.024-.338.21-.794.563-.748C408.829,107.157,409.023,107.64,409.176,108.008Z" fill="#8c5e35"/>
          <path id="Path_3205" data-name="Path 3205" d="M387.365,109.481c-.416-.068-.629-.272-.583-.631a1.024,1.024,0,0,1,.891-.969c.33-.044.448.255.422.559A1.042,1.042,0,0,1,387.365,109.481Z" fill="#8c5e35"/>
          <path id="Path_3206" data-name="Path 3206" d="M368.646,108.581c.375-.006.754.069.744.51-.012.586-.539.657-.972.707-.375.043-.7-.14-.666-.581C367.8,108.7,368.2,108.592,368.646,108.581Z" fill="#8c5e35"/>
          <path id="Path_3207" data-name="Path 3207" d="M386.636,103.81c-.168-.25-.448-.5-.053-.778a.544.544,0,0,1,.757.054c.266.409,1.132.747.311,1.406C387.119,104.55,386.95,104.073,386.636,103.81Z" fill="#8c5e35"/>
          <path id="Path_3208" data-name="Path 3208" d="M378.476,108.171a.883.883,0,0,1,.024-.3c.23-.491.41-1.079,1.17-.794.3.115.479.352.24.628-.377.435-.721,1.13-1.459.439Z" fill="#8c5e35"/>
          <path id="Path_3209" data-name="Path 3209" d="M381.749,116c-.177.395-.134.994-.807.987a.427.427,0,0,1-.436-.558,1.172,1.172,0,0,1,.786-.966C381.625,115.378,381.741,115.679,381.749,116Z" fill="#8c5e35"/>
          <path id="Path_3210" data-name="Path 3210" d="M380.659,113.35l-.719.041c-.4-.034-.8-.164-.78-.621.017-.395.417-.53.765-.526.452,0,.67.265.608.74C380.519,113.1,380.614,113.228,380.659,113.35Z" fill="#8c5e35"/>
          <path id="Path_3211" data-name="Path 3211" d="M396.126,110.067a.9.9,0,0,1-.584-.941c0-.32.265-.468.568-.442a.632.632,0,0,1,.6.78C396.686,109.783,396.55,110.056,396.126,110.067Z" fill="#8c5e35"/>
          <path id="Path_3212" data-name="Path 3212" d="M403.451,110.432c-.089.37-.135.782-.649.765a.492.492,0,0,1-.494-.627.741.741,0,0,1,.74-.705C403.406,109.865,403.465,110.142,403.451,110.432Z" fill="#8c5e35"/>
          <path id="Path_3213" data-name="Path 3213" d="M384.338,110.672a.6.6,0,0,1-.6.62.567.567,0,0,1-.637-.55.559.559,0,0,1,.525-.653A.636.636,0,0,1,384.338,110.672Z" fill="#8c5e35"/>
          <path id="Path_3214" data-name="Path 3214" d="M411.076,125.3c-.3,0-.58-.078-.578-.429,0-.446.346-.55.714-.559.259-.007.633-.08.635.312C411.848,125.071,411.468,125.22,411.076,125.3Z" fill="#8c5e35"/>
          <path id="Path_3215" data-name="Path 3215" d="M386.834,106.558l.175.2a4.548,4.548,0,0,1,.038.507c-.013.42-.3.6-.666.639a.518.518,0,0,1-.6-.443c-.064-.377.244-.528.524-.664C386.48,106.709,386.731,106.8,386.834,106.558Z" fill="#8c5e35"/>
          <path id="Path_3216" data-name="Path 3216" d="M366.731,111.266a.734.734,0,0,1-.633-.7c-.044-.258.038-.487.343-.53.452-.064.619.239.678.6A.506.506,0,0,1,366.731,111.266Z" fill="#8c5e35"/>
          <path id="Path_3217" data-name="Path 3217" d="M399.076,107.855a.81.81,0,0,1-.852.463c-.312,0-.68-.066-.61-.491.06-.37.413-.429.734-.4C398.643,107.463,398.981,107.473,399.076,107.855Z" fill="#8c5e35"/>
          <path id="Path_3218" data-name="Path 3218" d="M401.478,107.143a.534.534,0,0,1,.592.531c.015.409-.229.616-.637.61a.519.519,0,0,1-.565-.574A.561.561,0,0,1,401.478,107.143Z" fill="#8c5e35"/>
          <path id="Path_3219" data-name="Path 3219" d="M380.908,111.084c-.33.111-.687.2-.788-.3a.325.325,0,0,1,.367-.391c.4.109,1.073.282,1.1.5C381.66,111.467,381.14,110.913,380.908,111.084Z" fill="#8c5e35"/>
          <path id="Path_3220" data-name="Path 3220" d="M405.482,108.961a.634.634,0,0,1,.53.665.507.507,0,0,1-.589.555.5.5,0,0,1-.478-.566A.631.631,0,0,1,405.482,108.961Z" fill="#8c5e35"/>
          <path id="Path_3221" data-name="Path 3221" d="M352.021,118.4a.931.931,0,0,1-.846.619c-.283.027-.344-.208-.3-.425a.737.737,0,0,1,.807-.652C351.927,117.945,352.032,118.125,352.021,118.4Z" fill="#8c5e35"/>
          <path id="Path_3222" data-name="Path 3222" d="M353.72,119.746c.058.409-.283.407-.521.465a.4.4,0,0,1-.539-.426.57.57,0,0,1,.588-.577C353.592,119.194,353.692,119.453,353.72,119.746Z" fill="#8c5e35"/>
          <path id="Path_3223" data-name="Path 3223" d="M352.437,121.895a.584.584,0,0,1-.458-.7c.028-.285.11-.583.486-.51a.586.586,0,0,1,.506.674A.55.55,0,0,1,352.437,121.895Z" fill="#8c5e35"/>
          <path id="Path_3224" data-name="Path 3224" d="M352.527,123.566a.673.673,0,0,1-.627-.585c-.068-.327.064-.573.415-.566a.578.578,0,0,1,.583.61A.45.45,0,0,1,352.527,123.566Z" fill="#8c5e35"/>
          <path id="Path_3225" data-name="Path 3225" d="M416.131,120.372c-.088.367-.164.764-.62.83a.344.344,0,0,1-.385-.38c.006-.454.335-.643.706-.752C416.053,120,416.109,120.193,416.131,120.372Z" fill="#8c5e35"/>
          <path id="Path_3226" data-name="Path 3226" d="M354.482,122.312a.932.932,0,0,1,.7.89c.013.228-.117.429-.371.38a.893.893,0,0,1-.793-.826C353.991,122.483,354.142,122.3,354.482,122.312Z" fill="#8c5e35"/>
          <path id="Path_3227" data-name="Path 3227" d="M394.807,107.176a.486.486,0,0,1-.557.449c-.311,0-.541-.146-.548-.472-.008-.344.24-.463.546-.456S394.779,106.817,394.807,107.176Z" fill="#8c5e35"/>
          <path id="Path_3228" data-name="Path 3228" d="M375.863,114.95c-.036.171-.139.353-.254.285-.349-.207-.758-.4-.78-.888-.007-.166.132-.372.331-.313C375.611,114.17,375.7,114.608,375.863,114.95Z" fill="#8c5e35"/>
          <path id="Path_3229" data-name="Path 3229" d="M367.331,108.928c-.149.247-.227.6-.6.593-.234,0-.324-.229-.324-.442a.54.54,0,0,1,.455-.59C367.126,108.452,367.283,108.652,367.331,108.928Z" fill="#8c5e35"/>
          <path id="Path_3230" data-name="Path 3230" d="M377.449,113.013a.5.5,0,0,1-.476-.557c.017-.354.214-.579.6-.521a.5.5,0,0,1,.422.6A.48.48,0,0,1,377.449,113.013Z" fill="#8c5e35"/>
          <path id="Path_3231" data-name="Path 3231" d="M351.118,122.992c-.05.272-.214.4-.436.349-.309-.064-.586-.227-.6-.584a.354.354,0,0,1,.467-.38A.823.823,0,0,1,351.118,122.992Z" fill="#8c5e35"/>
          <path id="Path_3232" data-name="Path 3232" d="M412.689,123.346c-.3-.017-.507-.124-.481-.427.029-.333.288-.435.582-.459.263-.023.52.038.515.345C413.3,123.184,412.964,123.264,412.689,123.346Z" fill="#8c5e35"/>
          <path id="Path_3233" data-name="Path 3233" d="M364.657,107.547c.277,0,.477.106.5.4a.394.394,0,0,1-.415.477c-.262.009-.489-.082-.51-.392A.422.422,0,0,1,364.657,107.547Z" fill="#8c5e35"/>
          <path id="Path_3234" data-name="Path 3234" d="M387.682,115.506c-.07.352-.318.344-.558.335-.275-.01-.593-.005-.639-.36-.04-.307.209-.42.467-.4C387.253,115.116,387.565,115.18,387.682,115.506Z" fill="#8c5e35"/>
          <path id="Path_3235" data-name="Path 3235" d="M364.217,111.38c-.474.089-.964.305-1.223-.246a.294.294,0,0,1,.181-.418C363.743,110.574,363.87,111.149,364.217,111.38Z" fill="#8c5e35"/>
          <path id="Path_3236" data-name="Path 3236" d="M418.9,121.525c.207-.031.406.027.369.234-.061.334-.365.488-.655.6-.161.062-.389.035-.393-.192C418.214,121.727,418.6,121.652,418.9,121.525Z" fill="#8c5e35"/>
          <path id="Path_3237" data-name="Path 3237" d="M374.785,110.658c.294.044.545.178.505.5a.5.5,0,0,1-.589.425.411.411,0,0,1-.432-.451C374.266,110.795,374.468,110.662,374.785,110.658Z" fill="#8c5e35"/>
          <path id="Path_3238" data-name="Path 3238" d="M397.046,104.534l-.087.657c-.341-.324-1.242.171-1.158-.481S396.622,104.678,397.046,104.534Z" fill="#8c5e35"/>
          <path id="Path_3239" data-name="Path 3239" d="M371.165,106.546c-.038.372.14.919-.6.729C370.8,107.059,370.792,106.648,371.165,106.546Z" fill="#8c5e35"/>
          <path id="Path_3240" data-name="Path 3240" d="M377.252,109.662l.246.11-.255.1Z" fill="#8c5e35"/>
        </g>
      </g>
      <path id="Path_3241" data-name="Path 3241" d="M355.5,132.678a66.537,66.537,0,0,0,15.644,3.611c-3.61,33.995-4.814,68.592-7.221,70.7S353.992,140.8,355.5,132.678Z" fill="#f3e2ce" opacity="0.33"/>
    </g>
  </g>
</svg>
