<svg xmlns="http://www.w3.org/2000/svg" width="118.96" height="87.55" viewBox="0 0 118.96 87.55">
  <g id="Group_3454" data-name="Group 3454" transform="translate(-190.52 -146.168)">
    <g id="Group_3420" data-name="Group 3420">
      <path id="Path_3154" data-name="Path 3154" d="M221.4,226.658l2.414,5.365a199.888,199.888,0,0,0,30.844,1.609,157.5,157.5,0,0,0,28.162-3.487l.536-6.437Z" fill="#8c5e35"/>
      <path id="Path_3155" data-name="Path 3155" d="M213.357,194.205s35.4-2.414,57.933-3.755,39.695,2.95,38.085,16.629-27.625,22.53-55.519,23.334-47.473-3.486-58.2-12.069S191.1,196.351,213.357,194.205Z" fill="#d9a77a"/>
      <path id="Path_3156" data-name="Path 3156" d="M283.9,174.626s5.632-8.583,13.678-4.828,9.119,13.142,8.046,19.043-5.1,9.119-13.678,11.533-12.606-.537-12.606-.537l2.146-10.191s8.314,2.95,12.337-.537,4.56-6.437,2.146-8.314-11.8,2.682-12.874,4.827C283.9,176.771,283.9,174.626,283.9,174.626Z" fill="#f3e2ce"/>
      <g id="Group_3417" data-name="Group 3417">
        <path id="Path_3157" data-name="Path 3157" d="M283.778,201.219a69.716,69.716,0,0,1,2.777-10.491,23.823,23.823,0,0,1-5.073-1.082l-2.146,10.191A9.942,9.942,0,0,0,283.778,201.219Z" fill="#e8cdb3"/>
        <path id="Path_3158" data-name="Path 3158" d="M283.9,174.626s0,2.145-.8,11c.633-1.266,4.16-3.371,7.442-4.5a107.332,107.332,0,0,1,6.48-11.562C289.268,166.448,283.9,174.626,283.9,174.626Z" fill="#e8cdb3"/>
      </g>
      <path id="Path_3159" data-name="Path 3159" d="M232.4,149.012s-24.138,7.241-24.138,18.909c0,.35.006.705.016,1.064.344,11.608,6.115,27.705,9.237,34.339,3.218,6.839,6.839,12.472,19.311,13.679s33.794,1.609,40.231-8.851c6.1-9.906,9.3-32.072,9.627-43.278.018-.627.029-1.227.029-1.781C286.712,152.633,257.745,140.563,232.4,149.012Z" fill="#f3e2ce"/>
      <path id="Path_3160" data-name="Path 3160" d="M213.351,175.167c7.35,6.545,28.24,11.166,50.29,8.085,16.205-2.263,20.5-10.556,21.635-17.545.017-.6.028-1.175.028-1.705,0-10.01-27.853-21.56-52.224-13.475,0,0-23.21,6.93-23.21,18.1,0,.335.006.675.016,1.019A11.858,11.858,0,0,0,213.351,175.167Z" fill="#e8cdb3"/>
      <g id="Group_3418" data-name="Group 3418">
        <path id="Path_3161" data-name="Path 3161" d="M264.853,191.255c-27.761,8.018-47.083-2.082-49.081-13.825a6.315,6.315,0,0,0,.133,1.152c1.081,4.977,3.017,14.684,5.028,20.518s4.933,10.7,10.662,11.868c8.851,1.811,24.139,1.408,33.191-.4,7.169-1.434,9.653-4.09,10.661-6.84,1.936-5.281,4.951-19.5,5.135-27.145C279.6,181.063,279.358,187.065,264.853,191.255Z" fill="#2d1717"/>
        <path id="Path_3162" data-name="Path 3162" d="M280.476,173.754c-1.075-8.334-14.483-9.052-27.961-9.253s-28.162,4.828-28.162,4.828c-4.782,1.287-8.711,4.093-8.581,8.1,2,11.743,21.32,21.843,49.081,13.825,14.505-4.19,14.751-10.192,15.729-14.674A19.288,19.288,0,0,0,280.476,173.754Z" fill="#0c0409"/>
      </g>
      <g id="_3fhzjZ.tif" data-name="3fhzjZ.tif">
        <g id="Group_3419" data-name="Group 3419">
          <path id="Path_3163" data-name="Path 3163" d="M242.885,193.4c-.323,0-.648.027-.968,0a42.752,42.752,0,0,0-4.493-.434c-2.03.017-3.84-.764-5.725-1.269a22.4,22.4,0,0,1-3.6-1.285,30.8,30.8,0,0,1-6.719-4.847,17.527,17.527,0,0,1-4.9-6.247,10.368,10.368,0,0,1-.757-3.18,3.375,3.375,0,0,1,.573-1.738c.314-.573.731-.992.635-1.795s.809-1.008,1.453-1.147c.513-.111.875-.183.757-.82a.431.431,0,0,1,.157-.366,4.9,4.9,0,0,0,1.875-1.977.929.929,0,0,1,1.369-.23c.414.27.674.2.853-.266a1.131,1.131,0,0,1,.295-.408c.365-.323,3.4-.622,3.833-.7a10.249,10.249,0,0,1,2.833.166c.315.026.735-.344.991-.635a2.241,2.241,0,0,1,2.185-.851c.859.141,1.728.222,2.594.317a.544.544,0,0,0,.31-.1c.563-.355,1.111-.733,1.68-1.077,1.141-.69,1.467-.605,2.112.555l3.459-.389c-.189-.661.212-.924.667-.886.823.069,1.7-.462,2.492.254a.651.651,0,0,0,.992-.26,1.565,1.565,0,0,1,1.023-.661,23.634,23.634,0,0,1,2.579.029c.363,0,.731-.05,1.089-.012a1.669,1.669,0,0,1,.775.262,3.7,3.7,0,0,0,2.618.763c1.574-.153,3.175.026,4.714-.554a2.468,2.468,0,0,1,2.953.839c1.638-.608,3.006.351,4.564.437.076-.646.551-.926,1.358-.832a1.442,1.442,0,0,1,1.467,1.275c.025.154.109.4.2.424a7.144,7.144,0,0,0,2.552.417c.853-.151,1.309.044,1.52.745a1.811,1.811,0,0,0,1.124,1.16c1.554.753,2.282,2.244,3.149,3.606a3.992,3.992,0,0,1,.761,3.218,1.066,1.066,0,0,0,.013.508c.111.42.46.9.347,1.237-.647,1.913-.634,4.081-2.123,5.677a2.8,2.8,0,0,1-.382.34,1.008,1.008,0,0,1-.3.078c.5-1.452.988-2.865,1.476-4.277l-.259-.135c-.507.279-.823,1.334-1.522.718-.481-.425-1.678-.427-1.372-1.337.236-.7-.022-1.956,1.366-1.9-.331-.809-.331-.809,1.706-.767-.31-.732-.457-1.511-1.109-1.785-.346.573-.617,1.056-.933,1.509a.469.469,0,0,1-.441,0c-.111-.165-.238-.471-.16-.587.563-.844.22-1.218-.621-1.506a1.3,1.3,0,0,1-.8-1.456c.045-.984-.291-1.333-1.171-1.712-.449-.193-.764-.7-1.26-1.178-.477-.025-1.218-.085-1.958-.088-.162,0-.339.184-.485.311a1.788,1.788,0,0,1-2.536.219c-.314-.194-.571-.486-.9-.648a1.642,1.642,0,0,0-.947-.216c-1.115.218-1.543.054-2.091-.949-.067-.122-.112-.319-.21-.352-.834-.276-1.671-.547-2.523-.757-.185-.046-.435.154-.652.249a3.449,3.449,0,0,1-1.05.454,13.389,13.389,0,0,1-3.271-.035,3.431,3.431,0,0,0-2.439.25,1.555,1.555,0,0,1-1.235-.006,3.882,3.882,0,0,0-3.563.087,6.189,6.189,0,0,1-.214,1.364c-.04.1-.728.131-.791.016a5.185,5.185,0,0,1-.293-1.352c-1.169.059-2.545.1-3.913.221-.308.029-.583.377-.88.567-.18.115-.382.3-.559.287a.653.653,0,0,1-.48-.383c-.157-.835-.774-.725-1.307-.624a9.843,9.843,0,0,0-1.7.554.8.8,0,0,0-.446.413c-.334,1.076-.534,1.253-1.667,1.224-.6-.016-1.119-.075-1.547.557-.2.294-.81.4-1.243.423-.736.042-1.016.436-1.2,1.069a.7.7,0,0,1-.6.339,2.2,2.2,0,0,0-2.01.234,8.225,8.225,0,0,1-2.771.52,2.933,2.933,0,0,1-.9-.18c-.911,1.774-1.486,1.924-3.275.937a1.157,1.157,0,0,0-.813-.088c-.929.285-1.839.633-2.545.883.15.7.287,1.321.417,1.944.045.218.05.446.112.659.377,1.295,0,2.106-1.442,2.736.223.6.427,1.221.705,1.807a.854.854,0,0,0,.689-.094c.264-.4.521-.734,1.013-.43a.81.81,0,0,1,.261,1.189.852.852,0,0,0,.385,1.215c.047.031.115.041.15.081.809.944,1.626,1.882,2.419,2.84.53.641,1.055,1.266,1.911,1.287.112-.32.206-.621.338-.9.01-.022.393.048.411.122a10.017,10.017,0,0,1,.145,1.22l1.915.692.109-.306-1.114-.294a12.182,12.182,0,0,1,.931-1.5c.151-.183.533-.175.809-.253.054.253.119.5.155.76a1.232,1.232,0,0,1-.065.354c.819.245,1.524.458,1.727,1.508.075.39,1.072.637,1.677.878a10.767,10.767,0,0,0,1.459.379,2.807,2.807,0,0,0,.8.163,2.517,2.517,0,0,1,2.1.914,4.33,4.33,0,0,0,1.373.912c1.244.55,2.519,1.029,3.782,1.537Zm37.447-16.925-1.012-.957-.622,1.2.118.233Z" fill="#8c5e35"/>
          <path id="Path_3164" data-name="Path 3164" d="M261.13,189.4c.255-.377.453-.956.7-.977.621-.053,1.343-.441,1.909.267a1.141,1.141,0,0,0,.8.277c.854.006,1.71-.1,2.56-.058.327.018.639.328.959.5-.241.275-.437.724-.729.8-3.084.789-6.163,1.618-9.284,2.232-2.453.482-4.96.691-7.447.992-1.523.184-3.051.324-4.58.457a4.918,4.918,0,0,1-.951-.1l-.087-.316c.743-.341,1.479-.7,2.23-1.018q1.234-.526,2.493-1c.946-.356,1.9-.688,2.856-1.015a.754.754,0,0,1,.5-.033c1.638.752,3.126-.5,4.5-.224.236-.622.277-1.238.6-1.476C258.949,188.133,260.135,188.492,261.13,189.4Z" fill="#8c5e35"/>
          <path id="Path_3165" data-name="Path 3165" d="M257.6,188.175c-.573.482-1.138.974-1.735,1.424-.047.035-.411-.192-.466-.351-.168-.5.71-1.814,1.24-1.946C257.252,187.149,257.488,187.418,257.6,188.175Z" fill="#8c5e35"/>
          <path id="Path_3166" data-name="Path 3166" d="M273.112,186.145c.194-.154.379-.323.585-.458a.833.833,0,0,0,.441-1.05,1.284,1.284,0,0,1,.285-1.072,1.137,1.137,0,0,1,1.034-.111.969.969,0,0,1,.167.913c-.712.729-1.515,1.37-2.287,2.041Z" fill="#8c5e35"/>
          <path id="Path_3167" data-name="Path 3167" d="M276.671,180.363a4.742,4.742,0,0,1,1.062.95c.08.136-.31.556-.5.836a.987.987,0,0,1-.3.28c-.279.164-.571.306-.858.457a6.384,6.384,0,0,1-.079-.932,2.91,2.91,0,0,1,.189-.9A3.774,3.774,0,0,1,276.671,180.363Z" fill="#8c5e35"/>
          <path id="Path_3168" data-name="Path 3168" d="M274.225,182.22c-.443.348-.724.7-1.072.786-.157.04-.684-.561-.634-.656a2.451,2.451,0,0,1,.866-.9C273.458,181.409,273.844,181.865,274.225,182.22Z" fill="#8c5e35"/>
          <path id="Path_3169" data-name="Path 3169" d="M275.283,178.824c.348.479.743.843.678.968a1.352,1.352,0,0,1-.818.652c-.2.04-.712-.436-.679-.522A5.393,5.393,0,0,1,275.283,178.824Z" fill="#8c5e35"/>
          <path id="Path_3170" data-name="Path 3170" d="M240.162,169.514c-.311-.413-.661-.765-.612-.833a3.258,3.258,0,0,1,.914-.848c.061-.039.6.45.56.519A7.813,7.813,0,0,1,240.162,169.514Z" fill="#8c5e35"/>
          <path id="Path_3171" data-name="Path 3171" d="M223.612,182.243l-.613.665a3.211,3.211,0,0,1-.694-.82c-.055-.14.294-.439.46-.666Z" fill="#8c5e35"/>
          <path id="Path_3172" data-name="Path 3172" d="M252.543,189.442c.457.05.915.1,1.368.164a1.628,1.628,0,0,1,0,.349c-.459.017-.919.016-1.378.016C252.536,189.794,252.54,189.618,252.543,189.442Z" fill="#8c5e35"/>
        </g>
      </g>
      <path id="Path_3173" data-name="Path 3173" d="M252.682,185.61a146.223,146.223,0,0,1-21.409-1.78c-23.111-3.493-23.113-14.126-23.1-14.577l.714.016c0,.1.068,10.465,22.494,13.855,16.317,2.466,37.967,3.591,48.447-5.053a16.821,16.821,0,0,0,6.125-12.847l.715.029a17.51,17.51,0,0,1-6.386,13.369C273.9,183.89,263.515,185.61,252.682,185.61Z" fill="#f3e2ce"/>
    </g>
  </g>
</svg>
