<svg xmlns="http://www.w3.org/2000/svg" width="129.107" height="106.617" viewBox="0 0 129.107 106.617">
  <g id="Group_3456" data-name="Group 3456" transform="translate(-57.697 -319.708)">
    <g id="Group_3433" data-name="Group 3433">
      <path id="Path_3242" data-name="Path 3242" d="M89.6,390.971s-20.705-1.232-28.1,10.6,23.417,26.128,50.776,24.649,48.8-7.148,50.776-22.184c1.773-13.521-38.2-15.282-46.832-15.282S89.6,390.971,89.6,390.971Z" fill="#603f2f"/>
      <path id="Path_3243" data-name="Path 3243" d="M82.2,400.091s2.219,6.9,3.944,9.367c.9,1.293,13.8,2.465,27.113,1.972s21.444-1.972,23.416-2.712c1.726-2.218,2.958-9.366,2.958-9.366Z" fill="#0c0409"/>
      <path id="Path_3244" data-name="Path 3244" d="M161.824,343.492s7.29-7.985,16.217-3.912,11.62,21.293,5.336,30.743-18.783,15.038-32.1,14.967a106.745,106.745,0,0,0,3.787-11.882c11.571-1.139,17.444-4.421,19.3-13.319s-3.873-13.261-15.826-3.736C161.37,346.456,161.824,343.492,161.824,343.492Z" fill="#40281a"/>
      <g id="Group_3430" data-name="Group 3430">
        <path id="Path_3245" data-name="Path 3245" d="M170.036,338.832a17.773,17.773,0,0,0-7.971,4.568s-.493,2.958-3.451,12.817c3.9-3.023,7.125-4.6,9.647-5.064A42.1,42.1,0,0,1,170.036,338.832Z" fill="#0c0409"/>
        <path id="Path_3246" data-name="Path 3246" d="M162.947,371.9a44.612,44.612,0,0,1-8.03,1.32,106.635,106.635,0,0,1-3.944,11.832,45.982,45.982,0,0,0,10.991-1.129A24.066,24.066,0,0,1,162.947,371.9Z" fill="#0c0409"/>
      </g>
      <g id="Group_3432" data-name="Group 3432">
        <path id="Path_3247" data-name="Path 3247" d="M128.543,358.189c-26.62,3.943-48.8-2.711-62.607-8.627a18.682,18.682,0,0,1-8.167-6.352c.018.122.033.19.033.19s5.669,27.853,8.134,38.944,6.162,14.789,13.31,18.24c21.2,9.86,42.889,7.641,55.952,3.451S150.973,392.2,150.973,392.2s11.092-32.29,12.818-50.776a10.847,10.847,0,0,0-.085-2.75C161.08,346.6,149.739,355.049,128.543,358.189Z" fill="#40281a"/>
        <path id="Path_3248" data-name="Path 3248" d="M65.936,349.562c13.8,5.916,35.987,12.57,62.607,8.627,21.2-3.14,32.537-11.593,35.163-19.511-2.9-18-52.17-18.941-52.17-18.941-25.388-.493-38.945,5.423-47.079,11.338-7.317,5.322-6.855,11.04-6.688,12.135A18.682,18.682,0,0,0,65.936,349.562Z" fill="#603f2f"/>
        <path id="Path_3249" data-name="Path 3249" d="M69.895,347.989c12.583,5.257,32.8,11.17,57.07,7.666,19.322-2.79,29.659-10.3,32.053-17.337-2.645-15.99-47.556-16.83-47.556-16.83-23.142-.438-35.5,4.819-42.915,10.075-6.67,4.728-6.249,9.809-6.1,10.782A16.969,16.969,0,0,0,69.895,347.989Z" fill="#e8cdb3"/>
        <g id="_7uaEvf.tif" data-name="7uaEvf.tif">
          <g id="Group_3431" data-name="Group 3431">
            <path id="Path_3250" data-name="Path 3250" d="M68.808,345.332c-2.6-1.442-3.182-2.855-2.589-6.331a4.348,4.348,0,0,1,2.939-3.24,6.75,6.75,0,0,0,.768,6.137c.394-.88-.4-1.282-.174-2.009.889-2.814,1.031-6.044,4.73-7.215-.02.695-.545.965-.891,1.32-1.179,1.214-1.848,2.473-.955,4.171.171.326,1.216,1.3-.353,1.49a3.425,3.425,0,0,0,.978,1.079c1.5.9,3.193,1.416,4.617,2.515a21.779,21.779,0,0,0,7.569,3.35,4.614,4.614,0,0,1,2.039.778c-.632.39-1.307.121-2.044.33l9.348,1.11c.032-1.1-.475-1.445-1.446-1.5a10.368,10.368,0,0,1-4.467-.938c2.843.309,5.684.629,8.528.924a152.465,152.465,0,0,0,23.987.884c1.734-.094,3.459.6,5.176-.049a.481.481,0,0,1,.668.287c.113.423-.224.579-.55.63-.646.1-1.307.115-1.951.225-.368.063-1.032-.111-.892.593.109.549.625.336.955.247,1.64-.442,3.449-.531,4.607-2.031.15-.194.448-.28.812-.5-1.979.016-3.831.7-6.056-.06,3.02-.708,5.63-1.521,8.35-2.013A71.412,71.412,0,0,0,147.7,341.44a20.6,20.6,0,0,0,3.952-2.273c1.168-.834,1.266-1.721.753-3.046-.8.689-.722,1.891-1.8,2.3-.264-.66.284-1.075.5-1.523.637-1.32-.115-2.758.452-4.1.136-.322-.534-.611-.883-.854a30.478,30.478,0,0,1-4.752-3.567c.757-.25,1.3-.645,1.807.475a2.927,2.927,0,0,0,2.546,1.493,4.566,4.566,0,0,1,3.361,1.737,12.225,12.225,0,0,1,2.8,4.659c.74,2.317-.848,3.864-2.429,5.192a45.917,45.917,0,0,1-5.89,3.955,55.551,55.551,0,0,1-7.551,3.706,66.786,66.786,0,0,1-28.222,5.251c-5.6-.2-11.125-1.263-16.705-1.662a73.885,73.885,0,0,1-15.468-2.982,25.6,25.6,0,0,1-5.379-2.415,6.427,6.427,0,0,0-1.576-.691c-1.565-.422-3.269-.536-4.463-1.823.821-.037,1.377.816,2.508.635-1.305-.993-1.8-2.475-3.2-3.136C66.823,344.071,68.341,344.548,68.808,345.332Zm15.217,2.049c-3.663-1.231-7.243-2.514-10.008-5.257-.669-.664-1-.2-1.427.236-.725.725.206.824.464.955,2.119,1.073,4.267,2.094,6.421,3.1A11.661,11.661,0,0,0,84.025,347.381Zm53.585-1.357.085.3c1.621-.4,3.245-.792,4.859-1.22.257-.068.762-.066.63-.523-.121-.418-.518-.275-.822-.173C140.776,344.943,139.194,345.485,137.61,346.024Z" fill="#8c5e35"/>
            <path id="Path_3251" data-name="Path 3251" d="M121.418,337.588a5.834,5.834,0,0,1-1.252-.325c-.632-.3-1.037-.328-1.467.34-.256.4-.871.934-1.343.413-.359-.4-.139-.954.317-1.5a6.792,6.792,0,0,1,4.274-2.44c.355-.06.808-.219,1.05.171.222.357-.181.565-.38.788-.315.353-.818.63-.054,1.064a.688.688,0,0,1,.33.962C122.614,337.541,122.111,337.593,121.418,337.588Z" fill="#d9a77a"/>
            <path id="Path_3252" data-name="Path 3252" d="M74.146,334.923c-1.094,4.006,2.013,4.937,4.758,6.128.35.151.734.23,1.072.4.548.275,1.715.2,1.537.84-.241.864-1.223.276-1.845.125a17.8,17.8,0,0,1-5.632-2.887A2.94,2.94,0,0,1,74.146,334.923Z" fill="#8c5e35"/>
            <path id="Path_3253" data-name="Path 3253" d="M108.291,332.107c-1.151.658-2.319-.762-3.549.175.464.5.847,1.2-.087,1.664a2.522,2.522,0,0,1-2.649.019c-.236-.158-.392-.584-.18-.684,1.043-.489,1.12-2.175,2.712-1.984a5.667,5.667,0,0,0,3.153-.68c.442-.212,1.121-.544,1.492.015.329.5-.376.788-.582,1.191Z" fill="#d9a77a"/>
            <path id="Path_3254" data-name="Path 3254" d="M108.875,336.9c.855.35,1.736.287,1.343,1.148-.325.712-.909.387-1.4.153-1.021-.491-1.049-.8-.238-2.37a7.955,7.955,0,0,0-2.423.271c-.794.083-1.516.642-2.4.362.03-.85.754-.84,1.273-.989a17.194,17.194,0,0,1,4.24-.443,3.1,3.1,0,0,0,2.043-.36.8.8,0,0,1,1.057.1.583.583,0,0,1,.114.736.707.707,0,0,1-.973.327C110.41,335.427,110.047,336.508,108.875,336.9Z" fill="#8c5e35"/>
            <path id="Path_3255" data-name="Path 3255" d="M110.618,341.318c-2.583.377-4.743.8-6.933.323-.485-.1-1.267-.15-1.175-.837.072-.538.732-.3,1.126-.254.795.09,1.17-.425,1.615-.9.626-.667,1.113-.7,1.264.345.147,1.011.749.969,1.27.376.783-.89,1.3-.974,1.665.248C109.579,341.055,110.019,341.02,110.618,341.318Z" fill="#d9a77a"/>
            <path id="Path_3256" data-name="Path 3256" d="M102.97,329.143c-4.123,1.226-7.981,2.85-10.948,6.494C92.536,332.3,99.416,328.81,102.97,329.143Z" fill="#d9a77a"/>
            <path id="Path_3257" data-name="Path 3257" d="M109.1,328.542a5.085,5.085,0,0,0-1.374,1.04c-.25.383-.411.913-.851.545-.381-.318-.845-.964-.438-1.518.386-.527.806-1.135,1.68-1.091a2.552,2.552,0,0,0,1.749-.253,1.019,1.019,0,0,1,1.56.211c.223.258.518.518-.02.682-.631.192-.6,1.617-1.716.856C109.51,328.893,109.352,328.748,109.1,328.542Z" fill="#8c5e35"/>
            <path id="Path_3258" data-name="Path 3258" d="M108.291,332.107l.31-.284c.938-.081,2.045.732,2.555-1.031.246-.85,1.855-1.059,3.157-.892a2.819,2.819,0,0,1-1.416,1.31c-.494.257-1.265.451-1.244,1.086.026.78-.356.948-.958.913-.812-.047-1.767.457-2.37-.482C108.226,332.573,108.3,332.316,108.291,332.107Z" fill="#8c5e35"/>
            <path id="Path_3259" data-name="Path 3259" d="M125.949,339.918a1.878,1.878,0,0,0-1.808,1.1,1.793,1.793,0,0,1-.57.563c-.592.465-1.161,1.027-2.034.729a.768.768,0,0,1-.516-.75c-.011-.895.794-1.041,1.394-1.366a3.169,3.169,0,0,0,.448-.189C124.351,338.844,124.349,338.842,125.949,339.918Z" fill="#8c5e35"/>
            <path id="Path_3260" data-name="Path 3260" d="M130.235,340.461c-.816-.133-1.368-.051-1.452-.59-.069-.438.382-.61.745-.712.533-.149.7-.446.825-.982.1-.47.705-.619,1.235-.519a.844.844,0,0,1,.73.56.787.787,0,0,1-.537,1.01C131.1,339.551,130.9,340.655,130.235,340.461Z" fill="#8c5e35"/>
            <path id="Path_3261" data-name="Path 3261" d="M111.264,346.2c2.851-.559,5.351-.076,8.289-.2C118,346.862,113.2,346.918,111.264,346.2Z" fill="#8c5e35"/>
            <path id="Path_3262" data-name="Path 3262" d="M131.208,333.144c-.352.5-.707,1.016-1.063,1.526-.829-.586-.828-1.561-1.131-2.381-.108-.294-.009-.883.515-.77A2.359,2.359,0,0,1,131.208,333.144Z" fill="#8c5e35"/>
            <path id="Path_3263" data-name="Path 3263" d="M78.849,330.392c.54-1.445,2.72-3.1,3.651-3.049.143.009.368.072.4.166a.573.573,0,0,1-.272.679,4.8,4.8,0,0,1-.529.368C81.13,329.111,80.152,329.658,78.849,330.392Z" fill="#8c5e35"/>
            <path id="Path_3264" data-name="Path 3264" d="M128.211,336.325c-.926.343-1.338,1.535-2.176,1.006-.982-.62-.194-1.741-.29-2.633-.035-.321.383-.523.726-.506.167.009.469.324.462.333C126,335.827,127.236,335.988,128.211,336.325Z" fill="#8c5e35"/>
            <path id="Path_3265" data-name="Path 3265" d="M100.646,334.428c-2.178.994-2.883,2.629-2.264,4.934a2.473,2.473,0,0,1-.7-3.17A2.7,2.7,0,0,1,100.646,334.428Z" fill="#8c5e35"/>
            <path id="Path_3266" data-name="Path 3266" d="M116.219,333.766c-.745-.016-1.581.2-1.695-.676-.11-.848.7-.835,1.273-.8.716.043,1.842-.227,1.947.675C117.856,333.92,116.724,333.586,116.219,333.766Z" fill="#8c5e35"/>
            <path id="Path_3267" data-name="Path 3267" d="M115.205,337.74a1.458,1.458,0,0,1-1.512.987.841.841,0,0,1-.839-.987,1.125,1.125,0,0,1,1.322-1.1A1.2,1.2,0,0,1,115.205,337.74Z" fill="#8c5e35"/>
            <path id="Path_3268" data-name="Path 3268" d="M117.858,339.864a2.527,2.527,0,0,1-2.913.329c-.378-.2-.705-.338-.49-.8.182-.4.686-.612.941-.391C116.062,339.577,117,339.246,117.858,339.864Z" fill="#8c5e35"/>
            <path id="Path_3269" data-name="Path 3269" d="M142.164,327.433a5.168,5.168,0,0,1-4.2-.982A5.888,5.888,0,0,1,142.164,327.433Z" fill="#8c5e35"/>
            <path id="Path_3270" data-name="Path 3270" d="M134.194,331.184c-1.123.471-1.658-.074-2.178-.75-.308-.4-.49-.775.076-1.021.476-.208,1.208-.449,1.235.376C133.349,330.443,133.952,330.6,134.194,331.184Z" fill="#8c5e35"/>
            <path id="Path_3271" data-name="Path 3271" d="M134.429,333.97c.113.669,0,1.168-.631,1.182-.581.012-.664-.438-.509-.92a2.49,2.49,0,0,0,.073-.307c.09-.48-.923-1.253.125-1.384C134.352,332.432,134.368,333.424,134.429,333.97Z" fill="#8c5e35"/>
            <path id="Path_3272" data-name="Path 3272" d="M116.518,330.766c.545-.541,3.024-.912,3.268-.632a.622.622,0,0,1,.139.438c-.042.333-.339.361-.612.389a1.788,1.788,0,0,1-.327.006C118.238,330.909,117.491,330.846,116.518,330.766Z" fill="#8c5e35"/>
            <path id="Path_3273" data-name="Path 3273" d="M101.328,336.657c.188-.43.073-1.125.845-1.115a.776.776,0,0,1,.85.769,1.02,1.02,0,0,1-.9,1.124C101.634,337.508,101.341,337.186,101.328,336.657Z" fill="#8c5e35"/>
            <path id="Path_3274" data-name="Path 3274" d="M86,343.367c-1.87.191-3.042-.13-3.675-1.675Z" fill="#8c5e35"/>
            <path id="Path_3275" data-name="Path 3275" d="M125.6,330.4c-.718.206-.911,1.551-1.968.852a.533.533,0,0,1-.1-.834C124.162,329.687,124.868,330,125.6,330.4Z" fill="#d9a77a"/>
            <path id="Path_3276" data-name="Path 3276" d="M71.154,332.755a7.219,7.219,0,0,1,3.639-1.35A5.509,5.509,0,0,1,71.154,332.755Z" fill="#8c5e35"/>
            <path id="Path_3277" data-name="Path 3277" d="M92.507,344.709a3.02,3.02,0,0,1-2.927-.347.326.326,0,0,1,.126-.533C90.694,343.6,91.432,344.162,92.507,344.709Z" fill="#8c5e35"/>
            <path id="Path_3278" data-name="Path 3278" d="M96.6,335.662c.08-.91-.362-1.881.359-2.99A2.818,2.818,0,0,1,96.6,335.662Z" fill="#d9a77a"/>
            <path id="Path_3279" data-name="Path 3279" d="M104.414,337.217c.341.1.937-.047.791.521a1.333,1.333,0,0,1-1.217.922c-.43.046-.789-.146-.756-.618C103.281,337.334,103.867,337.28,104.414,337.217Z" fill="#8c5e35"/>
            <path id="Path_3280" data-name="Path 3280" d="M145.421,341.125c.358-.842,1.059-.989,1.551-1.37.241-.187.576-.414.823-.031.157.243-.006.515-.209.7A2.245,2.245,0,0,1,145.421,341.125Z" fill="#8c5e35"/>
            <path id="Path_3281" data-name="Path 3281" d="M97.114,328.777a1.405,1.405,0,0,1-1.165.954.551.551,0,0,1-.713-.465c-.02-.714.614-.759,1.128-.867C96.687,328.331,97.023,328.338,97.114,328.777Z" fill="#d9a77a"/>
            <path id="Path_3282" data-name="Path 3282" d="M64.383,341.719a3.939,3.939,0,0,1,.495-2.81C65.427,339.839,65.411,339.932,64.383,341.719Z" fill="#8c5e35"/>
          </g>
        </g>
      </g>
    </g>
  </g>
</svg>
