<svg xmlns="http://www.w3.org/2000/svg" width="92.635" height="153.63" viewBox="0 0 92.635 153.63">
  <g id="Group_3309" data-name="Group 3309" transform="matrix(0.966, -0.259, 0.259, 0.966, -3876, -8839.486)">
    <g id="Group_3310" data-name="Group 3310" transform="translate(1417.134 9556.669)">
      <path id="Fill-1" d="M48.965,80.087c-.853-.933-.849-.923-1.956-.533a6.024,6.024,0,0,1-.95.189,13.1,13.1,0,0,0-2.5.326,6.124,6.124,0,0,1-2.822.2,2.979,2.979,0,0,0-1.512.18c-1.848.648-3.306,2.232-5.418,2.246-.187,0-.369.216-.56.317a9.785,9.785,0,0,0-3.179,1.994c-1.513.026-2.4,1.3-3.651,1.843a6.074,6.074,0,0,0-2.924,2.675,1.953,1.953,0,0,1-.948.846c-1.477.5-2.245,1.718-3.066,2.887a7.655,7.655,0,0,0-1.008,1.624c-.293.787-.393,1.643-.611,2.46a1.757,1.757,0,0,0,1.95,2.2c.948-.123,1.891-.3,2.842-.376,1.059-.086,2.185.159,2.976-.883.106-.14.5-.06.758-.087s.682.032.759-.1c.676-1.176,1.849-.922,2.884-1.1.616-.106,1.647-.2,1.732-.508.2-.739.652-.5,1.066-.645a13.026,13.026,0,0,0,2.935-1.272A9.04,9.04,0,0,1,38.27,93.16a1.624,1.624,0,0,0,.839-.42,2.852,2.852,0,0,1,2.352-1.215c.2,0,.518-.072.579-.2.492-1.067,1.676-1.122,2.483-1.722.7-.518,1.74-.647,2.294-1.254a5.222,5.222,0,0,1,2.212-1.434c.428-.156,1.018-.5,1.1-.851.187-.83.9-.85,1.4-1.155.982-.6,2.049-1.066,3.037-1.659a6.475,6.475,0,0,0,1.069-1.027c-1.176-.222-1.733-1.5-2.9-1.165-.1.028-.312-.135-.384-.26-.83-1.439-2.041-1.034-3.389-.706M59.237,41.719c.552-.453,1.028-.8,1.449-1.205.256-.247.618-.591.6-.876a9.711,9.711,0,0,1,.879-4.172,1.02,1.02,0,0,0-.7-1.432c-1.38-.049-2.935-.947-4.128.57-.125.159-.481.18-.732.189a5.714,5.714,0,0,1-1.779-.038c-.652-.193-1.05.878-1.7.236-.678.582-1.552.14-2.274.425a30.08,30.08,0,0,1-5.01,1.973,1.32,1.32,0,0,0-.787.507c-.889,1.4-2.373,1.881-3.748,2.569a20.519,20.519,0,0,0-3.123,1.925c-.8.6-.912,1.993-2.246,2.047-.049,1.4-1.9,1.4-2.081,2.689-1.722.825-1.977,2.363-1.886,3.862-.258.509-.853.088-.962.837-.123.842-1.255,1.513-.426,2.554.011.014-.06.084-.08.133-.588,1.45-.258,2.933-.134,4.4a1.494,1.494,0,0,0,.418.841c.985,1,2,1.973,3.017,2.943a.637.637,0,0,0,.434.172c1.954-.168,3.933.765,5.87-.134.478-.222.984-.387,1.451-.629a3.786,3.786,0,0,1,2.546-.777,1.459,1.459,0,0,0,1.852-.887,4.132,4.132,0,0,1,1.4-1.432c1.226-.953,2.549-1.786,3.73-2.79a21.291,21.291,0,0,0,2.318-2.5A19.01,19.01,0,0,0,54.8,51.83c.675-1.029,1.339-2.068,1.951-3.136.393-.685.511-1.631,1.061-2.1a1.993,1.993,0,0,0,.685-2.345c1.857-1.105,1.719-1.4.74-2.533M81.28,34.413a38.207,38.207,0,0,0,2.614,3.151c.594.592,1.379.942,1.3,1.972a1.058,1.058,0,0,0,.349.719c1.212,1.14,1.351,2.745,1.9,4.182.819,2.158.388,4.377.441,6.572a.671.671,0,0,1-.149.448,1.54,1.54,0,0,0-.279,1.744c-.4.792-.713,1.357-.966,1.95-.564,1.327-1.092,2.669-1.645,4-.056.134-.164.314-.281.344-1.305.337-1.113,1.249-.81,2.238-.87.51-1.157,1.74-2.378,1.786-.246.723-.5,1.445-.736,2.171a3.657,3.657,0,0,0-.086.518c-.762.488-1.759.582-2.212,1.671-.34.816-1.68.953-1.909,2.059-.036.175-.279.316-.441.454a11.644,11.644,0,0,0-2.668,2.927,5.148,5.148,0,0,1-2.286,1.857c-.508.228-.7.283-.825.864-.172.829-.44.9-1.368.99l-6.869,6.112c.251,1.792.531,3.684.774,5.581.128,1,.164,2.011.294,3.011.079.612-.591.813-.613,1.506-.027.831.129,1.93-.757,2.6a.432.432,0,0,0-.1.3c-.033,2.072-1.194,3.716-2.066,5.471-.089.179-.113.488-.241.534-1.482.535-1.872,1.945-2.592,3.106-.258.416-.82.644-1.077,1.061a16.8,16.8,0,0,1-2.472,3.108c-.869.864-1.889,1.576-2.79,2.411s-1.717,1.757-2.605,2.6a4.937,4.937,0,0,1-1.016.618c-.184.1-.471.13-.558.281-.871,1.513-2.531,2.144-3.691,3.332-.348.356-.653.931-1.361.593-.117-.056-.4.117-.542.25a13.922,13.922,0,0,1-5.072,3.142c-1.641.544-3.025,1.834-4.562,2.728-.964.56-2.007.983-3,1.5-.517.269-1,.611-1.5.911-1.009.6-1.874,1.409-3.238,1.359a4.675,4.675,0,0,0-2.239.887,17.134,17.134,0,0,1-3.146,1.3,12.446,12.446,0,0,0-3.215,1.43c-1.567,1.13-3.529,1.146-5.14,2.086-.164.1-.472-.085-.711-.078a3.465,3.465,0,0,0-.8.138c-.085.023-.147.23-.208.224-2.519-.238-4.945.537-7.427.675-.073,0-.153-.121-.307-.251.272-.783,1.02-1,1.671-1.31a5.659,5.659,0,0,0,2.3-1.347c.19-.239.681-.224,1.019-.363a13.031,13.031,0,0,0,2.762-1.215,9.348,9.348,0,0,1,4.574-2.038,3.778,3.778,0,0,0,2.174-1.409,2.575,2.575,0,0,0,2.672-.455,21.355,21.355,0,0,1,5.222-2.754,11.814,11.814,0,0,0,3.034-1.222c.5-.33.9-.83,1.423-1.11a4.677,4.677,0,0,1,2.277-.887,4.685,4.685,0,0,0,2.95-1.74c.51-.609,1.183-.258,1.46-.659.533-.772,1.382-.987,2.058-1.488a4.144,4.144,0,0,1,1.364-.7,5.322,5.322,0,0,0,1.772-1.116c1.066-.9,2.047-1.9,3.12-2.784.523-.432,1.212-.659,1.761-1.066a25.046,25.046,0,0,0,2.735-2.223c.961-.948,1.748-2.07,2.7-3.032a19.448,19.448,0,0,1,2-1.531c1.26-.982,2.608-1.872,3.124-3.541.1-.339.63-.526.89-.842a7.69,7.69,0,0,0,1.16-3.48c.041-.445.523-.849.977-1.53.017-.083-.919-.521.055-.947a3.006,3.006,0,0,0,1.183-2.745,2.421,2.421,0,0,1-.02-1.247c.691-1.55-.045-3.044-.088-4.56,0-.125-.186-.245-.34-.433a16.168,16.168,0,0,0-2.457,1.725c-1.615,1.64-3.694,2.5-5.608,3.652a7.243,7.243,0,0,0-2.143,1.691c-.65.877-1.972.755-2.39,1.837-1.593.085-2.705,1.207-4.028,1.872a22.876,22.876,0,0,0-4.07,2.207,5.9,5.9,0,0,1-2.556,1.207,17.355,17.355,0,0,0-2.647,1.029c-1.82.584-3.593,1.439-5.577,1.4a1.2,1.2,0,0,0-.477.09c-3,1.261-3,1.263-6.187,1.007-1.574.781-2.789-1-4.33-.622-.194.048-.509-.348-.75-.557-.3-.258-.576-.534-.86-.805-.112-.107-.317-.231-.308-.334.121-1.5-.8-2.979-.121-4.5a1.021,1.021,0,0,0,.136-.463,3.73,3.73,0,0,1,.745-2.562c.881-1.3,1.613-2.706,2.413-4.064.394-.669,1.382-.882,1.412-1.832,1.469.057,1.439-1.956,2.81-2.033.41-1.406,1.942-1.558,2.816-2.48a11.938,11.938,0,0,1,2.549-1.421c.717-.438,1.366-.985,2.246-1.631l.953.125-.1-.247a10.739,10.739,0,0,1,1.924-1.227c.906-.345,1.784-.711,2.662-1.125a16.521,16.521,0,0,1,2.975-.675c1.163-.295,2.294-.723,3.464-.979a14.492,14.492,0,0,1,4.446-.56c.638.056,1.392-.235,2.118-.161.316.033.639.027.95.083,2.044.366,4.138.254,6.181.8a1.384,1.384,0,0,1,1.116,1.081c1.673-.691,2.24,1.5,4.391,1.1a12.505,12.505,0,0,0,3.7-2.737,1.042,1.042,0,0,1,.264-.19,9.473,9.473,0,0,0,2.31-1.383c.58-.622.988-1.357,1.84-1.712a1.992,1.992,0,0,0,.745-.812,3.161,3.161,0,0,1,1.587-1.424,6.63,6.63,0,0,0,2.009-1.923c.52-.585.956-1.245,1.42-1.879.058-.079.053-.29.084-.291,1.248-.051,1.231-1.449,2.09-1.979.449-.278.547-1.126.858-1.845.935.308,1.272-.549,1.71-1.279.3-.5.653-.978.927-1.494.189-.357.272-.768.426-1.145a2.36,2.36,0,0,1,.413-.807c1.079-1.055,2.154-2.056,1.855-3.826-.073-.43.333-1,.628-1.424a5.5,5.5,0,0,0,.648-5.818A1.8,1.8,0,0,1,83,45.234c.491-1.289-.489-2.225-.81-3.261-.266-.858-1.314-1.472-2.01-2.2a2.427,2.427,0,0,1-.62-.736c-.248-.722-.872-.877-1.443-1.177-.442-.232-.76-.691-1.195-.944a26.444,26.444,0,0,0-3.653-1.926c-.433-.167-1.028-.054-1.464-.427-.078-.067-.226-.147-.292-.116-1.434.682-2.6-.5-3.932-.54a3.106,3.106,0,0,0-.468.084c-.385,1.417-.772,2.908-1.2,4.387-.247.854-.593,1.681-.831,2.538a17.7,17.7,0,0,1-.535,2.341c-.559,1.283-1.278,2.5-1.938,3.736-.127.239-.43.475-.409.689.121,1.242-.909,1.8-1.475,2.63-.146.215-.365.477-.34.694.145,1.25-.819,1.964-1.375,2.845A6.641,6.641,0,0,1,56.9,56.245a5.664,5.664,0,0,0-1.35,1.553c-.631.835-1.1,1.81-2.185,2.21-.231.085-.384.369-.588.543-1.043.891-1.821,2.157-3.346,2.366-1.258,1.6-3.592,1.737-4.741,3.5a.965.965,0,0,1-.686.391,15.108,15.108,0,0,0-1.622-.16c-.55.064-1.061.454-1.611.52a17.542,17.542,0,0,0-2.4.063,6.241,6.241,0,0,1-4.138-.193c-1.323-.518-2.675-.9-3.978-1.541-1.227-.6-1.519-1.791-2.353-2.6a8.371,8.371,0,0,1-1.093-1.377c-.382-.574-.96-.994-.641-1.951.205-.612-.276-1.447-.427-2.187a5.014,5.014,0,0,1-.027-1.87,19.485,19.485,0,0,1,1.272-5.424c.094-.2-.06-.5-.041-.749.02-.266.107-.755.169-.756.926-.008.93-.7,1.085-1.322a.956.956,0,0,1,.451-.617c.818-.29,1.041-1.008,1.42-1.664.468-.809.709-1.846,1.8-2.167a.539.539,0,0,0,.3-.359c.213-1.122,1.192-1.439,1.983-1.987a6.765,6.765,0,0,0,1.79-1.61c.464-.683.712-1.476,1.733-1.447a.339.339,0,0,0,.265-.154c.606-1.467,2.131-1.611,3.292-2.245,1.583-.864,3.23-1.614,4.87-2.369.526-.242,1.124-.325,1.677-.515.421-.145.915.006,1.244-.57.158-.278.87-.238,1.33-.345.931-.217,1.867.06,2.82-.717.72-.588,2.087-.384,3.166-.53,1.058-.143,2.12-.256,3.173-.429s2.094-.529,3.14,0a1.359,1.359,0,0,0,.766-1.483c-.1-1.555-.143-3.115-.245-4.67a5.933,5.933,0,0,1-.024-2.787.687.687,0,0,0-.145-.61c-.807-.743-.184-1.671-.221-2.462a2.3,2.3,0,0,0-.324-1.538,3.772,3.772,0,0,1-.62-1.925A10.091,10.091,0,0,0,60.5,9.534a9.518,9.518,0,0,1-.576-1.671,18.083,18.083,0,0,0-1.951-3.877A2.676,2.676,0,0,1,58.8.172c.167-.112.465-.222.605-.148,1.318.693,2.929.868,3.27,2.919.245,1.467,1.238,2.811,1.9,4.208.069.145.266.325.228.413-.477,1.093.252,1.981.617,2.832.739,1.725.737,3.68,1.754,5.3a1.9,1.9,0,0,1,.2.923c.037,1.385.01,2.773.072,4.157a20.247,20.247,0,0,0,.315,2.984,7.081,7.081,0,0,1-.132,4.077A1.672,1.672,0,0,0,69.3,30.058a5.651,5.651,0,0,1,3.413.75.521.521,0,0,0,.316.054,3.115,3.115,0,0,1,2.168.6,13.364,13.364,0,0,0,2.251,1.079,4.049,4.049,0,0,0,1.025.374,1.779,1.779,0,0,1,1.479.812c.218.35.836.45,1.327.688" transform="translate(39.71 0.346) rotate(17)" fill-rule="evenodd"/>
      <g id="Group_3308" data-name="Group 3308" transform="translate(80.19 0)">
        <path id="Path_31" data-name="Path 31" d="M9.051,0a44.947,44.947,0,0,0,2.015,5.585,23.482,23.482,0,0,0,1.895,2.764l.2,1.11L17.245,22.5,0,22.341a21.31,21.31,0,0,1,1.78-4.733,22.6,22.6,0,0,0,.724-2.3,3.409,3.409,0,0,0,.844-.915c.067-.156.1-.171.229-.471.293-.69.231-1.709.6-2.618C6.268,6.189,9.051,0,9.051,0Z" transform="matrix(0.899, -0.438, 0.438, 0.899, 0, 7.56)" fill="#0c0c0c"/>
      </g>
    </g>
  </g>
</svg>
