<svg xmlns="http://www.w3.org/2000/svg" width="25.171" height="25.171" viewBox="0 0 25.171 25.171">
  <path id="language-svgrepo-com" d="M14.573,2a12.585,12.585,0,1,0,12.6,12.585A12.579,12.579,0,0,0,14.573,2Zm8.722,7.551H19.582a19.7,19.7,0,0,0-1.737-4.48A10.106,10.106,0,0,1,23.294,9.551ZM14.585,4.567a17.729,17.729,0,0,1,2.4,4.984H12.181A17.729,17.729,0,0,1,14.585,4.567ZM4.844,17.1a9.845,9.845,0,0,1,0-5.034H9.1a20.785,20.785,0,0,0-.176,2.517A20.785,20.785,0,0,0,9.1,17.1Zm1.032,2.517H9.589a19.7,19.7,0,0,0,1.737,4.48,10.052,10.052,0,0,1-5.449-4.48ZM9.589,9.551H5.876a10.052,10.052,0,0,1,5.449-4.48,19.7,19.7,0,0,0-1.737,4.48Zm5,15.052a17.729,17.729,0,0,1-2.4-4.984h4.808A17.729,17.729,0,0,1,14.585,24.6Zm2.945-7.5H11.64a18.517,18.517,0,0,1-.2-2.517,18.356,18.356,0,0,1,.2-2.517h5.89a18.355,18.355,0,0,1,.2,2.517A18.516,18.516,0,0,1,17.53,17.1Zm.315,7a19.7,19.7,0,0,0,1.737-4.48h3.713A10.106,10.106,0,0,1,17.845,24.1Zm2.228-7a20.785,20.785,0,0,0,.176-2.517,20.785,20.785,0,0,0-.176-2.517h4.254a9.845,9.845,0,0,1,0,5.034Z" transform="translate(-2 -2)" fill="#1b9177"/>
</svg>
