<svg xmlns="http://www.w3.org/2000/svg" width="289.354" height="87.657" viewBox="0 0 289.354 87.657">
  <g id="Group_3234" data-name="Group 3234" transform="translate(-827.889 -910.311)">
    <g id="Group_3226" data-name="Group 3226" transform="translate(812.048 958.874) rotate(-50)">
      <g id="Group_3222" data-name="Group 3222" transform="matrix(0.848, 0.53, -0.53, 0.848, 15.257, 6.846)">
        <rect id="Rectangle_12" data-name="Rectangle 12" width="5.654" height="20.31" rx="2.827" transform="translate(35.03 14.263) rotate(62)" fill="#1b9177"/>
        <rect id="Rectangle_13" data-name="Rectangle 13" width="5.654" height="18.22" rx="2.827" transform="translate(29.379 4.185) rotate(45)" fill="#1b9177"/>
        <rect id="Rectangle_14" data-name="Rectangle 14" width="5.654" height="15.079" rx="2.827" transform="translate(14.245 0) rotate(18)" fill="#1b9177"/>
        <rect id="Rectangle_17" data-name="Rectangle 17" width="5.654" height="15.079" rx="2.827" transform="translate(0 2.554) rotate(-14)" fill="#1b9177"/>
      </g>
      <g id="Group_3225" data-name="Group 3225" transform="matrix(0.848, 0.53, -0.53, 0.848, 38.865, 0)">
        <rect id="Rectangle_12-2" data-name="Rectangle 12" width="5.654" height="20.31" rx="2.827" transform="translate(35.03 14.263) rotate(62)" fill="#1b9177"/>
        <rect id="Rectangle_13-2" data-name="Rectangle 13" width="5.654" height="18.22" rx="2.827" transform="translate(29.379 4.185) rotate(45)" fill="#1b9177"/>
        <rect id="Rectangle_14-2" data-name="Rectangle 14" width="5.654" height="15.079" rx="2.827" transform="translate(14.245 0) rotate(18)" fill="#1b9177"/>
        <rect id="Rectangle_17-2" data-name="Rectangle 17" width="5.654" height="15.079" rx="2.827" transform="translate(0 2.554) rotate(-14)" fill="#1b9177"/>
      </g>
    </g>
    <g id="Group_3227" data-name="Group 3227" transform="translate(854.433 958.874) rotate(-50)">
      <g id="Group_3222-2" data-name="Group 3222" transform="matrix(0.848, 0.53, -0.53, 0.848, 15.257, 6.846)">
        <rect id="Rectangle_12-3" data-name="Rectangle 12" width="5.654" height="20.31" rx="2.827" transform="translate(35.03 14.263) rotate(62)" fill="#1b9177"/>
        <rect id="Rectangle_13-3" data-name="Rectangle 13" width="5.654" height="18.22" rx="2.827" transform="translate(29.379 4.185) rotate(45)" fill="#1b9177"/>
        <rect id="Rectangle_14-3" data-name="Rectangle 14" width="5.654" height="15.079" rx="2.827" transform="translate(14.245 0) rotate(18)" fill="#1b9177"/>
        <rect id="Rectangle_17-3" data-name="Rectangle 17" width="5.654" height="15.079" rx="2.827" transform="translate(0 2.554) rotate(-14)" fill="#1b9177"/>
      </g>
      <g id="Group_3225-2" data-name="Group 3225" transform="matrix(0.848, 0.53, -0.53, 0.848, 38.865, 0)">
        <rect id="Rectangle_12-4" data-name="Rectangle 12" width="5.654" height="20.31" rx="2.827" transform="translate(35.03 14.263) rotate(62)" fill="#1b9177"/>
        <rect id="Rectangle_13-4" data-name="Rectangle 13" width="5.654" height="18.22" rx="2.827" transform="translate(29.379 4.185) rotate(45)" fill="#1b9177"/>
        <rect id="Rectangle_14-4" data-name="Rectangle 14" width="5.654" height="15.079" rx="2.827" transform="translate(14.245 0) rotate(18)" fill="#1b9177"/>
        <rect id="Rectangle_17-4" data-name="Rectangle 17" width="5.654" height="15.079" rx="2.827" transform="translate(0 2.554) rotate(-14)" fill="#1b9177"/>
      </g>
    </g>
    <g id="Group_3228" data-name="Group 3228" transform="translate(881.835 961.74) rotate(-50)">
      <g id="Group_3222-3" data-name="Group 3222" transform="matrix(0.848, 0.53, -0.53, 0.848, 15.257, 25.464)">
        <rect id="Rectangle_12-5" data-name="Rectangle 12" width="5.654" height="20.31" rx="2.827" transform="translate(35.03 14.263) rotate(62)" fill="#1b9177"/>
        <rect id="Rectangle_13-5" data-name="Rectangle 13" width="5.654" height="18.22" rx="2.827" transform="translate(29.379 4.185) rotate(45)" fill="#1b9177"/>
        <rect id="Rectangle_14-5" data-name="Rectangle 14" width="5.654" height="15.079" rx="2.827" transform="translate(14.245 0) rotate(18)" fill="#1b9177"/>
        <rect id="Rectangle_17-5" data-name="Rectangle 17" width="5.654" height="15.079" rx="2.827" transform="translate(0 2.554) rotate(-14)" fill="#1b9177"/>
      </g>
      <g id="Group_3225-3" data-name="Group 3225" transform="matrix(0.848, 0.53, -0.53, 0.848, 38.865, 18.617)">
        <rect id="Rectangle_12-6" data-name="Rectangle 12" width="5.654" height="20.31" rx="2.827" transform="translate(35.03 14.263) rotate(62)" fill="#1b9177"/>
        <rect id="Rectangle_13-6" data-name="Rectangle 13" width="5.654" height="18.22" rx="2.827" transform="translate(29.379 4.185) rotate(45)" fill="#1b9177"/>
        <rect id="Rectangle_14-6" data-name="Rectangle 14" width="5.654" height="15.079" rx="2.827" transform="translate(14.245 0) rotate(18)" fill="#1b9177"/>
        <rect id="Rectangle_17-6" data-name="Rectangle 17" width="5.654" height="15.079" rx="2.827" transform="translate(0 2.554) rotate(-14)" fill="#1b9177"/>
      </g>
      <g id="Group_3238" data-name="Group 3238" transform="matrix(0.848, 0.53, -0.53, 0.848, 57.502, 0)">
        <rect id="Rectangle_12-7" data-name="Rectangle 12" width="5.654" height="20.31" rx="2.827" transform="translate(35.03 14.263) rotate(62)" fill="#1b9177"/>
        <rect id="Rectangle_13-7" data-name="Rectangle 13" width="5.654" height="18.22" rx="2.827" transform="translate(29.379 4.185) rotate(45)" fill="#1b9177"/>
        <rect id="Rectangle_14-7" data-name="Rectangle 14" width="5.654" height="15.079" rx="2.827" transform="translate(14.245 0) rotate(18)" fill="#1b9177"/>
        <rect id="Rectangle_17-7" data-name="Rectangle 17" width="5.654" height="15.079" rx="2.827" transform="translate(0 2.554) rotate(-14)" fill="#1b9177"/>
      </g>
    </g>
    <g id="Group_3235" data-name="Group 3235" transform="translate(838.245 984.382) rotate(-50)">
      <g id="Group_3225-4" data-name="Group 3225" transform="matrix(0.848, 0.53, -0.53, 0.848, 15.257, 0)">
        <rect id="Rectangle_12-8" data-name="Rectangle 12" width="5.654" height="20.31" rx="2.827" transform="translate(35.03 14.263) rotate(62)" fill="#1b9177"/>
        <rect id="Rectangle_13-8" data-name="Rectangle 13" width="5.654" height="18.22" rx="2.827" transform="translate(29.379 4.185) rotate(45)" fill="#1b9177"/>
        <rect id="Rectangle_14-8" data-name="Rectangle 14" width="5.654" height="15.079" rx="2.827" transform="translate(14.245 0) rotate(18)" fill="#1b9177"/>
        <rect id="Rectangle_17-8" data-name="Rectangle 17" width="5.654" height="15.079" rx="2.827" transform="translate(0 2.554) rotate(-14)" fill="#1b9177"/>
      </g>
    </g>
    <g id="Group_3229" data-name="Group 3229" transform="translate(929.957 970.851) rotate(-50)">
      <g id="Group_3222-4" data-name="Group 3222" transform="matrix(0.848, 0.53, -0.53, 0.848, 35.361, 6.846)">
        <rect id="Rectangle_12-9" data-name="Rectangle 12" width="5.654" height="20.31" rx="2.827" transform="translate(35.03 14.263) rotate(62)" fill="#1b9177"/>
        <rect id="Rectangle_13-9" data-name="Rectangle 13" width="5.654" height="18.22" rx="2.827" transform="translate(29.379 4.185) rotate(45)" fill="#1b9177"/>
        <rect id="Rectangle_14-9" data-name="Rectangle 14" width="5.654" height="15.079" rx="2.827" transform="translate(14.245 0) rotate(18)" fill="#1b9177"/>
        <rect id="Rectangle_17-9" data-name="Rectangle 17" width="5.654" height="15.079" rx="2.827" transform="translate(0 2.554) rotate(-14)" fill="#1b9177"/>
      </g>
      <g id="Group_3236" data-name="Group 3236" transform="matrix(0.848, 0.53, -0.53, 0.848, 15.257, 23.715)">
        <rect id="Rectangle_12-10" data-name="Rectangle 12" width="5.654" height="20.31" rx="2.827" transform="translate(35.03 14.263) rotate(62)" fill="#1b9177"/>
        <rect id="Rectangle_13-10" data-name="Rectangle 13" width="5.654" height="18.22" rx="2.827" transform="translate(29.379 4.185) rotate(45)" fill="#1b9177"/>
        <rect id="Rectangle_14-10" data-name="Rectangle 14" width="5.654" height="15.079" rx="2.827" transform="translate(14.245 0) rotate(18)" fill="#1b9177"/>
        <rect id="Rectangle_17-10" data-name="Rectangle 17" width="5.654" height="15.079" rx="2.827" transform="translate(0 2.554) rotate(-14)" fill="#1b9177"/>
      </g>
      <g id="Group_3225-5" data-name="Group 3225" transform="matrix(0.848, 0.53, -0.53, 0.848, 58.969, 0)">
        <rect id="Rectangle_12-11" data-name="Rectangle 12" width="5.654" height="20.31" rx="2.827" transform="translate(35.03 14.263) rotate(62)" fill="#1b9177"/>
        <rect id="Rectangle_13-11" data-name="Rectangle 13" width="5.654" height="18.22" rx="2.827" transform="translate(29.379 4.185) rotate(45)" fill="#1b9177"/>
        <rect id="Rectangle_14-11" data-name="Rectangle 14" width="5.654" height="15.079" rx="2.827" transform="translate(14.245 0) rotate(18)" fill="#1b9177"/>
        <rect id="Rectangle_17-11" data-name="Rectangle 17" width="5.654" height="15.079" rx="2.827" transform="translate(0 2.554) rotate(-14)" fill="#1b9177"/>
      </g>
    </g>
    <g id="Group_3230" data-name="Group 3230" transform="translate(970.169 964.73) rotate(-50)">
      <g id="Group_3222-5" data-name="Group 3222" transform="matrix(0.848, 0.53, -0.53, 0.848, 15.257, 20.812)">
        <rect id="Rectangle_12-12" data-name="Rectangle 12" width="5.654" height="20.31" rx="2.827" transform="translate(35.03 14.263) rotate(62)" fill="#1b9177"/>
        <rect id="Rectangle_13-12" data-name="Rectangle 13" width="5.654" height="18.22" rx="2.827" transform="translate(29.379 4.185) rotate(45)" fill="#1b9177"/>
        <rect id="Rectangle_14-12" data-name="Rectangle 14" width="5.654" height="15.079" rx="2.827" transform="translate(14.245 0) rotate(18)" fill="#1b9177"/>
        <rect id="Rectangle_17-12" data-name="Rectangle 17" width="5.654" height="15.079" rx="2.827" transform="translate(0 2.554) rotate(-14)" fill="#1b9177"/>
      </g>
      <g id="Group_3225-6" data-name="Group 3225" transform="matrix(0.848, 0.53, -0.53, 0.848, 38.865, 13.966)">
        <rect id="Rectangle_12-13" data-name="Rectangle 12" width="5.654" height="20.31" rx="2.827" transform="translate(35.03 14.263) rotate(62)" fill="#1b9177"/>
        <rect id="Rectangle_13-13" data-name="Rectangle 13" width="5.654" height="18.22" rx="2.827" transform="translate(29.379 4.185) rotate(45)" fill="#1b9177"/>
        <rect id="Rectangle_14-13" data-name="Rectangle 14" width="5.654" height="15.079" rx="2.827" transform="translate(14.245 0) rotate(18)" fill="#1b9177"/>
        <rect id="Rectangle_17-13" data-name="Rectangle 17" width="5.654" height="15.079" rx="2.827" transform="translate(0 2.554) rotate(-14)" fill="#1b9177"/>
      </g>
      <g id="Group_3239" data-name="Group 3239" transform="matrix(0.848, 0.53, -0.53, 0.848, 64.384, 0)">
        <rect id="Rectangle_12-14" data-name="Rectangle 12" width="5.654" height="20.31" rx="2.827" transform="translate(35.03 14.263) rotate(62)" fill="#1b9177"/>
        <rect id="Rectangle_13-14" data-name="Rectangle 13" width="5.654" height="18.22" rx="2.827" transform="translate(29.379 4.185) rotate(45)" fill="#1b9177"/>
        <rect id="Rectangle_14-14" data-name="Rectangle 14" width="5.654" height="15.079" rx="2.827" transform="translate(14.245 0) rotate(18)" fill="#1b9177"/>
        <rect id="Rectangle_17-14" data-name="Rectangle 17" width="5.654" height="15.079" rx="2.827" transform="translate(0 2.554) rotate(-14)" fill="#1b9177"/>
      </g>
    </g>
    <g id="Group_3231" data-name="Group 3231" transform="translate(1005.887 975.29) rotate(-50)">
      <g id="Group_3222-6" data-name="Group 3222" transform="matrix(0.848, 0.53, -0.53, 0.848, 36.687, 6.846)">
        <rect id="Rectangle_12-15" data-name="Rectangle 12" width="5.654" height="20.31" rx="2.827" transform="translate(35.03 14.263) rotate(62)" fill="#1b9177"/>
        <rect id="Rectangle_13-15" data-name="Rectangle 13" width="5.654" height="18.22" rx="2.827" transform="translate(29.379 4.185) rotate(45)" fill="#1b9177"/>
        <rect id="Rectangle_14-15" data-name="Rectangle 14" width="5.654" height="15.079" rx="2.827" transform="translate(14.245 0) rotate(18)" fill="#1b9177"/>
        <rect id="Rectangle_17-15" data-name="Rectangle 17" width="5.654" height="15.079" rx="2.827" transform="translate(0 2.554) rotate(-14)" fill="#1b9177"/>
      </g>
      <g id="Group_3237" data-name="Group 3237" transform="matrix(0.848, 0.53, -0.53, 0.848, 15.257, 20.36)">
        <rect id="Rectangle_12-16" data-name="Rectangle 12" width="5.654" height="20.31" rx="2.827" transform="translate(35.03 14.263) rotate(62)" fill="#1b9177"/>
        <rect id="Rectangle_13-16" data-name="Rectangle 13" width="5.654" height="18.22" rx="2.827" transform="translate(29.379 4.185) rotate(45)" fill="#1b9177"/>
        <rect id="Rectangle_14-16" data-name="Rectangle 14" width="5.654" height="15.079" rx="2.827" transform="translate(14.245 0) rotate(18)" fill="#1b9177"/>
        <rect id="Rectangle_17-16" data-name="Rectangle 17" width="5.654" height="15.079" rx="2.827" transform="translate(0 2.554) rotate(-14)" fill="#1b9177"/>
      </g>
      <g id="Group_3225-7" data-name="Group 3225" transform="matrix(0.848, 0.53, -0.53, 0.848, 60.295, 0)">
        <rect id="Rectangle_12-17" data-name="Rectangle 12" width="5.654" height="20.31" rx="2.827" transform="translate(35.03 14.263) rotate(62)" fill="#1b9177"/>
        <rect id="Rectangle_13-17" data-name="Rectangle 13" width="5.654" height="18.22" rx="2.827" transform="translate(29.379 4.185) rotate(45)" fill="#1b9177"/>
        <rect id="Rectangle_14-17" data-name="Rectangle 14" width="5.654" height="15.079" rx="2.827" transform="translate(14.245 0) rotate(18)" fill="#1b9177"/>
        <rect id="Rectangle_17-17" data-name="Rectangle 17" width="5.654" height="15.079" rx="2.827" transform="translate(0 2.554) rotate(-14)" fill="#1b9177"/>
      </g>
    </g>
    <g id="Group_3232" data-name="Group 3232" transform="translate(1050.471 978.271) rotate(-50)">
      <g id="Group_3222-7" data-name="Group 3222" transform="matrix(0.848, 0.53, -0.53, 0.848, 15.257, 6.846)">
        <rect id="Rectangle_12-18" data-name="Rectangle 12" width="5.654" height="20.31" rx="2.827" transform="translate(35.03 14.263) rotate(62)" fill="#1b9177"/>
        <rect id="Rectangle_13-18" data-name="Rectangle 13" width="5.654" height="18.22" rx="2.827" transform="translate(29.379 4.185) rotate(45)" fill="#1b9177"/>
        <rect id="Rectangle_14-18" data-name="Rectangle 14" width="5.654" height="15.079" rx="2.827" transform="translate(14.245 0) rotate(18)" fill="#1b9177"/>
        <rect id="Rectangle_17-18" data-name="Rectangle 17" width="5.654" height="15.079" rx="2.827" transform="translate(0 2.554) rotate(-14)" fill="#1b9177"/>
      </g>
      <g id="Group_3225-8" data-name="Group 3225" transform="matrix(0.848, 0.53, -0.53, 0.848, 38.865, 0)">
        <rect id="Rectangle_12-19" data-name="Rectangle 12" width="5.654" height="20.31" rx="2.827" transform="translate(35.03 14.263) rotate(62)" fill="#1b9177"/>
        <rect id="Rectangle_13-19" data-name="Rectangle 13" width="5.654" height="18.22" rx="2.827" transform="translate(29.379 4.185) rotate(45)" fill="#1b9177"/>
        <rect id="Rectangle_14-19" data-name="Rectangle 14" width="5.654" height="15.079" rx="2.827" transform="translate(14.245 0) rotate(18)" fill="#1b9177"/>
        <rect id="Rectangle_17-19" data-name="Rectangle 17" width="5.654" height="15.079" rx="2.827" transform="translate(0 2.554) rotate(-14)" fill="#1b9177"/>
      </g>
    </g>
  </g>
</svg>
