<svg xmlns="http://www.w3.org/2000/svg" width="848.433" height="597.861" viewBox="0 0 848.433 597.861">
  <path id="Path_1" data-name="Path 1" d="M3032.556,353.271s106.312,8.49,158.134,61.434,30.264,119.263,30.264,119.263,127.4.805,215.05,78.447,114.584,255.462,114.584,255.462,102.232-23.586,184.089-5.687,146.312,79.457,146.312,79.457l-4.743,9.485s-62.4-61.553-145.788-78.641S3543.921,883.3,3543.921,883.3s-2.583-.662-2.839-1.987c-3.509-18.187-26.439-187.8-114.874-261.828-93.384-78.176-211.127-79.035-211.127-79.035l-2.345-2.66s13.04-67.249-33.273-118.553c-19-21.045-46.771-32.573-71.928-41.1a354.252,354.252,0,0,0-74.979-16.446Z" transform="translate(-3032.556 -353.271)" fill="#eaac01"/>
</svg>
